<svg xmlns="http://www.w3.org/2000/svg" xml:space="preserve" width="3932" height="1572" overflow="hidden"><defs><clipPath id="a"><path d="M229 779h3932v1572H229z"/></clipPath><clipPath id="b"><path d="M229 779h3932v1572H229z"/></clipPath></defs><g clip-path="url(#a)" transform="translate(-229 -779)"><g clip-path="url(#b)"><path fill="none" stroke="#d9d9d9" stroke-linejoin="round" stroke-miterlimit="10" stroke-width="3.438" d="M396.5 1770.56h3715m-3715-205.01h3715m-3715-206.01h3715m-3715-205h3715M396.5 948.5h3715"/><path fill="#1973eb" d="M420.014 1565.05h22V1976h-22Zm124.004 0h21.001V1976h-21.001Zm124.004 0h21.001V1976h-21.001Zm124.004 0h21.001V1976h-21.001Zm123.004 0h22.001V1976H915.03Zm124 0h22V1976h-22Zm124.01 0h22V1976h-22Zm124 0h21V1976h-21Zm124.01 0h21V1976h-21Zm123 0h22V1976h-22Zm124 0h22.01V1976h-22.01Zm124.01 0h22V1976h-22Zm124 0h21V1976h-21Zm124.01 0h21V1976h-21Zm123 0h22V1976h-22Zm124 0h22.01V1976h-22.01Zm124.01 0h22V1976h-22Zm124 0h22V1976h-22Zm124.01 0h21V1976h-21Zm124 0h21V1976h-21Zm123 0h22.01V1976h-22.01Zm124.01 0h22V1976h-22Zm124 0h22V1976h-22Zm124.01 0h21V1976h-21Zm124 0h21V1976h-21Zm123.01 0h22V1976h-22Zm124 0h22V1976h-22Zm124 0h22V1976h-22Zm124.01 0h22V1976h-22Zm124 0h21V1976h-21Z"/><path fill="#25c8a2" d="M448.015 1559.05h21V1976h-21Zm123.004-19h22V1976h-22Zm124.004 20h22V1976h-22Zm124.004 11h22.001V1976h-22.001Zm124.004-3h21.001V1976h-21.001Zm124.009-326.01h21V1976h-21Zm123 314.01h22V1976h-22Zm124 5h22V1976h-22Zm124.01 4h22V1976h-22Zm124 21h21V1976h-21Zm124.01-9h21V1976h-21Zm123-21h22V1976h-22Zm124 2h22V1976h-22Zm124.01-1h22V1976h-22Zm124 9h22V1976h-22Zm124.01-2h21V1976h-21Zm124-1h21V1976h-21Zm123 5h22V1976h-22Zm124.01 8h22V1976h-22Zm124-22h22V1976h-22Zm124.01-25h21V1976h-21Zm124 38h21V1976h-21Zm123 22h22V1976h-22Zm124.01-25h22V1976h-22Zm124 0h22V1976h-22Zm124.01 0h22V1976h-22Zm124 5h21V1976h-21Zm124-8h21V1976h-21Zm123.01 1h22V1976h-22Zm124-7h22V1976h-22Z"/><path fill="#bf8ed1" d="M475.016 1558.05h22V1976h-22Zm124.004-3h21V1976h-21Zm124.004-9h21V1976h-21Zm123.004 3h22.001V1976h-22.001Zm124.004 51h22.001V1976h-22.001Zm124.008-467.01h22V1976h-22Zm124 429.01h21V1976h-21Zm124 3h21V1976h-21Zm123.01-3h22V1976h-22Zm124 28h22V1976h-22Zm124.01-20h22V1976h-22Zm124 38h22V1976h-22Zm124-9h21.01V1976h-21.01Zm124.01-47h21V1976h-21Zm123 66h22V1976h-22Zm124.01-95h22V1976h-22Zm124 55h22V1976h-22Zm124 275.01h21.01V1976h-21.01Zm124.01-314.01h21V1976h-21Zm123 18h22V1976h-22Zm124.01 64h22V1976h-22Zm124-29h22V1976h-22Zm124-7h22.01V1976h-22.01Zm124.01 49h21V1976h-21Zm124-43h21V1976h-21Zm123.01 76h22V1976h-22Zm124-60h22V1976h-22Zm124.01-129h22V1976h-22Zm124 120h21V1976h-21Zm124-13h21V1976h-21Z"/><path fill="none" stroke="#d9d9d9" stroke-linejoin="round" stroke-miterlimit="10" stroke-width="3.438" d="M396.5 1976.5h3715"/><text fill="#595959" font-family="Grandview Display,Grandview Display_MSFontService,sans-serif" font-size="41" font-weight="400" transform="translate(342.93 1988)">0</text><text fill="#595959" font-family="Grandview Display,Grandview Display_MSFontService,sans-serif" font-size="41" font-weight="400" transform="translate(311.626 1782)">0.5</text><text fill="#595959" font-family="Grandview Display,Grandview Display_MSFontService,sans-serif" font-size="41" font-weight="400" transform="translate(342.93 1577)">1</text><text fill="#595959" font-family="Grandview Display,Grandview Display_MSFontService,sans-serif" font-size="41" font-weight="400" transform="translate(311.626 1371)">1.5</text><text fill="#595959" font-family="Grandview Display,Grandview Display_MSFontService,sans-serif" font-size="41" font-weight="400" transform="translate(342.93 1166)">2</text><text fill="#595959" font-family="Grandview Display,Grandview Display_MSFontService,sans-serif" font-size="41" font-weight="400" transform="translate(311.626 960)">2.5</text><text fill="#595959" font-family="Grandview Display,Grandview Display_MSFontService,sans-serif" font-size="41" font-weight="400" transform="rotate(-45 2800.513 753.649)">400.perlbench</text><text fill="#595959" font-family="Grandview Display,Grandview Display_MSFontService,sans-serif" font-size="41" font-weight="400" transform="rotate(-45 2820.769 503.307)">401.bzip2</text><text fill="#595959" font-family="Grandview Display,Grandview Display_MSFontService,sans-serif" font-size="41" font-weight="400" transform="rotate(-45 2866.388 314.645)">403.gcc</text><text fill="#595959" font-family="Grandview Display,Grandview Display_MSFontService,sans-serif" font-size="41" font-weight="400" transform="rotate(-45 2930.292 170.611)">429.mcf</text><text fill="#595959" font-family="Grandview Display,Grandview Display_MSFontService,sans-serif" font-size="41" font-weight="400" transform="rotate(-45 3018.23 84.636)">445.gobmk</text><text fill="#595959" font-family="Grandview Display,Grandview Display_MSFontService,sans-serif" font-size="41" font-weight="400" transform="rotate(-45 3085.357 -53.525)">456.hmmer</text><text fill="#595959" font-family="Grandview Display,Grandview Display_MSFontService,sans-serif" font-size="41" font-weight="400" transform="rotate(-45 3130.168 -243.648)">458.sjeng</text><text fill="#595959" font-family="Grandview Display,Grandview Display_MSFontService,sans-serif" font-size="41" font-weight="400" transform="rotate(-45 3243.527 -268.083)">462.libquantum</text><text fill="#595959" font-family="Grandview Display,Grandview Display_MSFontService,sans-serif" font-size="41" font-weight="400" transform="rotate(-45 3275.116 -491.157)">464.h264ref</text><text fill="#595959" font-family="Grandview Display,Grandview Display_MSFontService,sans-serif" font-size="41" font-weight="400" transform="rotate(-45 3345.431 -619.943)">471.omnetpp</text><text fill="#595959" font-family="Grandview Display,Grandview Display_MSFontService,sans-serif" font-size="41" font-weight="400" transform="rotate(-45 3376.619 -845.461)">473.astar</text><text fill="#595959" font-family="Grandview Display,Grandview Display_MSFontService,sans-serif" font-size="41" font-weight="400" transform="rotate(-45 3489.49 -872.134)">483.xalancbmk</text><text fill="#595959" font-family="Grandview Display,Grandview Display_MSFontService,sans-serif" font-size="41" font-weight="400" transform="rotate(-45 3521.357 -1092.464)">410.bwaves</text><text fill="#595959" font-family="Grandview Display,Grandview Display_MSFontService,sans-serif" font-size="41" font-weight="400" transform="rotate(-45 3585.483 -1237.036)">416.gamess</text><text fill="#595959" font-family="Grandview Display,Grandview Display_MSFontService,sans-serif" font-size="41" font-weight="400" transform="rotate(-45 3616.44 -1461.999)">433.milc</text><text fill="#595959" font-family="Grandview Display,Grandview Display_MSFontService,sans-serif" font-size="41" font-weight="400" transform="rotate(-45 3709.233 -1535.795)">434.zeusmp</text><text fill="#595959" font-family="Grandview Display,Grandview Display_MSFontService,sans-serif" font-size="41" font-weight="400" transform="rotate(-45 3779.573 -1664.64)">435.gromacs</text><text fill="#595959" font-family="Grandview Display,Grandview Display_MSFontService,sans-serif" font-size="41" font-weight="400" transform="rotate(-45 3865.9 -1756.968)">436.cactusADM</text><text fill="#595959" font-family="Grandview Display,Grandview Display_MSFontService,sans-serif" font-size="41" font-weight="400" transform="rotate(-45 3895.123 -1984.573)">437.leslie3d</text><text fill="#595959" font-family="Grandview Display,Grandview Display_MSFontService,sans-serif" font-size="41" font-weight="400" transform="rotate(-45 3937.374 -2182.174)">444.namd</text><text fill="#595959" font-family="Grandview Display,Grandview Display_MSFontService,sans-serif" font-size="41" font-weight="400" transform="rotate(-45 3997.44 -2334.014)">447.dealII</text><text fill="#595959" font-family="Grandview Display,Grandview Display_MSFontService,sans-serif" font-size="41" font-weight="400" transform="rotate(-45 4069.49 -2460.158)">450.soplex</text><text fill="#595959" font-family="Grandview Display,Grandview Display_MSFontService,sans-serif" font-size="41" font-weight="400" transform="rotate(-45 4132.624 -2605.749)">453.povray</text><text fill="#595959" font-family="Grandview Display,Grandview Display_MSFontService,sans-serif" font-size="41" font-weight="400" transform="rotate(-45 4203.926 -2733.503)">454.calculix</text><text fill="#595959" font-family="Grandview Display,Grandview Display_MSFontService,sans-serif" font-size="41" font-weight="400" transform="rotate(-45 4296.989 -2807.951)">459.GemsFDTD</text><text fill="#595959" font-family="Grandview Display,Grandview Display_MSFontService,sans-serif" font-size="41" font-weight="400" transform="rotate(-45 4304.576 -3089.164)">465.tonto</text><text fill="#595959" font-family="Grandview Display,Grandview Display_MSFontService,sans-serif" font-size="41" font-weight="400" transform="rotate(-45 4354.326 -3267.31)">470.lbm</text><text fill="#595959" font-family="Grandview Display,Grandview Display_MSFontService,sans-serif" font-size="41" font-weight="400" transform="rotate(-45 4412.705 -3425.322)">481.wrf</text><text fill="#595959" font-family="Grandview Display,Grandview Display_MSFontService,sans-serif" font-size="41" font-weight="400" transform="rotate(-45 4514.093 -3478.899)">482.sphinx3</text><text fill="#595959" font-family="Grandview Display,Grandview Display_MSFontService,sans-serif" font-size="41" font-weight="400" transform="rotate(-45 4564.167 -3657.83)">GEOMEAN</text><text fill="#595959" font-family="Grandview Display,Grandview Display_MSFontService,sans-serif" font-size="64" font-weight="700" transform="translate(1475.76 878)">SPECCPU 2006 on</text><text fill="#595959" font-family="Grandview Display,Grandview Display_MSFontService,sans-serif" font-size="64" font-weight="700" transform="translate(2062.66 878)">Xuantie</text><text fill="#595959" font-family="Grandview Display,Grandview Display_MSFontService,sans-serif" font-size="64" font-weight="700" transform="translate(2296.45 878)">C920v2 with GCC15.0</text><path fill="#1973eb" d="M1893 2279h18v19h-18z"/><text fill="#595959" font-family="Grandview Display,Grandview Display_MSFontService,sans-serif" font-size="41" font-weight="400" transform="translate(1919.01 2300)">gc</text><path fill="#25c8a2" d="M2001 2279h18v19h-18z"/><text fill="#595959" font-family="Grandview Display,Grandview Display_MSFontService,sans-serif" font-size="41" font-weight="400" transform="translate(2027.01 2300)">gc_zba_zbb</text><path fill="#bf8ed1" d="M2270 2279h19v19h-19z"/><text fill="#595959" font-family="Grandview Display,Grandview Display_MSFontService,sans-serif" font-size="41" font-weight="400" transform="translate(2296.18 2300)">gcbv_zicond</text></g></g></svg>