<svg xmlns="http://www.w3.org/2000/svg" xmlns:xlink="http://www.w3.org/1999/xlink" width="901pt" height="359pt" viewBox="0 0 901 359"><defs><path id="b" d="M4.922-12.453H2.016v-1.406H6.64v12.437h2.937V0h-7.89v-1.422h3.234Zm0 0"/><path id="c" d="M1.063-4.719q-.001-1.247.343-2.218.341-.985.969-1.657a4.2 4.2 0 0 1 1.531-1.015 5.5 5.5 0 0 1 1.969-.344q.48.002.938.062.45.049.89.172v-4.14h1.719V0H7.89l-.063-1.86Q7.125-.826 6.281-.327q-.83.499-1.797.5Q3.64.17 3-.172q-.646-.356-1.078-1-.423-.638-.64-1.547a8.4 8.4 0 0 1-.22-2m1.75-.11q0 1.782.515 2.673.528.877 1.5.875.639 0 1.36-.578c.476-.383.984-.957 1.515-1.72V-8.14a3.8 3.8 0 0 0-.937-.296 5 5 0 0 0-1-.11c-.93 0-1.653.305-2.172.906-.524.594-.781 1.532-.781 2.813m0 0"/><path id="d" d="M8.453-4.547h-5.86V-6.14h5.86Zm0 0"/><path id="e" d="M4.922-8.437H2.016v-1.407H6.64v8.422h2.937V0h-7.89v-1.422h3.234Zm.594-5.532c.187 0 .363.04.53.11q.248.094.423.28.187.19.281.438c.07.157.11.329.11.516 0 .18-.04.352-.11.516a1.2 1.2 0 0 1-.281.437 1.25 1.25 0 0 1-.422.297 1.5 1.5 0 0 1-.531.094 1.5 1.5 0 0 1-.532-.094 1.4 1.4 0 0 1-.421-.297 1.4 1.4 0 0 1-.297-.437 1.4 1.4 0 0 1-.094-.516q0-.281.094-.516a1.4 1.4 0 0 1 .297-.437q.187-.188.421-.281c.164-.07.344-.11.532-.11m0 0"/><path id="f" d="M1.563-9.844h1.53l.063 1.594q.436-.516.828-.844.405-.34.797-.547.388-.216.782-.296.404-.078.843-.079 1.512.002 2.297.907c.52.593.781 1.492.781 2.687V0H7.781v-6.281q-.002-1.154-.437-1.703-.439-.563-1.282-.563-.314 0-.625.094-.297.094-.625.328-.313.223-.687.61-.375.392-.844.984V0H1.562Zm0 0"/><path id="g" d="M9.484 0h-1.53L7.89-1.594a7.4 7.4 0 0 1-.844.86 5 5 0 0 1-.781.547 3 3 0 0 1-.797.28 4.4 4.4 0 0 1-.828.079q-1.518 0-2.297-.89c-.524-.594-.781-1.489-.781-2.688v-6.438H3.28v6.297q0 2.267 1.703 2.266.31 0 .61-.094.295-.093.625-.328.328-.233.703-.625.374-.387.86-.985v-6.53h1.702Zm0 0"/><path id="h" d="M10.438 0H8.172L5.516-3.75 2.89 0H.688L4.5-4.937.86-9.844h2.187L5.64-6.063l2.53-3.78h2.11L6.594-4.907Zm0 0"/><path id="i" d="M1.969-9.844H3.53l.047 1.813q.874-1.045 1.719-1.516.841-.468 1.719-.469 1.529 0 2.312.985.795.985.735 2.937H8.328q.03-1.277-.375-1.86-.409-.592-1.187-.593-.346.001-.703.125-.346.128-.72.39-.36.268-.765.688-.407.423-.875 1.016V0H1.97Zm0 0"/><path id="j" d="M9.36-2.687q-.002.515-.172.937a2.5 2.5 0 0 1-.485.734Q8.404-.7 8-.469a5.5 5.5 0 0 1-.86.375q-.456.14-.937.203-.487.062-.937.063-1.001 0-1.844-.094a11 11 0 0 1-1.64-.281v-1.563q.856.252 1.718.375c.57.086 1.14.125 1.703.125q1.218 0 1.797-.328c.395-.226.594-.547.594-.953q0-.264-.094-.469a1.06 1.06 0 0 0-.344-.406q-.234-.2-.75-.406-.515-.2-1.406-.469-.674-.187-1.234-.437a4.2 4.2 0 0 1-.985-.594 2.5 2.5 0 0 1-.64-.797 2.4 2.4 0 0 1-.235-1.094q0-.42.188-.906.199-.497.656-.906c.313-.281.727-.516 1.25-.703q.78-.282 1.953-.282c.395 0 .828.024 1.297.063q.702.065 1.469.219v1.515A16 16 0 0 0 7.188-8.5a10 10 0 0 0-1.25-.094q-.645 0-1.079.094a2.3 2.3 0 0 0-.703.266q-.268.174-.39.406-.111.235-.11.5 0 .269.094.484c.07.137.203.274.39.407.188.136.446.273.782.406q.5.204 1.297.437.872.251 1.468.532.61.282.985.625.374.346.531.78.155.423.156.97m0 0"/><path id="k" d="M9.219-.36q-.673.253-1.375.376Q7.139.14 6.406.14q-2.343 0-3.61-1.266-1.251-1.266-1.25-3.703-.002-1.155.36-2.11a4.9 4.9 0 0 1 1.032-1.625A4.4 4.4 0 0 1 4.5-9.608q.902-.375 2.016-.375c.507 0 .984.039 1.422.109a6 6 0 0 1 1.28.36v1.624a6 6 0 0 0-1.312-.484 6 6 0 0 0-1.36-.156c-.437 0-.855.086-1.25.25a3 3 0 0 0-1.015.719q-.44.47-.703 1.156-.251.674-.25 1.531-.001 1.781.86 2.672.874.877 2.421.875.687.001 1.344-.156.657-.153 1.266-.47Zm0 0"/><path id="l" d="M.64-9.844h1.954L5-3.328l.516 1.578.547-1.625 2.39-6.469h1.875L6.453 0H4.5Zm0 0"/><path id="m" d="M10.047-4.062q0 .891-.328 1.671-.316.769-.906 1.344a4.4 4.4 0 0 1-1.422.89 5 5 0 0 1-1.828.329c-.711 0-1.336-.113-1.875-.328a3.3 3.3 0 0 1-1.36-1.047c-.367-.469-.648-1.055-.844-1.766q-.28-1.078-.28-2.531c0-.656.038-1.29.124-1.906a8 8 0 0 1 .422-1.735q.294-.81.781-1.484a5 5 0 0 1 1.219-1.156 5.7 5.7 0 0 1 1.719-.766q.998-.264 2.312-.265h1.266v1.484H7.672q-1.159 0-2 .281-.844.269-1.406.766a3.5 3.5 0 0 0-.875 1.219q-.3.704-.375 1.578l-.047.39q.623-.356 1.422-.578a6.8 6.8 0 0 1 1.75-.219q.983 0 1.703.282a3.24 3.24 0 0 1 1.953 2c.164.468.25.984.25 1.547m-1.797.109q0-.593-.14-1.063a1.96 1.96 0 0 0-.454-.796q-.298-.33-.765-.516c-.305-.125-.672-.188-1.11-.188-.25 0-.508.028-.765.079q-.375.063-.75.187-.363.13-.688.281a7 7 0 0 0-.61.328q-.002 1.268.173 2.125.186.844.53 1.36c.227.336.517.574.86.719a2.9 2.9 0 0 0 1.172.218q.563 0 1.031-.187.47-.186.797-.532.343-.356.532-.859.187-.5.187-1.156m0 0"/><path id="n" d="M10.516-2.828H8.328V0H6.594v-2.828H.422v-1.5l5.453-8.484h2.453v8.484h2.188Zm-3.922-8.344L2.125-4.328h4.469Zm0 0"/><path id="o" d="M9.984-5.094q0 1.312-.375 2.297c-.242.649-.578 1.188-1.015 1.625-.43.43-.938.75-1.531.969a5.5 5.5 0 0 1-1.907.328Q4.688.123 4.22.063a7 7 0 0 1-.938-.157v4.11H1.562v-13.86h1.532l.11 1.64q.73-.995 1.562-1.405a4 4 0 0 1 1.797-.407c.562 0 1.054.121 1.484.36q.64.345 1.062.984.434.645.657 1.547.217.907.218 2.031m-1.75.078q-.002-.779-.109-1.421a3.6 3.6 0 0 0-.36-1.11 1.9 1.9 0 0 0-.64-.719 1.54 1.54 0 0 0-.906-.265q-.317.002-.657.11-.328.095-.687.343a4.8 4.8 0 0 0-.766.64q-.393.393-.828.985v4.766a5 5 0 0 0 .985.312q.513.11 1.015.11 1.388 0 2.172-.938.78-.938.781-2.813m0 0"/><path id="p" d="M5.438-3.094q.34 0 .64.14c.195.087.367.204.516.36q.216.223.343.516a1.67 1.67 0 0 1 0 1.265q-.127.3-.343.516a1.6 1.6 0 0 1-.516.344q-.3.124-.64.125Q5.09.17 4.797.047a1.8 1.8 0 0 1-.516-.344 1.5 1.5 0 0 1-.343-.516 1.5 1.5 0 0 1-.126-.624q-.001-.341.126-.641a1.6 1.6 0 0 1 .343-.516c.157-.156.328-.273.516-.36q.294-.14.64-.14m0 0"/><path id="q" d="M10.14-5q0 1.143-.328 2.11a4.8 4.8 0 0 1-.937 1.64q-.596.674-1.469 1.047C6.82.043 6.16.172 5.422.172a5.3 5.3 0 0 1-1.906-.328 3.9 3.9 0 0 1-1.422-.953q-.58-.64-.89-1.578c-.2-.633-.298-1.36-.298-2.172q-.002-1.156.313-2.094a4.7 4.7 0 0 1 .937-1.625 4.1 4.1 0 0 1 1.485-1.063q.872-.375 1.984-.375c.695 0 1.328.11 1.89.329a3.7 3.7 0 0 1 1.423.968q.574.626.89 1.563.312.937.313 2.156m-1.75.078q-.002-.902-.203-1.594-.203-.685-.578-1.14a2.2 2.2 0 0 0-.906-.672 2.9 2.9 0 0 0-1.187-.235c-.512 0-.95.102-1.313.297q-.533.3-.89.797-.346.504-.516 1.172a6 6 0 0 0-.156 1.375q-.001.909.203 1.594.201.689.578 1.156c.25.305.55.531.906.688.352.148.75.218 1.188.218q.761.001 1.312-.296.545-.293.89-.797.341-.5.5-1.157.172-.668.173-1.406m0 0"/><path id="r" d="M10.297-12.266q-1.347-.28-2.313-.28-2.295.002-2.296 2.405v1.735H10v1.422H5.688V0H3.952v-6.984H.781v-1.422h3.172v-1.64q-.001-3.922 4.094-3.923 1.014 0 2.25.235ZM0-9.844"/><path id="s" d="M9.875-5.437q-.002.363-.016.609-.002.235-.015.453H2.938q0 1.52.843 2.328c.563.531 1.367.797 2.422.797q.436.002.86-.031.434-.03.828-.094.405-.06.78-.125c.25-.05.477-.11.688-.172v1.406a10 10 0 0 1-1.578.313Q6.902.17 5.953.172 4.701.17 3.781-.172a3.8 3.8 0 0 1-1.5-.984q-.578-.657-.86-1.594-.28-.95-.28-2.156c0-.688.097-1.336.297-1.953q.312-.937.875-1.641a4.2 4.2 0 0 1 1.406-1.11q.841-.405 1.906-.406 1.015 0 1.813.329.794.314 1.343.906.544.598.813 1.453a6 6 0 0 1 .281 1.89m-1.766-.25a3.8 3.8 0 0 0-.125-1.204 2.55 2.55 0 0 0-.484-.937 2.3 2.3 0 0 0-.828-.61 2.7 2.7 0 0 0-1.125-.218q-.563 0-1.031.219-.457.222-.797.609a3.1 3.1 0 0 0-.531.937 4.3 4.3 0 0 0-.25 1.204Zm0 0"/><path id="t" d="m7.89 0-.03-1.328Q7.044-.53 6.218-.172a4.55 4.55 0 0 1-1.735.344Q3.641.17 3.031-.031a2.7 2.7 0 0 1-.984-.594 2.5 2.5 0 0 1-.563-.89 3.2 3.2 0 0 1-.187-1.11c0-.988.367-1.758 1.11-2.312q1.108-.844 3.265-.844h2.031v-.86q0-.873-.562-1.39-.55-.53-1.703-.531a7.2 7.2 0 0 0-1.641.187 10.6 10.6 0 0 0-1.672.516v-1.532q.327-.123.719-.234.404-.105.844-.187.434-.095.921-.141.481-.061.97-.063.889.002 1.609.204.715.188 1.203.593.497.392.765 1 .265.61.266 1.438V0Zm-.187-4.484H5.547c-.43 0-.797.046-1.11.14a2.1 2.1 0 0 0-.75.36q-.297.234-.437.562a1.85 1.85 0 0 0-.14.735c0 .187.023.37.078.546q.093.27.28.47.2.187.516.312.31.11.766.109.593.001 1.344-.344.764-.356 1.61-1.14Zm0 0"/><path id="u" d="M9.5-.14a7.5 7.5 0 0 1-1.203.218q-.61.062-1.25.063-1.845 0-2.766-.844-.907-.844-.906-2.578v-5.125H.625v-1.438h2.75v-2.703l1.703-.437v3.14H9.5v1.438H5.078v5q0 1.05.563 1.578.561.532 1.656.531c.32 0 .664-.023 1.031-.078q.563-.076 1.172-.234Zm0 0"/><path id="v" d="M9.484 0H7.781v-6.281Q7.78-7.42 7.344-7.984q-.423-.563-1.219-.563-.346 0-.64.094-.299.094-.626.328-.316.223-.703.61-.376.392-.875.984V0H1.562v-13.86h1.72v4.016l-.063 1.547c.27-.32.531-.594.781-.812q.388-.328.781-.532.388-.199.782-.28.404-.095.843-.095 1.467.002 2.266.907c.539.593.812 1.492.812 2.687Zm0 0"/><path id="w" d="M9.734-6.328H1.297v-1.453h8.437Zm0 3.406H1.297v-1.437h8.437Zm0 0"/><path id="x" d="M10.219-4.594h-3.86v4H4.672v-4H.828v-1.5h3.844v-3.968h1.687v3.968h3.86Zm0 0"/><path id="y" d="M9.875 0H1.438v-1.531L4.75-4.828q.811-.795 1.328-1.375a7 7 0 0 0 .797-1.078q.282-.498.375-.922c.07-.29.11-.602.11-.938q0-.468-.141-.89a2.2 2.2 0 0 0-.39-.75 1.84 1.84 0 0 0-.688-.516 2.5 2.5 0 0 0-1-.187q-.816 0-1.485.375a4.8 4.8 0 0 0-1.219.937l-.953-1.125a5.9 5.9 0 0 1 1.672-1.219q.95-.468 2.203-.468c.57 0 1.094.086 1.563.25A3.4 3.4 0 0 1 8.125-12q.516.485.797 1.188.28.69.281 1.562-.002.738-.203 1.36a5.8 5.8 0 0 1-.594 1.25 9 9 0 0 1-1 1.296c-.406.438-.883.922-1.422 1.453L3.656-1.625h6.219Zm0 0"/><path id="z" d="M9.64-3.89a3.8 3.8 0 0 1-.343 1.593Q8.952-1.56 8.266-1q-.692.55-1.735.86C5.844.065 5.04.171 4.125.171q-.767 0-1.375-.047C2.344.094 1.96.051 1.61 0v-1.531q.608.112 1.28.172.67.063 1.391.062.95.002 1.625-.172.686-.17 1.11-.5.435-.325.64-.781.201-.467.203-1.047c0-.351-.086-.66-.25-.922a2 2 0 0 0-.656-.656 3.2 3.2 0 0 0-1.016-.39 5.6 5.6 0 0 0-1.296-.141H3.17v-1.39h1.485c.383 0 .735-.052 1.047-.157.32-.102.594-.25.813-.438q.34-.28.515-.703.188-.42.188-.953c0-.676-.211-1.172-.625-1.484-.418-.32-1.032-.485-1.844-.485q-.644 0-1.328.141-.691.128-1.469.375v-1.484q.328-.124.703-.22.389-.092.766-.155.375-.059.75-.094.375-.03.703-.031 1.03.001 1.797.218.78.221 1.297.641.513.409.781 1 .265.58.266 1.313 0 1.094-.563 1.843c-.375.5-.89.899-1.547 1.188q.498.08.985.312.481.235.875.61.387.362.625.859c.164.336.25.703.25 1.11m0 0"/><path id="A" d="M5.828-.281a5.1 5.1 0 0 1-1.922.375c-1.086 0-1.918-.32-2.5-.969q-.86-.967-.86-2.875 0-.919.235-1.656.234-.75.672-1.266.45-.516 1.078-.797A3.5 3.5 0 0 1 3.97-7.75q.527 0 .984.094.452.08.875.265v1.032a3.3 3.3 0 0 0-.86-.344A3.6 3.6 0 0 0 4-6.828q-.55.002-.984.203a2.1 2.1 0 0 0-.75.594q-.3.375-.47.937a4.5 4.5 0 0 0-.155 1.25q0 1.5.609 2.25c.406.5.992.75 1.766.75a4 4 0 0 0 1.812-.422Zm0 0"/><path id="B" d="M5.672 0H4.64v-3.75c0-.457-.086-.797-.25-1.016q-.253-.341-.735-.343-.203.002-.39.062a1.1 1.1 0 0 0-.36.188 4 4 0 0 0-.422.375c-.156.156-.336.351-.53.578V0H.937v-8.281h1.015v2.39l-.031.938c.156-.195.312-.36.469-.484q.234-.2.468-.329a1.8 1.8 0 0 1 .47-.171q.231-.047.5-.047c.581 0 1.034.18 1.358.53.32.356.485.891.485 1.61Zm0 0"/><path id="C" d="M6.063-2.984q-.002.69-.204 1.265-.188.564-.546.969-.365.408-.891.64a3.1 3.1 0 0 1-1.188.22c-.418 0-.793-.067-1.125-.188a2.4 2.4 0 0 1-.859-.578 2.7 2.7 0 0 1-.531-.953Q.545-2.17.547-2.906q0-.686.187-1.25.186-.561.547-.969.375-.404.89-.625.53-.234 1.188-.234.622.002 1.125.203.516.187.86.562c.226.25.406.563.531.938q.188.563.188 1.297m-1.047.046q-.001-.544-.125-.953a1.7 1.7 0 0 0-.344-.671A1.4 1.4 0 0 0 4-4.984a1.7 1.7 0 0 0-.703-.141q-.456 0-.781.188a1.5 1.5 0 0 0-.532.468q-.206.3-.312.703-.094.394-.094.829-.001.55.125.953.122.408.344.687.215.268.531.406.327.141.719.141.451.002.781-.172.328-.186.531-.484.218-.311.313-.703.093-.389.094-.828m0 0"/><path id="D" d="M5.594-1.61c0 .212-.04.4-.11.563a1.2 1.2 0 0 1-.28.438 2.2 2.2 0 0 1-.423.328 3.1 3.1 0 0 1-1.078.344 3.4 3.4 0 0 1-.562.046A9 9 0 0 1 2.047.047a6 6 0 0 1-.985-.172v-.937a7 7 0 0 0 1.032.234c.344.055.68.078 1.015.078q.733.001 1.079-.203.358-.201.359-.578a.7.7 0 0 0-.063-.282.56.56 0 0 0-.203-.234 2.2 2.2 0 0 0-.453-.234q-.315-.123-.844-.281a9 9 0 0 1-.734-.266 2.6 2.6 0 0 1-.578-.36 1.4 1.4 0 0 1-.39-.468 1.45 1.45 0 0 1-.141-.656q-.001-.248.109-.547.122-.295.39-.547.282-.247.75-.407.47-.17 1.172-.171c.227 0 .485.015.766.046q.42.034.875.125v.907a6 6 0 0 0-.906-.172 6 6 0 0 0-.75-.063c-.25 0-.465.024-.64.063a1.5 1.5 0 0 0-.423.172.6.6 0 0 0-.234.234.6.6 0 0 0-.062.281q-.001.175.062.297.06.128.219.25.17.111.469.235.294.127.78.265.529.159.876.328.356.16.578.36.235.205.328.469.094.25.094.578m0 0"/><path id="E" d="M5.906-3.25c0 .148-.008.266-.015.36v.28H1.75c0 .594.164 1.055.5 1.376q.516.485 1.453.484.264.001.516-.016.264-.011.5-.046c.164-.032.32-.055.468-.079A4 4 0 0 0 5.595-1v.844A9 9 0 0 1 4.64.03Q4.125.108 3.563.11 2.812.107 2.266-.094a2.5 2.5 0 0 1-.907-.593 2.5 2.5 0 0 1-.515-.954 5 5 0 0 1-.156-1.296c0-.407.054-.79.171-1.157q.186-.562.532-.984.34-.422.828-.656a2.54 2.54 0 0 1 1.14-.25q.61 0 1.079.187.482.189.812.547.328.361.484.875.171.503.172 1.125m-1.062-.156a2.2 2.2 0 0 0-.078-.703 1.5 1.5 0 0 0-.297-.563 1.25 1.25 0 0 0-.485-.36 1.5 1.5 0 0 0-.671-.14q-.329.001-.61.125a1.4 1.4 0 0 0-.484.36q-.188.234-.313.562-.128.33-.156.719Zm0 0"/><path id="G" d="M.39-5.89h1.157L2.984-2l.313.953.328-.969L5.047-5.89h1.125L3.859 0H2.688Zm0 0"/><path id="H" d="M2.938-5.047H1.203v-.844H3.97v5.047h1.75V0H1.016v-.844h1.922Zm.359-3.297a.8.8 0 0 1 .312.063q.154.048.266.172a.9.9 0 0 1 .172.25.8.8 0 0 1 0 .625.9.9 0 0 1-.172.25.8.8 0 0 1-.266.172.75.75 0 0 1-.312.062.7.7 0 0 1-.313-.062.7.7 0 0 1-.25-.172.7.7 0 0 1-.171-.25.8.8 0 0 1-.063-.313q0-.171.063-.312a.8.8 0 0 1 .171-.25.57.57 0 0 1 .25-.172.8.8 0 0 1 .313-.063m0 0"/><path id="I" d="m4.719 0-.032-.797a3.1 3.1 0 0 1-.968.703A2.8 2.8 0 0 1 2.672.11q-.503-.001-.86-.125a1.8 1.8 0 0 1-.593-.359A1.5 1.5 0 0 1 .89-.906a2 2 0 0 1-.11-.672q0-.873.657-1.375c.437-.332 1.085-.5 1.953-.5h1.218v-.516q-.002-.527-.343-.844-.33-.311-1.016-.312c-.336 0-.664.04-.984.11a6 6 0 0 0-1 .327v-.921q.2-.076.437-.141c.156-.04.32-.078.5-.11q.265-.058.547-.093.294-.03.578-.031.546.001.969.125.421.11.719.343.293.235.453.61c.101.242.156.523.156.843V0Zm-.11-2.672H3.313q-.376 0-.657.078a1.1 1.1 0 0 0-.453.203.95.95 0 0 0-.265.344 1.1 1.1 0 0 0-.079.438q0 .175.047.328.06.158.172.281.124.111.313.188c.125.042.273.062.453.062q.34.001.797-.203c.312-.145.632-.375.968-.688Zm0 0"/><path id="J" d="M6.39-5.89 5.532 0H4.297l-.844-2.469-.172-.594-.203.641L2.266 0H1.063L.219-5.89h1l.484 4 .11.89.25-.781.859-2.64h.734l.922 2.609.25.78.094-.827.453-4.032Zm0 0"/><path id="K" d="M5.969-3.047q0 .784-.219 1.375-.223.581-.61.969-.393.393-.921.594a3.4 3.4 0 0 1-1.14.187Q2.796.077 2.515.047a4 4 0 0 1-.563-.11v2.47H.937v-8.298h.907l.062.985q.434-.593.938-.828c.332-.164.691-.25 1.078-.25q.515.001.89.218.375.206.625.594.263.376.391.922.14.534.14 1.203M4.922-3q0-.469-.078-.844A2.2 2.2 0 0 0 4.64-4.5a1.1 1.1 0 0 0-.375-.437 1 1 0 0 0-.547-.157c-.125 0-.258.024-.39.063a1.7 1.7 0 0 0-.423.203 3 3 0 0 0-.437.375 7 7 0 0 0-.516.594v2.843c.188.086.383.153.594.204q.31.063.61.062.826 0 1.296-.562T4.922-3m0 0"/><path id="L" d="M1.172-5.89h.937l.032 1.093c.343-.414.68-.719 1.015-.906a2.14 2.14 0 0 1 1.031-.281q.922.001 1.391.593.468.58.438 1.75H4.984q.012-.762-.234-1.109-.234-.359-.703-.36-.205.001-.422.079a1.4 1.4 0 0 0-.422.234 4 4 0 0 0-.469.406 7 7 0 0 0-.53.61V0H1.171Zm0 0"/><path id="M" d="M5.969-3.047q-.002.738-.203 1.313a2.8 2.8 0 0 1-.578.984q-.377.393-.907.61a3.2 3.2 0 0 1-1.203.218q-.518 0-1.062-.094A5.4 5.4 0 0 1 .938-.344V-8.28h1.015V-6l-.047 1.094q.434-.593.938-.828c.344-.164.703-.25 1.078-.25q.515.001.89.218.375.206.625.594.263.376.391.922.14.534.14 1.203M4.922-3q0-.469-.078-.844A2.2 2.2 0 0 0 4.64-4.5a1.1 1.1 0 0 0-.375-.437 1 1 0 0 0-.547-.157c-.125 0-.258.024-.39.063a1.7 1.7 0 0 0-.423.203 3 3 0 0 0-.437.375 7 7 0 0 0-.516.594v2.843q.293.128.61.204.311.063.593.062.357.001.672-.11.328-.122.563-.374c.164-.176.297-.407.39-.688q.14-.433.14-1.078m0 0"/><path id="N" d="M13.719-14.766a10.8 10.8 0 0 0-2.047-.828 8.5 8.5 0 0 0-2.297-.297q-1.406 0-2.516.516a5.16 5.16 0 0 0-1.875 1.422q-.75.924-1.156 2.219-.391 1.3-.39 2.859 0 1.642.328 2.938Q4.09-4.655 4.78-3.75a4.57 4.57 0 0 0 1.782 1.39q1.091.47 2.593.47c.176 0 .364-.008.563-.032a11 11 0 0 0 1.172-.187c.187-.051.351-.102.5-.157v-5.671H7.75v-2h6.047v9.109c-.375.168-.774.324-1.188.469q-.61.204-1.265.343-.644.123-1.281.188-.644.076-1.235.078-1.83-.002-3.297-.578a6.6 6.6 0 0 1-2.5-1.703Q2-3.154 1.453-4.828q-.549-1.67-.547-3.89 0-2.187.61-3.923c.406-1.164.976-2.148 1.718-2.953a7.25 7.25 0 0 1 2.672-1.828q1.56-.64 3.453-.64 1.186.001 2.266.218 1.091.205 2.094.672Zm0 0"/><path id="O" d="M6.844-17.312H2.797v-1.954H9.25v17.282h4.063V0H2.342v-1.984h4.5Zm0 0"/><path id="P" d="M14.094-6.953c0 1.062-.153 2.039-.453 2.922q-.44 1.33-1.297 2.281A5.8 5.8 0 0 1 10.28-.266C9.477.074 8.566.25 7.547.25Q6.06.25 4.89-.203a5.36 5.36 0 0 1-1.97-1.344q-.814-.89-1.25-2.203-.42-1.312-.421-3.016c0-1.062.148-2.03.453-2.906Q2.154-10.984 3-11.937a5.7 5.7 0 0 1 2.047-1.47c.812-.35 1.734-.53 2.766-.53q1.464 0 2.625.468a5.3 5.3 0 0 1 1.984 1.328q.81.877 1.234 2.188.436 1.313.438 3m-2.422.11q0-1.266-.281-2.204-.281-.95-.797-1.594a3.2 3.2 0 0 0-1.266-.953 4 4 0 0 0-1.656-.328q-1.066 0-1.828.422a3.6 3.6 0 0 0-1.235 1.125q-.486.69-.703 1.61a8 8 0 0 0-.219 1.921c0 .844.086 1.586.266 2.219q.282.955.797 1.594.527.626 1.266.953.731.313 1.656.312c.707 0 1.312-.132 1.812-.406a3.7 3.7 0 0 0 1.25-1.11 4.9 4.9 0 0 0 .704-1.624 7.8 7.8 0 0 0 .234-1.938m0 0"/><path id="Q" d="M13.875-7.094q0 1.706-.469 3.047c-.312.899-.761 1.656-1.344 2.281A5.7 5.7 0 0 1 9.954-.328Q8.718.157 7.172.156 5.953.155 4.688-.062a12.7 12.7 0 0 1-2.5-.735v-18.469h2.359v5.297l-.11 2.547q1.03-1.373 2.188-1.937a5.6 5.6 0 0 1 2.516-.578q1.168 0 2.047.5a4.2 4.2 0 0 1 1.484 1.374q.608.891.906 2.157c.195.844.297 1.781.297 2.812m-2.422.11c0-.72-.055-1.375-.156-1.97q-.16-.9-.5-1.546a2.8 2.8 0 0 0-.875-1q-.533-.358-1.266-.36-.455 0-.922.141a3.6 3.6 0 0 0-.953.485 6.2 6.2 0 0 0-1.047.89q-.55.55-1.187 1.36v6.64q.702.27 1.422.422.716.158 1.375.156.825.001 1.562-.25.75-.261 1.313-.859.563-.608.89-1.61.342-1.011.344-2.5m0 0"/><path id="R" d="m10.969 0-.047-1.844Q9.796-.73 8.64-.234A6.1 6.1 0 0 1 6.234.25c-.78 0-1.453-.102-2.015-.297q-.832-.311-1.375-.828a3.2 3.2 0 0 1-.781-1.234 4.6 4.6 0 0 1-.25-1.547c0-1.375.507-2.446 1.53-3.219q1.531-1.172 4.532-1.172h2.844V-9.25q-.001-1.2-.781-1.937c-.524-.489-1.313-.735-2.376-.735a10 10 0 0 0-2.28.266q-1.126.268-2.329.734v-2.14q.45-.154 1-.313a22 22 0 0 1 1.172-.281q.608-.122 1.281-.203.67-.078 1.344-.079 1.249 0 2.234.282c.664.18 1.227.453 1.688.828q.686.563 1.062 1.406.375.846.375 1.985V0Zm-.25-6.234H7.703q-.892 0-1.531.187-.643.173-1.047.5-.41.329-.61.781a2.7 2.7 0 0 0-.187 1.032q-.001.392.11.75.121.361.39.64.28.283.719.453.434.158 1.062.157c.551 0 1.176-.164 1.875-.5q1.062-.497 2.235-1.563Zm0 0"/><path id="T" d="M14.61-9.031c0 1.605-.196 2.992-.579 4.156Q13.468-3.139 12.5-2a6.05 6.05 0 0 1-2.25 1.703A6.85 6.85 0 0 1 7.547.25q-1.723-.001-3-.625a5.6 5.6 0 0 1-2.125-1.797c-.555-.781-.965-1.726-1.235-2.844Q.78-6.702.782-8.828q-.002-2.357.547-4.11.562-1.747 1.516-2.874.966-1.137 2.25-1.688a6.7 6.7 0 0 1 2.718-.562q1.718.001 2.985.625a5.65 5.65 0 0 1 2.125 1.796q.843 1.16 1.265 2.844.423 1.675.422 3.766m-2.532.187q0-1.575-.234-2.875-.235-1.296-.781-2.234-.533-.951-1.376-1.469-.831-.515-2.015-.515-1.143 0-1.969.562a4.2 4.2 0 0 0-1.36 1.5q-.532.94-.796 2.219-.251 1.267-.25 2.703c0 1.055.082 2.015.25 2.89.164.868.422 1.61.765 2.235a3.95 3.95 0 0 0 1.36 1.437q.827.516 2 .516 1.154.002 1.984-.547.826-.545 1.36-1.5.545-.951.797-2.219.264-1.263.265-2.703m0 0"/><path id="U" d="M14.328-17.062c-1.242-.258-2.312-.391-3.219-.391q-3.203 0-3.203 3.36v2.39h6v1.984h-6V0H5.5v-9.719H1.094v-1.984H5.5v-2.266q0-5.451 5.688-5.453 1.418 0 3.14.328ZM0-13.687"/><path id="V" d="M13.016-3.734c0 .48-.086.914-.25 1.297a3.4 3.4 0 0 1-.657 1.015q-.42.44-.984.75-.563.317-1.203.516A7.5 7.5 0 0 1 8.625.14C8.188.21 7.754.25 7.328.25c-.93 0-1.781-.043-2.562-.125a18 18 0 0 1-2.282-.39v-2.188q1.203.345 2.375.515c.79.118 1.579.172 2.36.172 1.144 0 1.988-.148 2.531-.453q.811-.468.813-1.328 0-.357-.126-.656-.128-.293-.468-.563-.346-.264-1.063-.546a22 22 0 0 0-1.953-.657 16 16 0 0 1-1.719-.625 5.8 5.8 0 0 1-1.359-.812 3.6 3.6 0 0 1-.89-1.125q-.33-.638-.329-1.516c0-.383.086-.8.266-1.25q.263-.686.906-1.265.639-.592 1.735-.985 1.091-.389 2.734-.39.797 0 1.781.093.982.095 2.047.313v2.11A19 19 0 0 0 10-11.829a15 15 0 0 0-1.734-.125q-.891 0-1.5.14-.61.129-.985.376-.375.234-.547.562-.157.315-.156.672 0 .377.14.672.154.297.548.578.386.281 1.078.562.7.282 1.812.61c.813.23 1.492.476 2.047.734q.827.394 1.344.875.514.47.734 1.078.235.598.235 1.36m0 0"/><path id="W" d="M13.75-7.562a13.26 13.26 0 0 1-.062 1.484h-9.61q0 2.096 1.172 3.219 1.172 1.125 3.375 1.125.608 0 1.203-.047a21.675 21.675 0 0 0 2.219-.297q.515-.105.953-.235v1.938q-.97.283-2.187.453-1.22.17-2.516.172c-1.18 0-2.188-.16-3.031-.469-.844-.32-1.54-.785-2.078-1.39q-.816-.904-1.204-2.22-.39-1.324-.39-2.983Q1.592-8.266 2-9.547a6.9 6.9 0 0 1 1.219-2.265 5.9 5.9 0 0 1 1.953-1.547q1.17-.576 2.64-.578 1.436 0 2.532.453 1.108.455 1.86 1.28.762.817 1.155 2c.258.782.391 1.665.391 2.642m-2.469-.344a5.4 5.4 0 0 0-.187-1.672q-.222-.748-.672-1.297a3.06 3.06 0 0 0-1.14-.844q-.675-.311-1.579-.312-.784.002-1.422.297c-.43.199-.797.48-1.11.843a4.7 4.7 0 0 0-.75 1.313 5.8 5.8 0 0 0-.343 1.672Zm0 0"/><path id="X" d="M13.219-.187a11 11 0 0 1-1.672.28q-.86.095-1.75.095c-1.719 0-3-.383-3.844-1.157q-1.266-1.17-1.266-3.578v-7.156H.86v-1.985h3.829v-3.765l2.375-.61v4.375h6.156v1.985H7.063v6.953c0 .992.257 1.73.78 2.219q.78.72 2.313.719.656 0 1.422-.094.78-.106 1.64-.328Zm0 0"/><path id="Y" d="M14.172-15.75H8.906V0H6.453v-15.75H1.172v-2.062h13Zm0 0"/><path id="Z" d="M9.219-7.875q-.001.893-.313 1.656a3.6 3.6 0 0 1-.89 1.328c-.399.375-.891.668-1.485.875-.586.2-1.265.297-2.047.297H3.391V0H1.188v-11.562h3.39q1.124.001 1.984.25.855.234 1.454.703.591.47.89 1.156.312.689.313 1.578m-2.281.14q-.002-.451-.157-.827a1.65 1.65 0 0 0-.437-.641q-.3-.265-.75-.406A3.6 3.6 0 0 0 4.53-9.75h-1.14v4.234h1.203q.561.002 1-.156c.289-.101.535-.25.734-.437a2 2 0 0 0 .453-.703q.155-.406.157-.922m0 0"/><path id="aa" d="M9.313-4.562c0 .71-.102 1.359-.297 1.953a4.2 4.2 0 0 1-.86 1.5q-.564.628-1.39.968A4.9 4.9 0 0 1 4.89.203a5.5 5.5 0 0 1-1.797-.281 3.45 3.45 0 0 1-1.328-.875q-.552-.574-.844-1.453Q.64-3.278.64-4.437c0-.72.097-1.368.297-1.954a4.3 4.3 0 0 1 .875-1.484 3.8 3.8 0 0 1 1.39-.953 4.9 4.9 0 0 1 1.86-.344c.675 0 1.273.102 1.796.297.532.188.977.48 1.344.875q.545.58.828 1.453.282.86.281 1.984m-2.235.046c0-.925-.18-1.625-.531-2.093Q6.014-7.313 5-7.312q-.564.001-.969.218-.392.223-.656.61A2.9 2.9 0 0 0 3-5.578q-.127.504-.125 1.094 0 1.394.563 2.109c.382.48.906.719 1.562.719.352 0 .66-.07.922-.219q.404-.218.656-.594.247-.389.375-.906.124-.53.125-1.14m0 0"/><path id="ab" d="M6.516-11.437c0 .187-.04.37-.11.546q-.11.252-.297.454a1.3 1.3 0 0 1-.453.296q-.253.111-.547.11-.298.001-.562-.11a1.3 1.3 0 0 1-.453-.296 1.5 1.5 0 0 1-.297-.454 1.6 1.6 0 0 1-.094-.546q0-.295.094-.547c.07-.176.172-.328.297-.453.125-.133.273-.239.453-.313.176-.07.363-.11.562-.11.196 0 .38.04.547.11q.265.112.453.313.187.188.297.453c.07.168.11.351.11.547m-2.391 4.14H1.594v-1.687h4.75v7.297h2.593V0H1.282v-1.687h2.844Zm0 0"/><path id="ac" d="M6.594 0v-5.86q0-1.466-1.11-1.468-.55.002-1.046.437-.503.44-1.047 1.204V0H1.234v-8.984h1.86l.047 1.328q.28-.343.578-.625.294-.28.64-.485c.227-.132.473-.234.735-.296.27-.07.57-.11.906-.11q.685 0 1.188.219.514.221.859.64.356.41.531.985.17.581.172 1.297V0Zm0 0"/><path id="ad" d="M8.64-.094A12 12 0 0 1 7.47.125a9 9 0 0 1-1.125.078q-.892 0-1.532-.187A2.7 2.7 0 0 1 3.75-.547a2.2 2.2 0 0 1-.625-.969q-.187-.591-.187-1.406v-4.375H.515v-1.687h2.422v-2.297l2.203-.578v2.875h3.5v1.687h-3.5v4.219c0 .512.117.902.359 1.172q.356.39 1.188.39.527 0 1.03-.093.5-.094.923-.203Zm0 0"/><path id="ae" d="M9.063-5.187q-.002.235-.016.593-.017.346-.047.657H3.094c0 .398.054.746.172 1.046q.188.44.515.75.34.3.797.47.469.156 1.031.155.657 0 1.407-.093c.5-.07 1.015-.188 1.547-.344v1.719q-.346.093-.75.172a15.21 15.21 0 0 1-1.687.234q-.44.03-.845.031c-.68 0-1.289-.098-1.828-.281a3.8 3.8 0 0 1-1.39-.86 3.8 3.8 0 0 1-.86-1.421c-.2-.563-.297-1.211-.297-1.953q0-1.092.297-1.985a4.5 4.5 0 0 1 .844-1.547 3.66 3.66 0 0 1 1.328-.984 4.4 4.4 0 0 1 1.75-.344c.633 0 1.195.102 1.688.297q.731.283 1.234.813.498.533.75 1.265.264.737.265 1.61m-2.204-.297a2.6 2.6 0 0 0-.125-.922 1.75 1.75 0 0 0-.39-.657q-.252-.262-.578-.375a1.9 1.9 0 0 0-.688-.125q-.813.001-1.328.547c-.344.356-.555.868-.625 1.532Zm0 0"/><path id="af" d="M7.016-5.484a3.7 3.7 0 0 0-.063-.86 1.6 1.6 0 0 0-.203-.578.9.9 0 0 0-.36-.344 1.04 1.04 0 0 0-.484-.109c-.324 0-.656.133-1 .39-.336.262-.703.696-1.11 1.298V0H1.595v-8.984h1.953l.078 1.312q.219-.34.5-.61.281-.28.61-.484c.226-.132.484-.234.765-.296.281-.07.582-.11.906-.11q.687 0 1.203.235.528.235.891.687.356.456.531 1.156.17.69.14 1.61Zm0 0"/><path id="ag" d="M3.844-9.719v3.203h4.36v1.782h-4.36V0H1.625v-11.562h6.828v1.843Zm0 0"/><path id="ah" d="M3.375-8.984v5.859c0 .492.086.86.266 1.11.187.25.46.374.828.374q.543.001 1.047-.437.497-.45 1.047-1.219v-5.687h2.171V0H6.86l-.046-1.328q-.284.344-.579.625-.3.283-.64.484a2.8 2.8 0 0 1-.735.313c-.273.07-.57.11-.89.11q-.69-.001-1.203-.22a2.4 2.4 0 0 1-.86-.64 2.8 2.8 0 0 1-.515-1 4.4 4.4 0 0 1-.172-1.297v-6.031Zm0 0"/><path id="ai" d="M8.5-.344a7 7 0 0 1-1.328.375Q6.499.155 5.75.156c-.71 0-1.352-.097-1.922-.281A3.8 3.8 0 0 1 2.391-1a3.7 3.7 0 0 1-.907-1.422q-.313-.843-.312-1.969-.001-1.075.344-1.953a4.3 4.3 0 0 1 .953-1.484 4.14 4.14 0 0 1 1.5-.953 5.3 5.3 0 0 1 1.937-.344q.872 0 1.469.094.592.093 1.078.234v2.094a5 5 0 0 0-1.187-.422 5.3 5.3 0 0 0-1.22-.156q-.597.002-1.077.203a2.2 2.2 0 0 0-.813.578 2.5 2.5 0 0 0-.484.875 3.5 3.5 0 0 0-.172 1.14q-.002.643.172 1.157a2.44 2.44 0 0 0 1.344 1.422q.48.187 1.062.187c.188 0 .383-.008.594-.031a6 6 0 0 0 .64-.125q.311-.077.61-.172.31-.106.578-.219Zm0 0"/><path id="aB" d="m6.86 0-.048-1.172q-.282.3-.593.547-.315.251-.688.438-.377.187-.812.28-.439.108-.953.11Q3.074.201 2.546 0a2.45 2.45 0 0 1-.874-.562 2.4 2.4 0 0 1-.531-.875 3.5 3.5 0 0 1-.172-1.141q-.002-.622.265-1.156.263-.545.813-.938.56-.386 1.39-.61.826-.233 1.938-.234h1.172v-.53a2 2 0 0 0-.094-.626 1.05 1.05 0 0 0-.312-.469 1.4 1.4 0 0 0-.563-.296c-.23-.07-.512-.11-.844-.11q-.796 0-1.578.188a8 8 0 0 0-1.5.5v-1.735q.657-.246 1.5-.406a9 9 0 0 1 1.75-.172q.997 0 1.719.188.715.19 1.172.578.466.377.687.953.219.562.22 1.312V0Zm-.313-3.969H5.234c-.367 0-.68.04-.937.11q-.375.093-.61.28a1.185 1.185 0 0 0-.453.953q0 .552.344.845.359.28.969.281.45 0 .937-.328.481-.328 1.063-.938Zm0 0"/><path id="aC" d="M9.313-4.656Q9.31-3.403 8.953-2.5a4 4 0 0 1-.969 1.484 4 4 0 0 1-1.468.891 5.9 5.9 0 0 1-2.532.234A3.5 3.5 0 0 1 3.391 0v3.516H1.234v-12.5h1.86l.047 1.328q.28-.343.578-.625.294-.28.64-.485c.227-.132.473-.234.735-.296.27-.07.57-.11.906-.11q.797.001 1.406.313c.414.21.766.511 1.047.906q.42.595.64 1.437a7.4 7.4 0 0 1 .22 1.86m-2.266.093c0-.5-.04-.921-.11-1.265a2.7 2.7 0 0 0-.312-.844 1.2 1.2 0 0 0-.484-.5 1.36 1.36 0 0 0-.657-.156q-.55.002-1.046.437-.503.44-1.047 1.204v3.921q.248.113.625.172a4.5 4.5 0 0 0 .765.063c.344 0 .657-.07.938-.219q.421-.218.718-.594.295-.389.454-.953c.101-.375.156-.797.156-1.265m0 0"/><path id="aL" d="M9.297-10.656a6.3 6.3 0 0 0-.938-.203 6 6 0 0 0-1.078-.094q-.391.002-.718.11-.317.094-.563.312a1.6 1.6 0 0 0-.375.562 2.2 2.2 0 0 0-.14.828v1.454h3.53v1.671h-3.53V0H3.311v-6.016H.704v-1.671h2.61v-1.375q0-.95.28-1.626a2.94 2.94 0 0 1 .782-1.124q.515-.435 1.234-.641a6 6 0 0 1 1.594-.203q.593 0 1.11.078.527.065.984.172ZM0-8.984"/><path id="aN" d="M4.125-10.812H1.594V-12.5h4.75v10.813h2.593V0H1.282v-1.687h2.844Zm0 0"/><path id="aO" d="m6.875 0-.047-1.328q-.282.344-.594.625-.3.283-.64.484-.347.204-.735.313c-.261.07-.554.11-.875.11A3.15 3.15 0 0 1 2.563-.11a3.05 3.05 0 0 1-1.032-.907q-.423-.592-.64-1.437a7.4 7.4 0 0 1-.22-1.875q0-1.231.345-2.14a4.3 4.3 0 0 1 .968-1.5 3.9 3.9 0 0 1 1.47-.876 5.7 5.7 0 0 1 2.53-.25q.34.035.61.11V-12.5H8.75V0ZM2.938-4.422c0 .5.03.93.093 1.281.07.344.172.633.297.86.133.219.3.383.5.484q.293.158.656.156.562.001 1.047-.437.5-.45 1.063-1.219v-3.922c-.18-.07-.39-.129-.64-.172q-.375-.06-.75-.062-.533 0-.954.219a2.2 2.2 0 0 0-.703.609q-.3.375-.453.938a4.7 4.7 0 0 0-.156 1.265m0 0"/><path id="aQ" d="M7.813-.25c0 .664-.102 1.25-.297 1.75q-.299.749-.86 1.234a3.4 3.4 0 0 1-1.328.735 5.6 5.6 0 0 1-1.719.25 7 7 0 0 1-1.453-.14c-.449-.087-.82-.188-1.11-.313V1.28c.165.094.352.18.563.266q.31.124.657.219c.226.07.457.125.687.156q.358.06.703.062.983 0 1.469-.562c.32-.375.484-.93.484-1.656v-7.063H1.344v-1.687h6.469Zm.171-11.187q-.002.281-.109.546-.11.252-.297.454a1.3 1.3 0 0 1-.453.296q-.252.111-.562.11-.3.001-.563-.11a1.36 1.36 0 0 1-.734-.75 1.4 1.4 0 0 1-.11-.546q-.001-.295.11-.547c.07-.176.172-.328.297-.453A1.3 1.3 0 0 1 6-12.75a1.5 1.5 0 0 1 1.125 0q.265.112.453.313.187.188.297.453c.07.168.11.351.11.547m0 0"/><path id="aj" d="M6.984-4.656a6.6 6.6 0 0 1-.187 1.625q-.173.739-.5 1.312L7.687 0H6.11L5.5-.75a3.5 3.5 0 0 1-1.078.64 4 4 0 0 1-1.297.204Q2.469.093 1.953-.078a2.6 2.6 0 0 1-.86-.516 2.4 2.4 0 0 1-.53-.797C.445-1.69.39-2.03.39-2.406c0-.344.039-.649.125-.922a2.7 2.7 0 0 1 .375-.719 3 3 0 0 1 .53-.547 7 7 0 0 1 .642-.453l-.141-.219a3.4 3.4 0 0 1-.578-.953 2.6 2.6 0 0 1-.188-.953q-.001-.48.157-.89.152-.421.453-.72.31-.308.75-.484.45-.17 1.03-.171.547.002.97.156.418.157.687.437.282.269.422.625.14.363.14.75 0 .518-.171.907a2.4 2.4 0 0 1-.453.687q-.282.282-.657.516-.361.235-.734.453L5.5-2.703q.294-.81.281-1.953Zm-5.359 2.11q-.001.361.11.671.122.3.327.516.216.205.532.328.31.11.703.11.891 0 1.547-.657L2.687-4.297a3.5 3.5 0 0 0-.437.344 2 2 0 0 0-.328.39 1.6 1.6 0 0 0-.219.47 1.8 1.8 0 0 0-.078.546m2.938-4.798q0-.516-.282-.797Q4-8.435 3.5-8.437q-.269 0-.484.093a.9.9 0 0 0-.344.235q-.142.158-.219.375a1.6 1.6 0 0 0-.062.453q-.002.376.125.687.139.317.437.703l.188.235a5 5 0 0 0 .547-.328 2.7 2.7 0 0 0 .453-.36q.2-.201.312-.437c.07-.164.11-.352.11-.563m0 0"/><path id="ak" d="M7.172-8.531q-.94-.201-1.61-.203-1.61 0-1.609 1.687v1.188h3v1h-3V0H2.75v-4.86H.547v-1H2.75v-1.124c0-1.82.945-2.735 2.844-2.735a9 9 0 0 1 1.578.156ZM0-6.844"/><path id="al" d="M7.047-3.484c0 .53-.074 1.023-.219 1.468a3.1 3.1 0 0 1-.656 1.141 2.9 2.9 0 0 1-1.031.734 3.4 3.4 0 0 1-1.375.266q-.739 0-1.313-.219a2.7 2.7 0 0 1-.984-.672q-.41-.451-.625-1.109C.695-2.312.625-2.816.625-3.391c0-.53.07-1.015.219-1.453q.234-.655.656-1.125.422-.481 1.031-.734a3.4 3.4 0 0 1 1.375-.266q.733 0 1.313.235.59.222 1 .656.404.438.61 1.094.217.656.218 1.5m-1.203.062a3.9 3.9 0 0 0-.14-1.11 2.2 2.2 0 0 0-.407-.78 1.5 1.5 0 0 0-.625-.485 2 2 0 0 0-.828-.172 1.86 1.86 0 0 0-.922.219q-.377.205-.625.563c-.156.23-.274.5-.344.812q-.11.456-.11.953 0 .629.141 1.11.14.486.391.796.263.315.625.485.375.157.844.156c.351 0 .656-.066.906-.203q.375-.217.61-.563.246-.34.359-.796.124-.47.125-.985m0 0"/><path id="am" d="M3.781-2.156q.233 0 .438.094c.144.062.265.148.36.25.1.105.187.23.25.375q.093.203.093.437c0 .156-.031.305-.094.438a1.2 1.2 0 0 1-.25.359.85.85 0 0 1-.36.234 1 1 0 0 1-.437.094q-.236 0-.437-.094a.96.96 0 0 1-.36-.234 1.2 1.2 0 0 1-.25-.36A1.2 1.2 0 0 1 2.656-1q-.002-.233.078-.437a1.2 1.2 0 0 1 .61-.625q.201-.094.437-.094m0 0"/><path id="an" d="M5.484 0 5.47-.922c-.375.367-.758.633-1.14.797q-.582.248-1.22.25-.578 0-1-.14a2 2 0 0 1-.687-.422 1.6 1.6 0 0 1-.39-.61 2.3 2.3 0 0 1-.126-.781q-.001-1.03.766-1.61c.508-.394 1.266-.593 2.266-.593h1.421v-.594q-.002-.607-.39-.969-.392-.375-1.188-.375-.578 0-1.14.14a8 8 0 0 0-1.157.36V-6.53q.216-.075.485-.157a10 10 0 0 1 .593-.14q.312-.059.641-.094.342-.047.672-.047.622 0 1.125.14.498.128.844.407.34.282.515.703.188.424.188 1V0ZM5.36-3.11h-1.5q-.454 0-.78.094-.318.082-.517.25a1 1 0 0 0-.312.391 1.3 1.3 0 0 0-.094.5q0 .205.063.39a.8.8 0 0 0 .203.313c.094.094.21.172.36.234q.215.08.53.079.405.001.938-.25.529-.246 1.11-.797Zm0 0"/><path id="ao" d="M1.375-6.844h1.078l.031 1.25c.407-.476.805-.828 1.204-1.047q.59-.328 1.187-.328 1.06 0 1.61.688.545.688.515 2.047H5.797q.014-.903-.266-1.313-.282-.405-.828-.406c-.156 0-.32.031-.484.094a2 2 0 0 0-.5.265 4.4 4.4 0 0 0-.531.485q-.282.298-.61.703V0H1.375Zm0 0"/><path id="ap" d="M6.406-.25a4.6 4.6 0 0 1-.953.25 5.3 5.3 0 0 1-1 .094q-1.628.001-2.5-.875-.877-.89-.875-2.578-.001-.812.25-1.47.247-.656.703-1.124.468-.482 1.094-.734.64-.249 1.406-.25.528 0 .985.078.468.064.89.234v1.14a3.8 3.8 0 0 0-.906-.343 4.2 4.2 0 0 0-.937-.11 2.2 2.2 0 0 0-.875.172 2.1 2.1 0 0 0-.72.5q-.297.332-.484.813a3 3 0 0 0-.171 1.062q0 1.238.609 1.86c.406.406.96.61 1.672.61q.48 0 .937-.11.452-.105.875-.328Zm0 0"/><path id="aq" d="M6.594 0H5.406v-4.375q-.002-.78-.297-1.172-.299-.405-.843-.406-.236 0-.453.078a1.8 1.8 0 0 0-.438.219 3.3 3.3 0 0 0-.484.437q-.27.27-.61.672V0H1.094v-9.64H2.28v2.796l-.047 1.078q.28-.34.547-.562c.188-.156.367-.281.547-.375q.265-.14.547-.203.28-.062.578-.063c.688 0 1.211.211 1.578.625q.563.627.563 1.875Zm0 0"/><path id="ar" d="M6.766-4.406H.906v-1h5.86Zm0 2.375H.906v-1h5.86Zm0 0"/><path id="as" d="M7.11-3.203H4.421v2.781H3.25v-2.781H.578v-1.031H3.25V-7h1.172v2.766h2.687Zm0 0"/><path id="at" d="M.453-6.844h1.344l1.687 4.532.36 1.093.375-1.125 1.656-4.5h1.313L4.5 0H3.125Zm0 0"/><path id="au" d="M6.875 0H1v-1.062L3.313-3.36q.56-.56.906-.97.357-.404.562-.734.2-.34.266-.64a3.5 3.5 0 0 0 .062-.656 2 2 0 0 0-.093-.625A1.35 1.35 0 0 0 4.75-7.5a1.25 1.25 0 0 0-.484-.36 1.7 1.7 0 0 0-.688-.124c-.375 0-.719.086-1.031.25a3.4 3.4 0 0 0-.86.656l-.656-.781a4.2 4.2 0 0 1 1.172-.844c.438-.219.945-.328 1.531-.328q.592 0 1.079.172.48.176.843.515.359.33.547.813.188.485.188 1.093c0 .344-.047.665-.141.954a3.3 3.3 0 0 1-.406.875q-.268.421-.688.89c-.281.305-.617.64-1 1.016l-1.61 1.578h4.329Zm0 0"/><path id="av" d="M9.297-11.062q-1.22-.249-2.094-.25-2.08.002-2.078 2.171v1.547h3.89v1.297h-3.89V0H3.563v-6.297H.703v-1.297h2.86v-1.468c0-2.352 1.234-3.532 3.703-3.532q.903.002 2.03.203ZM0-8.875"/><path id="aw" d="M9.14-4.516q-.001 1.05-.296 1.907a4.2 4.2 0 0 1-.828 1.484 3.8 3.8 0 0 1-1.344.953A4.7 4.7 0 0 1 4.89.156Q3.935.154 3.17-.14c-.5-.195-.929-.484-1.28-.859-.344-.383-.61-.86-.797-1.422Q.812-3.277.812-4.39q0-1.03.282-1.875.293-.857.843-1.468c.375-.414.82-.735 1.344-.953q.78-.342 1.781-.344c.633 0 1.204.101 1.704.297q.762.3 1.297.875.527.562.796 1.406.282.845.282 1.937m-1.578.079q0-.828-.187-1.438a2.8 2.8 0 0 0-.516-1.016 2 2 0 0 0-.812-.625 2.5 2.5 0 0 0-1.063-.218c-.468 0-.867.093-1.187.28q-.485.27-.813.72-.313.455-.453 1.047-.14.595-.14 1.25c0 .554.054 1.039.172 1.453q.186.61.515 1.015.342.41.813.625.482.204 1.093.203.686.002 1.172-.265.497-.28.813-.719.312-.45.453-1.047.14-.61.14-1.265m0 0"/><path id="ax" d="M9-4.594q0 1.095-.312 1.969a4.1 4.1 0 0 1-.86 1.484 3.8 3.8 0 0 1-1.375.922C5.922 0 5.32.11 4.656.11c-.531 0-1.074-.05-1.625-.14a8 8 0 0 1-1.61-.485V-12.5h1.532v3.438l-.078 1.656c.445-.594.922-1.008 1.422-1.25a3.6 3.6 0 0 1 1.625-.375q.764 0 1.328.312.575.316.969.906a4.2 4.2 0 0 1 .578 1.391A7.7 7.7 0 0 1 9-4.594m-1.578.063c0-.457-.04-.88-.11-1.266a3.2 3.2 0 0 0-.312-1 1.8 1.8 0 0 0-.562-.656 1.44 1.44 0 0 0-.829-.234 2 2 0 0 0-.593.093q-.299.095-.625.313-.316.205-.672.562-.362.364-.766.89v4.313c.3.118.61.211.922.282q.47.093.89.093c.352 0 .692-.054 1.016-.171q.48-.17.844-.563.374-.387.578-1.031c.145-.438.219-.977.219-1.625m0 0"/><path id="ay" d="m7.125 0-.047-1.187q-.72.703-1.469 1.03-.752.313-1.562.313-.768 0-1.313-.187a2.7 2.7 0 0 1-.89-.531 2.16 2.16 0 0 1-.516-.797 3.2 3.2 0 0 1-.156-1.016q-.001-1.326 1-2.078.997-.764 2.937-.766h1.844V-6q0-.78-.516-1.25-.501-.482-1.53-.484-.751 0-1.485.172-.72.175-1.5.484v-1.39q.279-.108.64-.204.358-.105.75-.187.405-.077.844-.125.435-.047.875-.047.81 0 1.453.172.64.174 1.079.547.45.362.687.906c.164.367.25.793.25 1.281V0Zm-.172-4.047H5q-.58.001-1 .125a1.8 1.8 0 0 0-.672.328c-.18.137-.312.305-.406.5q-.127.299-.125.672c0 .168.023.328.078.485.063.156.148.296.266.421.113.125.265.227.453.297q.279.094.687.094.528.002 1.219-.312.685-.33 1.453-1.032Zm0 0"/><path id="az" d="M1.781-8.875h1.407l.046 1.64c.52-.632 1.036-1.093 1.547-1.374a3.16 3.16 0 0 1 1.547-.422c.914 0 1.61.297 2.078.89q.717.891.672 2.657H7.516q.03-1.173-.344-1.688c-.242-.351-.602-.531-1.078-.531q-.299.002-.625.11a2.4 2.4 0 0 0-.64.359 6 6 0 0 0-.704.609q-.363.376-.797.922V0H1.781Zm0 0"/><path id="aA" d="M2.625-.906q0 .222-.078.422a1 1 0 0 1-.219.328c-.094.094-.21.164-.344.219a.9.9 0 0 1-.406.093c-.156 0-.305-.031-.437-.093a1 1 0 0 1-.328-.22 1.4 1.4 0 0 1-.22-.327 1.1 1.1 0 0 1-.077-.422c0-.145.023-.281.078-.406q.092-.201.219-.344a1 1 0 0 1 .328-.219q.2-.093.437-.094a.9.9 0 0 1 .406.094c.133.055.25.125.344.219.094.093.164.21.219.343q.077.188.078.407m3.406 0q0 .222-.078.422a1 1 0 0 1-.219.328c-.093.094-.21.164-.343.219a.9.9 0 0 1-.407.093q-.236 0-.437-.093a1 1 0 0 1-.328-.22A1 1 0 0 1 4-.483a1.1 1.1 0 0 1-.078-.422c0-.145.023-.281.078-.406a.98.98 0 0 1 .547-.563q.201-.093.437-.094a.9.9 0 0 1 .407.094c.132.055.25.125.343.219.094.093.164.21.22.343q.076.188.077.407m3.407 0q-.001.222-.079.422a1 1 0 0 1-.218.328c-.094.094-.211.164-.344.219a.9.9 0 0 1-.422.093 1 1 0 0 1-.422-.093 1 1 0 0 1-.328-.22 1 1 0 0 1-.219-.327 1.1 1.1 0 0 1-.078-.422q-.002-.218.078-.406a.98.98 0 0 1 .547-.563 1 1 0 0 1 .422-.094.9.9 0 0 1 .422.094c.133.055.25.125.344.219.093.093.164.21.218.343q.078.188.079.407m0 0"/><path id="aD" d="M8.563-.125a6 6 0 0 1-1.079.188q-.55.06-1.125.062-1.674 0-2.5-.75-.813-.763-.812-2.328v-4.64H.563v-1.282h2.484v-2.437l1.531-.407v2.844h3.984v1.281H4.579v4.516c0 .637.164 1.117.5 1.437q.515.47 1.516.47.42 0 .922-.063.497-.077 1.047-.22Zm0 0"/><path id="aE" d="M9.172-5.781q-.001 1.33-.266 2.422-.269 1.095-.812 1.875A3.8 3.8 0 0 1 6.766-.266C6.234.012 5.609.156 4.89.156c-.618 0-1.18-.117-1.688-.343a3.5 3.5 0 0 1-1.312-1.079c-.356-.476-.633-1.093-.828-1.843Q.78-4.234.78-5.781c0-.875.086-1.676.266-2.407q.264-1.106.797-1.89.545-.78 1.344-1.203.809-.436 1.874-.438.938 0 1.688.36.763.345 1.297 1.078.545.72.828 1.844c.195.75.297 1.636.297 2.656m-1.547.062a6 6 0 0 0-.031-.593q-.018-.296-.047-.579l-4.89 3.625q.139.471.343.86.202.375.484.656.293.284.657.438.374.157.843.156.592 0 1.079-.282.498-.294.843-.874c.227-.383.407-.86.532-1.422.125-.57.187-1.235.187-1.985m-5.297-.11v.563q.012.27.047.516l4.89-3.61q-.141-.451-.343-.828a2.6 2.6 0 0 0-.484-.64 2.2 2.2 0 0 0-.657-.422 2 2 0 0 0-.797-.156q-.61.002-1.109.297-.487.3-.828.875-.344.58-.531 1.437-.188.844-.188 1.969m0 0"/><path id="aF" d="M2.11 1.813c.3.007.593-.016.874-.079.282-.062.524-.164.735-.296a1.5 1.5 0 0 0 .515-.47c.133-.187.204-.402.204-.64 0-.25-.043-.445-.125-.594a2.2 2.2 0 0 0-.297-.421 3 3 0 0 1-.282-.422q-.127-.218-.125-.594 0-.187.063-.39.076-.2.219-.376a1.04 1.04 0 0 1 .375-.265c.144-.07.32-.11.53-.11q.313.001.595.125.293.128.515.39.216.269.344.673.124.392.125.937c0 .492-.09.957-.266 1.406q-.269.67-.812 1.188a3.9 3.9 0 0 1-1.328.844q-.798.311-1.86.312Zm0 0"/><path id="aH" d="M9.781-12.5 1.625 0H.172l8.14-12.5Zm-4.719 2.484q0 .582-.171 1.063a2.4 2.4 0 0 1-.47.844q-.314.362-.765.578a2.4 2.4 0 0 1-1 .203q-.534.002-.969-.172A2.1 2.1 0 0 1 .954-8a2.3 2.3 0 0 1-.469-.812 3.6 3.6 0 0 1-.156-1.126q-.002-.56.156-1.046.17-.498.485-.86.327-.374.765-.578.45-.201 1-.203.53.001.954.172.434.174.734.5.31.33.469.812.17.487.172 1.125m-1.296.047q0-.78-.282-1.156t-.78-.375a.9.9 0 0 0-.47.125 1.1 1.1 0 0 0-.328.313 1.6 1.6 0 0 0-.218.484q-.064.28-.063.61 0 .766.281 1.14.281.375.797.375a.85.85 0 0 0 .438-.11c.132-.082.25-.19.343-.328q.14-.199.204-.468.076-.282.078-.61M9.64-2.563Q9.64-1.98 9.469-1.5q-.175.486-.485.86-.314.364-.765.562a2.5 2.5 0 0 1-1 .203 2.6 2.6 0 0 1-.969-.172 2.1 2.1 0 0 1-.734-.484 2.3 2.3 0 0 1-.47-.813 3.8 3.8 0 0 1-.155-1.14q-.002-.562.156-1.047.168-.497.484-.86.328-.357.766-.562.45-.201 1-.203.528 0 .969.172.434.156.734.484.31.33.469.828.17.487.172 1.11m-1.297.047c0-.52-.102-.906-.297-1.156q-.283-.375-.781-.375a.9.9 0 0 0-.47.125 1.1 1.1 0 0 0-.327.313 1.6 1.6 0 0 0-.219.484q-.063.281-.062.61 0 .783.28 1.156c.188.242.454.359.798.359a.85.85 0 0 0 .437-.11q.201-.121.344-.327.153-.2.219-.47.076-.28.078-.609m0 0"/><path id="aI" d="M8.547 0H7.016v-5.672c0-.676-.133-1.18-.391-1.516q-.377-.515-1.094-.515-.314 0-.593.078-.27.081-.563.297a5 5 0 0 0-.625.562q-.345.347-.797.875V0H1.422v-12.5h1.531v3.625l-.047 1.39q.358-.42.703-.718c.239-.195.473-.36.704-.485q.339-.184.703-.265.374-.076.765-.078 1.311.002 2.032.812.733.798.734 2.422Zm0 0"/><path id="aJ" d="M4.438-7.61H1.813v-1.265H6v7.594h2.64V0H1.517v-1.281h2.922Zm.546-4.984q.245 0 .47.094.216.082.374.25.17.175.266.39.093.224.093.47 0 .251-.093.468a1.2 1.2 0 0 1-.266.39 1.1 1.1 0 0 1-.375.266 1.2 1.2 0 0 1-.469.094 1.2 1.2 0 0 1-.875-.36 1.3 1.3 0 0 1-.25-.39 1.2 1.2 0 0 1-.093-.469q0-.246.093-.468.093-.217.25-.391.17-.168.391-.25.216-.093.484-.094m0 0"/><path id="aK" d="M6.734 3.719c-2.718-2.524-4.078-5.305-4.078-8.36a10.4 10.4 0 0 1 .906-4.25q.48-1.076 1.266-2.14a16 16 0 0 1 1.938-2.14l.89.921q-3.422 3.375-3.422 7.5 0 2.05.86 3.953.857 1.886 2.562 3.563Zm0 0"/><path id="aM" d="M3.234-13.172q4.062 3.785 4.063 8.406 0 .954-.188 1.985a9.6 9.6 0 0 1-.656 2.094 11.7 11.7 0 0 1-1.266 2.171q-.797 1.11-2 2.235l-.89-.922Q4.015 1.092 4.859-.766c.57-1.238.86-2.535.86-3.89q0-4.2-3.422-7.563Zm0 0"/><path id="aP" d="M4.438-11.234H1.813V-12.5H6v11.219h2.64V0H1.517v-1.281h2.922Zm0 0"/><path id="aR" d="M8.813-3.125c0 .543-.118 1.023-.344 1.438a2.76 2.76 0 0 1-.938 1.03q-.595.41-1.437.61a8 8 0 0 1-1.86.203q-.454 0-.921-.031a14 14 0 0 1-.876-.094 14 14 0 0 1-.78-.11 10 10 0 0 1-.673-.155v-1.532c.438.168.93.297 1.485.391q.826.14 1.875.14.763.001 1.297-.109.545-.124.875-.36.34-.233.5-.562c.101-.226.156-.488.156-.78q-.001-.47-.266-.798a2.5 2.5 0 0 0-.687-.594 5.5 5.5 0 0 0-.969-.468L4.14-5.36c-.374-.157-.745-.32-1.109-.5a4.8 4.8 0 0 1-.969-.625 3.1 3.1 0 0 1-.687-.875q-.251-.498-.25-1.172-.001-.592.25-1.172c.164-.383.422-.723.766-1.016q.514-.45 1.328-.719.827-.28 1.953-.28.294 0 .64.03c.227.024.458.047.688.079.227.03.457.07.688.109q.34.066.64.125v1.422a10 10 0 0 0-1.375-.297c-.45-.07-.887-.11-1.312-.11q-1.347.001-1.985.454c-.43.304-.64.71-.64 1.219q-.002.47.265.812.264.33.688.594.42.269.953.484.545.204 1.11.438.573.234 1.124.515c.364.18.688.39.969.64q.42.376.672.891.264.503.265 1.188m0 0"/><path id="aS" d="M7.75 0v-6.375a7 7 0 0 0-.031-.687 1.2 1.2 0 0 0-.11-.407.46.46 0 0 0-.171-.218.44.44 0 0 0-.235-.063.6.6 0 0 0-.344.11c-.093.062-.199.18-.312.343a6 6 0 0 0-.39.625 44 44 0 0 0-.485.969V0H4.266v-6.203q-.001-.481-.032-.781a2 2 0 0 0-.093-.47.45.45 0 0 0-.172-.234.545.545 0 0 0-.562.031 1.1 1.1 0 0 0-.313.313 4.4 4.4 0 0 0-.39.625q-.208.394-.5 1.016V0H.796v-8.875h1.172l.078 1.688q.216-.498.437-.86.218-.357.454-.562.233-.218.484-.313c.176-.07.367-.11.578-.11q.717 0 1.094.47.375.469.375 1.437.2-.45.406-.812a2.7 2.7 0 0 1 .438-.594q.234-.247.515-.375a1.7 1.7 0 0 1 .656-.125q1.672 0 1.672 2.562V0Zm0 0"/><path id="aT" d="M8.906-4.906c0 .218-.008.402-.015.547q-.002.222-.016.422H2.641q0 1.36.765 2.093.763.72 2.188.719.388.002.781-.031.387-.03.75-.078.358-.06.688-.125.341-.06.625-.141v1.266q-.626.175-1.422.28-.797.108-1.641.11Q4.232.154 3.406-.14a3.34 3.34 0 0 1-1.344-.906 3.6 3.6 0 0 1-.78-1.437c-.169-.57-.25-1.22-.25-1.938 0-.625.085-1.21.265-1.766q.28-.842.797-1.468a3.65 3.65 0 0 1 1.265-1q.75-.375 1.704-.375.937.002 1.64.297.716.282 1.203.812.498.535.75 1.297c.164.512.25 1.086.25 1.719m-1.594-.219a3.3 3.3 0 0 0-.109-1.078 2.2 2.2 0 0 0-.437-.844q-.3-.357-.75-.562A2.4 2.4 0 0 0 5-7.812q-.516.002-.937.203a1.95 1.95 0 0 0-.704.547q-.297.345-.484.843a4 4 0 0 0-.234 1.094Zm0 0"/><path id="aU" d="M8.438-2.422q-.002.47-.157.844-.157.362-.437.656-.269.284-.625.485-.361.204-.782.343a5.5 5.5 0 0 1-.843.188q-.44.06-.844.062A17 17 0 0 1 3.078.078a11 11 0 0 1-1.469-.25v-1.422q.78.222 1.547.344.763.11 1.531.11 1.108.001 1.641-.298c.352-.195.531-.484.531-.859a.9.9 0 0 0-.093-.422.96.96 0 0 0-.297-.375c-.149-.113-.375-.234-.688-.36a15 15 0 0 0-1.265-.421 9 9 0 0 1-1.125-.39 3.9 3.9 0 0 1-.875-.548 2.4 2.4 0 0 1-.578-.718q-.222-.423-.22-.985c0-.25.055-.52.173-.812q.17-.437.593-.813.423-.387 1.125-.64c.47-.164 1.055-.25 1.766-.25q.514.002 1.156.062.638.047 1.328.188v1.375q-.719-.186-1.375-.266A10 10 0 0 0 5.36-7.75q-.58 0-.968.094a2 2 0 0 0-.641.234 1 1 0 0 0-.344.36.94.94 0 0 0-.11.453q0 .236.095.437.092.188.343.375a3.6 3.6 0 0 0 .704.36q.45.175 1.171.39a10 10 0 0 1 1.329.484q.545.252.875.563.341.3.484.688.14.392.14.89m0 0"/><path id="aV" d="M9.422 0H7.375l-2.39-3.39L2.608 0H.625l3.438-4.453L.78-8.875H2.75l2.328 3.406 2.297-3.406h1.906L5.937-4.422Zm0 0"/><path id="aW" d="M.969-4.25q-.002-1.137.297-2.016A4.3 4.3 0 0 1 2.14-7.75c.382-.406.843-.71 1.375-.922a5 5 0 0 1 1.797-.312q.418.002.828.062c.27.031.539.086.812.156V-12.5H8.5V0H7.125l-.062-1.687q-.643.939-1.391 1.39-.751.452-1.625.453-.769 0-1.344-.312a2.8 2.8 0 0 1-.969-.906 4.5 4.5 0 0 1-.578-1.391A8 8 0 0 1 .97-4.25m1.562-.094q0 1.61.469 2.407c.32.523.77.78 1.344.78q.59 0 1.234-.515c.438-.351.895-.875 1.375-1.562v-4.11a3.3 3.3 0 0 0-.844-.265 4.5 4.5 0 0 0-.906-.094q-1.266.002-1.969.812-.703.814-.703 2.547m0 0"/><path id="aX" d="M4.984-9.031q.264.002.516.11c.164.073.313.171.438.296q.186.189.296.438c.07.156.11.328.11.515 0 .188-.04.367-.11.531a1.5 1.5 0 0 1-.296.422 1.4 1.4 0 0 1-.438.297q-.252.094-.516.094a1.5 1.5 0 0 1-.53-.094 1.4 1.4 0 0 1-.438-.297 1.5 1.5 0 0 1-.282-.422 1.3 1.3 0 0 1-.109-.53q-.001-.282.11-.516a1.5 1.5 0 0 1 .28-.438 1.4 1.4 0 0 1 .438-.297c.164-.07.344-.11.531-.11m0 6.469q.264 0 .516.124a1.47 1.47 0 0 1 .734.72 1.346 1.346 0 0 1 0 1.063 1.5 1.5 0 0 1-.296.42A1.2 1.2 0 0 1 5.5.048c-.168.07-.34.11-.516.11-.187 0-.367-.04-.53-.11a1.16 1.16 0 0 1-.438-.281 1.5 1.5 0 0 1-.282-.422 1.3 1.3 0 0 1-.109-.531q-.001-.281.11-.532a1.3 1.3 0 0 1 .28-.422 1.4 1.4 0 0 1 .438-.296c.164-.083.344-.126.531-.126m0 0"/><path id="aY" d="M2.266-13.969h1V0h-1Zm0 0"/><path id="aZ" d="M5.75-9.344q1.718 0 2.656.985.951.984.953 2.765V0H8.344v-5.578q-.002-1.343-.766-2.094-.768-.75-2.156-.75c-.899 0-1.594.227-2.094.672q-.75.674-.75 1.89V0H1.563v-9.219h1.015v1.406a2.68 2.68 0 0 1 1.25-1.156q.826-.375 1.922-.375m0 0"/><path id="ba" d="M7.953-13.969h1V0h-1v-1.578A2.77 2.77 0 0 1 6.781-.312Q5.967.143 4.953.14 3.795.14 2.97-.33a3.13 3.13 0 0 1-1.266-1.374q-.422-.905-.422-2.172v-1.406q-.002-1.935.922-3Q3.14-9.343 4.86-9.344c1.383 0 2.414.555 3.094 1.656ZM5.156-.687c.563 0 1.055-.141 1.485-.422q.64-.435.968-1.11.342-.686.344-1.437v-1.938q-.002-.748-.344-1.422a2.66 2.66 0 0 0-.968-1.078q-.628-.422-1.485-.422c-.906 0-1.617.29-2.125.86q-.75.86-.75 2.39v1.391q0 1.5.75 2.344.764.843 2.125.843m0 0"/><path id="bb" d="M3.078-12.156H2.063v-.969h1.015ZM3.078 0H2.063v-9.219h1.015Zm0 0"/><path id="bc" d="M5.781-9.344q1.419.002 2.297.719l-.625.828c-.492-.414-1.148-.625-1.969-.625q-1.377 0-2.14.688-.75.688-.75 1.906V0H1.563v-9.219h1.03v1.453q.468-.78 1.282-1.171c.55-.27 1.188-.407 1.906-.407m0 0"/><path id="bd" d="M9.203-4.172H2.25v.219q0 1.5.844 2.328c.57.555 1.383.828 2.437.828q.763 0 1.438-.297a3.1 3.1 0 0 0 1.093-.812l.579.672q-.393.597-1.266.984a4.45 4.45 0 0 1-1.844.39Q4.184.142 3.234-.343A3.3 3.3 0 0 1 1.781-1.75c-.336-.625-.5-1.375-.5-2.25v-1.031c0-.907.157-1.68.469-2.328a3.33 3.33 0 0 1 1.39-1.47q.92-.515 2.22-.515 1.2.001 2.062.5.872.504 1.328 1.453.451.956.453 2.297ZM5.36-8.422q-1.488.001-2.296.875-.814.862-.813 2.422v.063h5.969v-.235q0-1.464-.75-2.297-.75-.826-2.11-.828m0 0"/><path id="be" d="M5.453.14c-2.781 0-4.172-1.335-4.172-4.015v-1.516c0-2.632 1.39-3.953 4.172-3.953q1.186 0 2.078.375c.594.25 1.07.617 1.438 1.094l-.719.672A3.7 3.7 0 0 0 7-8.11a3.7 3.7 0 0 0-1.516-.313Q2.28-8.42 2.281-5.39v1.516c0 2.055 1.067 3.078 3.203 3.078q.856 0 1.579-.297a3.3 3.3 0 0 0 1.25-.875l.656.657Q8.406-.61 7.516-.234C6.922.012 6.234.14 5.453.14m0 0"/><path id="bf" d="M4.984-8.375H2.86v5.797q0 .844.329 1.297.339.454.984.453h.812v.875H4c-.75 0-1.305-.219-1.656-.656q-.516-.67-.516-1.985v-5.781H.781v-.844h1.047v-2.89H2.86v2.89h2.125Zm0 0"/><path id="bg" d="M1.516-4.547v-.906h6.593v.906Zm0 0"/><path id="bh" d="M5.016-9.344c1.207 0 2.144.305 2.812.906.664.594 1 1.434 1 2.516V0H7.813v-1.203q-.363.627-1.235.984-.878.36-1.937.36-1.687 0-2.625-.75t-.938-2.11q-.001-1.295.86-2.015c.57-.477 1.375-.72 2.406-.72h3.468v-.39Q7.812-7.06 7.079-7.75q-.739-.686-2.062-.687-.798 0-1.5.234-.69.234-1.235.703l-.719-.516Q2.11-8.638 3-8.984q.902-.36 2.016-.36M4.859-.812q1.388.001 2.172-.532.781-.544.782-1.515v-1.657H4.358q-1.077 0-1.687.47c-.406.312-.61.757-.61 1.327q-.002.909.735 1.406c.488.336 1.176.5 2.062.5m0 0"/><path id="bi" d="M2.875-2.625c0 .574.086 1.012.266 1.313a.89.89 0 0 0 .797.437h.78V0h-.984q-.938 0-1.437-.672c-.336-.457-.5-1.113-.5-1.969v-11.328h1.078Zm0 0"/><path id="bj" d="M8.5-17.047q1.653.001 2.844.64a4.35 4.35 0 0 1 1.844 1.798q.639 1.171.64 2.797-.001 1.61-.64 2.78a4.33 4.33 0 0 1-1.844 1.798c-.805.418-1.75.625-2.844.625H3.313V0H2.109v-17.047Zm.078 9.344q1.248.001 2.156-.484a3.36 3.36 0 0 0 1.407-1.422q.499-.92.5-2.203-.001-1.277-.5-2.204a3.37 3.37 0 0 0-1.407-1.437q-.908-.499-2.156-.5H3.313v8.25Zm0 0"/><path id="bk" d="M6.906-11.406q1.7.001 2.75.875L8.906-9.5c-.574-.508-1.36-.766-2.36-.766q-1.641.001-2.546.829-.89.83-.89 2.328V0H1.874v-11.234h1.234v1.75a3.65 3.65 0 0 1 1.532-1.438q.965-.482 2.265-.484m0 0"/><path id="bl" d="M6.313.172q-1.517 0-2.594-.578a3.84 3.84 0 0 1-1.625-1.672Q1.53-3.186 1.53-4.734v-1.828q0-1.53.563-2.61a3.8 3.8 0 0 1 1.625-1.656q1.077-.576 2.594-.578 1.5.002 2.578.578c.718.375 1.265.93 1.64 1.656q.563 1.08.563 2.61v1.859q0 1.534-.563 2.625a3.83 3.83 0 0 1-1.64 1.672Q7.812.173 6.313.172m-.016-1.14c1.133 0 2.016-.329 2.64-.985q.938-.982.938-2.75v-1.86q0-1.746-.937-2.718-.94-.985-2.641-.985-1.687.001-2.625.97-.938.971-.938 2.733v1.86q0 1.768.938 2.75.938.984 2.625.984m0 0"/><path id="bm" d="M6.531.172q-5.002 0-5-4.89v-1.86c0-3.219 1.664-4.828 5-4.828.938 0 1.758.156 2.469.469a4.16 4.16 0 0 1 1.719 1.328l-.86.812a4.3 4.3 0 0 0-1.484-1.078 4.3 4.3 0 0 0-1.812-.39q-3.83 0-3.829 3.687v1.86q-.002 3.75 3.829 3.75 1.012.002 1.875-.36a4.2 4.2 0 0 0 1.5-1.078l.78.797q-.655.878-1.734 1.328c-.718.3-1.539.453-2.453.453m0 0"/><path id="bn" d="M11-5.094H2.688v.266c0 1.219.335 2.168 1.015 2.844C4.391-1.304 5.36-.97 6.61-.97a4 4 0 0 0 1.72-.375q.808-.375 1.312-.984l.703.812q-.47.739-1.516 1.22A5.4 5.4 0 0 1 6.61.171c-1.074 0-1.992-.195-2.75-.594A4 4 0 0 1 2.125-2.14c-.398-.757-.594-1.671-.594-2.734v-1.266q0-1.67.563-2.843a4.1 4.1 0 0 1 1.672-1.797c.726-.414 1.609-.625 2.64-.625q1.453 0 2.485.61 1.03.609 1.562 1.78Q11-7.856 11-6.219Zm-4.594-5.172c-1.187 0-2.105.352-2.75 1.047q-.97 1.05-.969 2.953v.094h7.141v-.281c0-1.207-.305-2.145-.906-2.813-.594-.664-1.434-1-2.516-1m0 0"/><path id="bo" d="M9.5-17.047h1.219V0H9.5v-1.937q-.423.984-1.39 1.546c-.65.375-1.376.563-2.188.563q-1.393 0-2.375-.578-.984-.576-1.5-1.672-.516-1.108-.516-2.656v-1.72c0-1.57.367-2.788 1.11-3.655.75-.864 1.804-1.297 3.172-1.297 1.656 0 2.882.672 3.687 2.015ZM6.172-.844q.997 0 1.766-.515a3.4 3.4 0 0 0 1.156-1.36A3.9 3.9 0 0 0 9.5-4.453v-2.375q-.001-.904-.406-1.719a3.2 3.2 0 0 0-1.156-1.328q-.751-.516-1.766-.516c-1.094 0-1.945.352-2.547 1.047q-.89 1.05-.89 2.906v1.704q0 1.844.89 2.875c.602.68 1.453 1.015 2.547 1.015m0 0"/><path id="bp" d="M9.922-11.234h1.203V0H9.922v-1.656A3.44 3.44 0 0 1 8.469-.312Q7.532.17 6.172.172 4.123.174 3-1.031 1.875-2.233 1.875-4.406v-6.828h1.203v6.828q-.002 1.63.906 2.531.903.907 2.532.906 1.624.001 2.515-.86.89-.872.89-2.468Zm0 0"/><path id="br" d="M5.953-10.219H3.406v7.078q-.002 1.018.406 1.579c.27.367.665.546 1.188.546h.953V.063H4.781q-1.347 0-1.968-.813c-.418-.55-.626-1.36-.626-2.422v-7.047H.938v-1.015h1.25v-3.547h1.22v3.547h2.546Zm0 0"/><path id="bx" d="M3.438 0H2v-1.437h1.438Zm0-9.812H2v-1.438h1.438Zm0 0"/><path id="bs" d="M6.531.156q-5.002 0-5-4.781v-1.828c0-3.145 1.664-4.719 5-4.719.938 0 1.758.152 2.469.453a4.1 4.1 0 0 1 1.719 1.297l-.86.797a4.4 4.4 0 0 0-1.484-1.062 4.4 4.4 0 0 0-1.812-.376q-3.83 0-3.829 3.61v1.828Q2.732-.951 6.563-.953c.675 0 1.3-.117 1.875-.36a4.1 4.1 0 0 0 1.5-1.046l.78.78A4 4 0 0 1 8.985-.28c-.718.289-1.539.437-2.453.437m0 0"/><path id="bt" d="M5.984-11.172q2.17 0 3.36 1.078 1.201 1.066 1.203 3.016V0H9.344v-1.437q-.441.75-1.485 1.171a6.1 6.1 0 0 1-2.296.422q-2.033 0-3.157-.89c-.742-.594-1.11-1.43-1.11-2.516q-.002-1.546 1.017-2.406c.687-.57 1.644-.86 2.875-.86h4.156v-.468q0-1.466-.89-2.282c-.587-.55-1.407-.828-2.47-.828q-.937 0-1.78.281a4.3 4.3 0 0 0-1.47.844l-.875-.61q.657-.761 1.735-1.171 1.078-.422 2.39-.422M5.797-.984c1.125 0 1.992-.211 2.61-.641q.937-.638.937-1.797v-1.984h-4.14q-1.284 0-2.016.562-.72.563-.72 1.594-.001 1.079.876 1.672.872.596 2.453.594m0 0"/><path id="bu" d="M3.438-3.14q0 1.032.328 1.562.327.532.937.531h.938V0H4.469Q3.358 0 2.75-.812q-.596-.809-.594-2.344v-13.547h1.281Zm0 0"/><path id="bv" d="M5.172-15.656q-.831 0-1.281.547-.439.532-.438 1.547v2.546h3.094v1H3.453V0H2.234v-10.016H.938v-1h1.296v-2.53q0-1.548.704-2.345.703-.81 2.062-.812h1.547v1.047Zm0 0"/><path id="bw" d="M6.313.156q-1.517 0-2.594-.562a3.8 3.8 0 0 1-1.625-1.64Q1.53-3.125 1.53-4.642v-1.796q0-1.482.563-2.547a3.7 3.7 0 0 1 1.625-1.625q1.077-.563 2.594-.563 1.5 0 2.578.563a3.7 3.7 0 0 1 1.64 1.625q.563 1.064.563 2.547v1.828q0 1.5-.563 2.578a3.8 3.8 0 0 1-1.64 1.625Q7.812.156 6.313.156m-.016-1.11c1.133 0 2.016-.32 2.64-.968q.938-.965.938-2.687v-1.828q0-1.7-.937-2.657-.94-.967-2.641-.969-1.687.002-2.625.954-.938.954-.938 2.672v1.828q0 1.721.938 2.687c.625.649 1.5.969 2.625.969m0 0"/><clipPath id="a"><path d="M0 0h900.871v358.91H0Zm0 0"/></clipPath></defs><g clip-path="url(#a)"><path fill="#fff" d="M0 0h900.871v358.91H0Zm0 0"/></g><path fill="#fff" fill-rule="evenodd" stroke="#1973eb" stroke-dasharray="3.048 1.016" stroke-miterlimit="8" stroke-width="1.016" d="M.617 309.473a8.4 8.4 0 0 1 8.403-8.399h298.254a8.4 8.4 0 0 1 8.398 8.399v33.601a8.4 8.4 0 0 1-8.398 8.399H9.02c-4.641 0-8.403-3.762-8.403-8.399Zm0 0"/><use xlink:href="#b" x="20.441" y="332.945"/><use xlink:href="#c" x="31.441" y="332.945"/><use xlink:href="#d" x="42.441" y="332.945"/><use xlink:href="#b" x="53.441" y="332.945"/><use xlink:href="#e" x="64.441" y="332.945"/><use xlink:href="#f" x="75.441" y="332.945"/><use xlink:href="#g" x="86.441" y="332.945"/><use xlink:href="#h" x="97.441" y="332.945"/><use xlink:href="#d" x="108.442" y="332.945"/><use xlink:href="#i" x="119.442" y="332.945"/><use xlink:href="#e" x="130.441" y="332.945"/><use xlink:href="#j" x="141.441" y="332.945"/><use xlink:href="#k" x="152.441" y="332.945"/><use xlink:href="#l" x="163.441" y="332.945"/><use xlink:href="#m" x="174.441" y="332.945"/><use xlink:href="#n" x="185.441" y="332.945"/><use xlink:href="#d" x="196.441" y="332.945"/><use xlink:href="#b" x="207.441" y="332.945"/><use xlink:href="#o" x="218.441" y="332.945"/><use xlink:href="#m" x="229.441" y="332.945"/><use xlink:href="#n" x="240.441" y="332.945"/><use xlink:href="#c" x="251.441" y="332.945"/><use xlink:href="#p" x="262.441" y="332.945"/><use xlink:href="#j" x="273.441" y="332.945"/><use xlink:href="#q" x="284.44" y="332.945"/><path fill="#fff" fill-rule="evenodd" stroke="#1973eb" stroke-dasharray="3.048 1.016" stroke-miterlimit="8" stroke-width="1.016" d="M.617 246.383a8.363 8.363 0 0 1 8.363-8.363H307.31a8.36 8.36 0 0 1 8.363 8.363v33.453a8.36 8.36 0 0 1-8.363 8.363H8.98a8.363 8.363 0 0 1-8.363-8.363Zm0 0"/><use xlink:href="#r" x="91.941" y="269.673"/><use xlink:href="#q" x="102.941" y="269.673"/><use xlink:href="#q" x="113.941" y="269.673"/><use xlink:href="#p" x="124.941" y="269.673"/><use xlink:href="#i" x="135.941" y="269.673"/><use xlink:href="#s" x="146.941" y="269.673"/><use xlink:href="#j" x="157.941" y="269.673"/><use xlink:href="#q" x="168.94" y="269.673"/><use xlink:href="#b" x="179.94" y="269.673"/><use xlink:href="#l" x="190.94" y="269.673"/><use xlink:href="#s" x="201.94" y="269.673"/><use xlink:href="#i" x="212.94" y="269.673"/><path fill="#fff" fill-rule="evenodd" stroke="#1973eb" stroke-dasharray="3.048 1.016" stroke-miterlimit="8" stroke-width="1.016" d="M.617 38.82c0-18.922 15.336-34.258 34.258-34.258h246.543c18.918 0 34.254 15.336 34.254 34.258v137.016c0 18.918-15.336 34.254-34.254 34.254H131.891L92.51 235.78 53.13 210.09H34.875c-18.922 0-34.258-15.336-34.258-34.254Zm0 0"/><path fill="#fff" fill-rule="evenodd" stroke="#1973eb" stroke-miterlimit="8" stroke-width="1.016" d="M111.672 27.328a8.363 8.363 0 0 1 8.363-8.363H295.31a8.36 8.36 0 0 1 8.363 8.363v33.453a8.36 8.36 0 0 1-8.363 8.364H120.035a8.363 8.363 0 0 1-8.363-8.364Zm0 0"/><use xlink:href="#r" x="146.969" y="50.618"/><use xlink:href="#q" x="157.969" y="50.618"/><use xlink:href="#q" x="168.969" y="50.618"/><use xlink:href="#p" x="179.968" y="50.618"/><use xlink:href="#c" x="190.968" y="50.618"/><use xlink:href="#s" x="201.968" y="50.618"/><use xlink:href="#r" x="212.968" y="50.618"/><use xlink:href="#t" x="223.968" y="50.618"/><use xlink:href="#g" x="234.968" y="50.618"/><use xlink:href="#b" x="245.967" y="50.618"/><use xlink:href="#u" x="256.967" y="50.618"/><path fill="#1973eb" fill-rule="evenodd" stroke="#052d63" stroke-miterlimit="8" stroke-width="1.016" d="M111.672 89.508a8.365 8.365 0 0 1 8.363-8.363H295.31a8.363 8.363 0 0 1 8.363 8.363v33.457a8.363 8.363 0 0 1-8.363 8.363H120.035a8.365 8.365 0 0 1-8.363-8.363Zm0 0"/><g fill="#fff"><use xlink:href="#r" x="124.969" y="112.8"/><use xlink:href="#q" x="135.969" y="112.8"/><use xlink:href="#q" x="146.969" y="112.8"/><use xlink:href="#p" x="157.968" y="112.8"/><use xlink:href="#t" x="168.968" y="112.8"/><use xlink:href="#i" x="179.968" y="112.8"/><use xlink:href="#k" x="190.968" y="112.8"/><use xlink:href="#v" x="201.968" y="112.8"/></g><g fill="#fff"><use xlink:href="#w" x="212.969" y="112.8"/><use xlink:href="#x" x="223.969" y="112.8"/><use xlink:href="#i" x="234.969" y="112.8"/><use xlink:href="#l" x="245.968" y="112.8"/><use xlink:href="#t" x="256.968" y="112.8"/><use xlink:href="#y" x="267.968" y="112.8"/><use xlink:href="#y" x="278.968" y="112.8"/></g><path fill="#fff" fill-rule="evenodd" stroke="#1973eb" stroke-miterlimit="8" stroke-width="1.016" d="M111.672 152.563a8.365 8.365 0 0 1 8.363-8.364H295.31a8.363 8.363 0 0 1 8.363 8.364v33.457a8.363 8.363 0 0 1-8.363 8.363H120.035a8.365 8.365 0 0 1-8.363-8.363Zm0 0"/><use xlink:href="#r" x="124.969" y="175.855"/><use xlink:href="#q" x="135.969" y="175.855"/><use xlink:href="#q" x="146.969" y="175.855"/><use xlink:href="#p" x="157.968" y="175.855"/><use xlink:href="#t" x="168.968" y="175.855"/><use xlink:href="#i" x="179.968" y="175.855"/><use xlink:href="#k" x="190.968" y="175.855"/><use xlink:href="#v" x="201.968" y="175.855"/><use xlink:href="#w" x="212.969" y="175.855"/><use xlink:href="#x" x="223.969" y="175.855"/><use xlink:href="#i" x="234.969" y="175.855"/><use xlink:href="#l" x="245.968" y="175.855"/><use xlink:href="#t" x="256.968" y="175.855"/><use xlink:href="#y" x="267.968" y="175.855"/><use xlink:href="#z" x="278.968" y="175.855"/><path fill="#fff" fill-rule="evenodd" stroke="#1973eb" stroke-miterlimit="8" stroke-width="1.016" d="M20.254 81.145h68.508v19.226h6.953v-6.406l4.394 12.816-4.394 12.82v-6.41h-6.953v19.227H20.254Zm0 0"/><use xlink:href="#A" x="34.453" y="96.436"/><use xlink:href="#B" x="41.078" y="96.436"/><use xlink:href="#C" x="47.703" y="96.436"/><use xlink:href="#C" x="54.328" y="96.436"/><use xlink:href="#D" x="60.953" y="96.436"/><use xlink:href="#E" x="67.579" y="96.436"/><use xlink:href="#F" x="74.204" y="96.436"/><use xlink:href="#G" x="44.393" y="110.836"/><use xlink:href="#H" x="51.018" y="110.836"/><use xlink:href="#I" x="57.643" y="110.836"/><use xlink:href="#F" x="64.268" y="110.836"/><use xlink:href="#B" x="31.143" y="125.236"/><use xlink:href="#J" x="37.768" y="125.236"/><use xlink:href="#K" x="44.393" y="125.236"/><use xlink:href="#L" x="51.018" y="125.236"/><use xlink:href="#C" x="57.643" y="125.236"/><use xlink:href="#M" x="64.269" y="125.236"/><use xlink:href="#E" x="70.894" y="125.236"/><path fill="#fff" fill-rule="evenodd" d="M337.758 352.563a8.555 8.555 0 0 0 8.555-8.555h-8.555a4.279 4.279 0 0 0 0-8.559h8.555V14.211a8.556 8.556 0 0 1 8.558-8.555H618.68a8.556 8.556 0 0 1 8.558 8.555 8.56 8.56 0 0 1-8.558 8.559h-8.555v321.238a8.556 8.556 0 0 1-8.559 8.555ZM363.426 14.21c0 4.727-3.832 8.559-8.555 8.559a4.28 4.28 0 1 1 0-8.559Zm0 0"/><path fill="#cdcdcd" fill-rule="evenodd" d="M363.426 14.21c0 4.727-3.832 8.56-8.555 8.56a4.28 4.28 0 1 1 0-8.559Zm-17.113 329.798a8.555 8.555 0 0 1-8.555 8.555 8.556 8.556 0 0 1-8.559-8.555 8.56 8.56 0 0 1 8.559-8.559 4.28 4.28 0 0 1 0 8.559Zm0 0"/><path fill="none" stroke="#25c8a2" stroke-miterlimit="8" stroke-width="1.016" d="M346.313 335.45V14.21a8.556 8.556 0 0 1 8.558-8.554H618.68a8.556 8.556 0 0 1 8.558 8.555 8.56 8.56 0 0 1-8.558 8.559h-8.555v321.238a8.556 8.556 0 0 1-8.558 8.555h-263.81a8.556 8.556 0 0 1-8.558-8.555 8.56 8.56 0 0 1 8.559-8.559ZM354.87 5.655a8.555 8.555 0 0 1 8.555 8.555c0 4.727-3.832 8.559-8.555 8.559a4.28 4.28 0 1 1 0-8.559h8.555m246.7 8.559H354.87m-17.113 312.68a4.28 4.28 0 0 1 0 8.558h8.555m-8.555 8.555a8.555 8.555 0 0 0 8.555-8.555v-8.559"/><use xlink:href="#N" x="378.24" y="63.927"/><use xlink:href="#O" x="393.614" y="63.927"/><use xlink:href="#P" x="408.988" y="63.927"/><use xlink:href="#Q" x="424.362" y="63.927"/><use xlink:href="#R" x="439.736" y="63.927"/><use xlink:href="#O" x="455.11" y="63.927"/><use xlink:href="#S" x="470.484" y="63.927"/><use xlink:href="#T" x="485.858" y="63.927"/><use xlink:href="#U" x="501.232" y="63.927"/><use xlink:href="#U" x="516.606" y="63.927"/><use xlink:href="#V" x="531.98" y="63.927"/><use xlink:href="#W" x="547.354" y="63.927"/><use xlink:href="#X" x="562.728" y="63.927"/><use xlink:href="#S" x="578.102" y="63.927"/><use xlink:href="#Y" x="439.74" y="114.327"/><use xlink:href="#R" x="455.114" y="114.327"/><use xlink:href="#Q" x="470.488" y="114.327"/><use xlink:href="#O" x="485.862" y="114.327"/><use xlink:href="#W" x="501.236" y="114.327"/><path fill="#1973eb" fill-rule="evenodd" d="M358.883 170.89h98.183V132.31h-98.183ZM457.066 170.89h140.407V132.31H457.066Zm0 0"/><path fill="#ccd5f7" fill-rule="evenodd" d="M358.883 209.473h98.183V170.89h-98.183Zm0 0"/><path fill="#0070c0" fill-rule="evenodd" d="M457.066 209.473h140.407V170.89H457.066Zm0 0"/><path fill="#e7ebfb" fill-rule="evenodd" d="M358.883 248.055h98.183v-38.582h-98.183ZM457.066 248.055h140.407v-38.582H457.066Zm0 0"/><path fill="#ccd5f7" fill-rule="evenodd" d="M358.883 286.637h98.183v-38.582h-98.183ZM457.066 286.637h140.407v-38.582H457.066Zm0 0"/><path fill="#e7ebfb" fill-rule="evenodd" d="M358.883 325.219h98.183v-38.582h-98.183ZM457.066 325.219h140.407v-38.582H457.066Zm0 0"/><path fill="none" stroke="#fff" stroke-linejoin="round" stroke-miterlimit="10" stroke-width="1.016" d="M457.066 131.809v193.91"/><path fill="none" stroke="#fff" stroke-linejoin="round" stroke-miterlimit="10" stroke-width="3.048" d="M358.383 170.89h239.59"/><path fill="none" stroke="#fff" stroke-linejoin="round" stroke-miterlimit="10" stroke-width="1.016" d="M358.383 209.473h239.59M358.383 248.055h239.59M358.383 286.637h239.59M358.883 131.809v193.91M597.473 131.809v193.91M358.383 132.309h239.59M358.383 325.219h239.59"/><g fill="#fff"><use xlink:href="#Z" x="492.707" y="157.745"/><use xlink:href="#aa" x="502.582" y="157.745"/><use xlink:href="#ab" x="512.457" y="157.745"/><use xlink:href="#ac" x="522.332" y="157.745"/><use xlink:href="#ad" x="532.207" y="157.745"/><use xlink:href="#ae" x="542.082" y="157.745"/><use xlink:href="#af" x="551.956" y="157.745"/></g><g fill="#fff"><use xlink:href="#ag" x="368.474" y="157.745"/><use xlink:href="#ah" x="378.348" y="157.745"/><use xlink:href="#ac" x="388.223" y="157.745"/><use xlink:href="#ai" x="398.098" y="157.745"/><use xlink:href="#ad" x="407.973" y="157.745"/><use xlink:href="#ab" x="417.848" y="157.745"/><use xlink:href="#aa" x="427.723" y="157.745"/><use xlink:href="#ac" x="437.598" y="157.745"/></g><use xlink:href="#aj" x="465.27" y="195.055" fill="#fff"/><g fill="#fff"><use xlink:href="#ak" x="473.02" y="195.055"/><use xlink:href="#al" x="480.769" y="195.055"/><use xlink:href="#al" x="488.519" y="195.055"/><use xlink:href="#am" x="496.269" y="195.055"/><use xlink:href="#an" x="504.019" y="195.055"/><use xlink:href="#ao" x="511.769" y="195.055"/><use xlink:href="#ap" x="519.519" y="195.055"/><use xlink:href="#aq" x="527.268" y="195.055"/></g><g fill="#fff"><use xlink:href="#ar" x="535.02" y="195.055"/><use xlink:href="#as" x="542.769" y="195.055"/><use xlink:href="#ao" x="550.519" y="195.055"/><use xlink:href="#at" x="558.269" y="195.055"/><use xlink:href="#an" x="566.019" y="195.055"/><use xlink:href="#au" x="573.769" y="195.055"/><use xlink:href="#au" x="581.519" y="195.055"/></g><use xlink:href="#av" x="393.161" y="196.364"/><use xlink:href="#aw" x="403.036" y="196.364"/><use xlink:href="#aw" x="412.911" y="196.364"/><use xlink:href="#ax" x="393.161" y="234.982"/><use xlink:href="#ay" x="403.036" y="234.982"/><use xlink:href="#az" x="412.911" y="234.982"/><use xlink:href="#aA" x="522.332" y="273.6"/><use xlink:href="#aA" x="403.036" y="273.6"/><use xlink:href="#aA" x="522.332" y="312.218"/><use xlink:href="#aA" x="403.036" y="312.218"/><path fill="#fff" fill-rule="evenodd" stroke="#fe5a5a" stroke-dasharray="3.048 1.016" stroke-miterlimit="8" stroke-width="1.016" d="M640.98 291.293c0-6.77 5.489-12.258 12.258-12.258h230.106c6.77 0 12.258 5.488 12.258 12.258v49.016c0 6.77-5.489 12.254-12.258 12.254H653.238c-6.77 0-12.258-5.485-12.258-12.254Zm0 0"/><g fill="#7030a0"><use xlink:href="#aB" x="651.673" y="300.436"/><use xlink:href="#ah" x="661.548" y="300.436"/><use xlink:href="#ab" x="671.423" y="300.436"/><use xlink:href="#aC" x="681.297" y="300.436"/><use xlink:href="#ai" x="691.172" y="300.436"/></g><use xlink:href="#aD" x="710.923" y="300.436"/><use xlink:href="#aE" x="720.798" y="300.436"/><use xlink:href="#aF" x="730.673" y="300.436"/><use xlink:href="#aG" x="740.547" y="300.436"/><use xlink:href="#aH" x="750.422" y="300.436"/><use xlink:href="#aI" x="760.297" y="300.436"/><use xlink:href="#aJ" x="770.172" y="300.436"/><use xlink:href="#aK" x="780.047" y="300.436"/><g fill="#0070c0"><use xlink:href="#aL" x="789.923" y="300.436"/><use xlink:href="#aa" x="799.798" y="300.436"/><use xlink:href="#aa" x="809.673" y="300.436"/></g><use xlink:href="#aM" x="819.548" y="300.436"/><g fill="#7030a0"><use xlink:href="#aN" x="651.673" y="322.036"/><use xlink:href="#aO" x="661.548" y="322.036"/></g><use xlink:href="#aD" x="710.923" y="322.036"/><use xlink:href="#aE" x="720.798" y="322.036"/><use xlink:href="#aF" x="730.673" y="322.036"/><use xlink:href="#aG" x="740.547" y="322.036"/><use xlink:href="#aH" x="750.422" y="322.036"/><use xlink:href="#aP" x="760.297" y="322.036"/><use xlink:href="#aw" x="770.172" y="322.036"/><use xlink:href="#aK" x="780.047" y="322.036"/><g fill="#0070c0"><use xlink:href="#aL" x="789.923" y="322.036"/><use xlink:href="#aa" x="799.798" y="322.036"/><use xlink:href="#aa" x="809.673" y="322.036"/></g><use xlink:href="#aM" x="819.548" y="322.036"/><use xlink:href="#aK" x="829.423" y="322.036"/><use xlink:href="#aD" x="839.298" y="322.036"/><use xlink:href="#aE" x="849.172" y="322.036"/><use xlink:href="#aM" x="859.047" y="322.036"/><g fill="#7030a0"><use xlink:href="#aQ" x="651.673" y="343.636"/><use xlink:href="#aB" x="661.548" y="343.636"/><use xlink:href="#aN" x="671.423" y="343.636"/><use xlink:href="#af" x="681.297" y="343.636"/></g><use xlink:href="#az" x="710.923" y="343.636"/><use xlink:href="#ay" x="720.798" y="343.636"/><use xlink:href="#aF" x="730.673" y="343.636"/><use xlink:href="#aG" x="740.548" y="343.636"/><use xlink:href="#aD" x="750.423" y="343.636"/><use xlink:href="#aE" x="760.297" y="343.636"/><path fill="#fff" fill-rule="evenodd" stroke="#fe5a5a" stroke-dasharray="3.048 1.016" stroke-miterlimit="8" stroke-width="1.016" d="M640.98 81.363c0-14.218 11.528-25.746 25.747-25.746h203.129c14.218 0 25.746 11.528 25.746 25.746v102.98c0 14.22-11.528 25.747-25.746 25.747h-203.13c-14.218 0-25.746-11.527-25.746-25.746Zm0 0"/><g fill="#7030a0"><use xlink:href="#aB" x="655.636" y="85.091"/><use xlink:href="#ah" x="665.511" y="85.091"/><use xlink:href="#ab" x="675.386" y="85.091"/><use xlink:href="#aC" x="685.26" y="85.091"/><use xlink:href="#ai" x="695.135" y="85.091"/></g><use xlink:href="#aD" x="714.886" y="85.091"/><use xlink:href="#aE" x="724.761" y="85.091"/><use xlink:href="#aF" x="734.636" y="85.091"/><use xlink:href="#aG" x="744.51" y="85.091"/><use xlink:href="#aH" x="754.385" y="85.091"/><use xlink:href="#aI" x="764.26" y="85.091"/><use xlink:href="#aJ" x="774.135" y="85.091"/><use xlink:href="#aK" x="784.01" y="85.091"/><g fill="#0070c0"><use xlink:href="#aL" x="793.886" y="85.091"/><use xlink:href="#aa" x="803.761" y="85.091"/><use xlink:href="#aa" x="813.636" y="85.091"/></g><use xlink:href="#aM" x="823.511" y="85.091"/><g fill="#7030a0"><use xlink:href="#aQ" x="655.636" y="106.691"/><use xlink:href="#aB" x="665.511" y="106.691"/><use xlink:href="#aN" x="675.386" y="106.691"/><use xlink:href="#af" x="685.26" y="106.691"/></g><use xlink:href="#az" x="714.886" y="106.691"/><use xlink:href="#ay" x="724.761" y="106.691"/><use xlink:href="#aF" x="734.636" y="106.691"/><use xlink:href="#aG" x="744.511" y="106.691"/><use xlink:href="#aH" x="754.386" y="106.691"/><use xlink:href="#aP" x="764.261" y="106.691"/><use xlink:href="#aw" x="774.136" y="106.691"/><use xlink:href="#aK" x="784.011" y="106.691"/><g fill="#0070c0"><use xlink:href="#aL" x="793.886" y="106.691"/><use xlink:href="#aa" x="803.761" y="106.691"/><use xlink:href="#aa" x="813.636" y="106.691"/></g><use xlink:href="#aM" x="823.511" y="106.691"/><use xlink:href="#aK" x="833.386" y="106.691"/><use xlink:href="#aD" x="843.261" y="106.691"/><use xlink:href="#aE" x="853.135" y="106.691"/><use xlink:href="#aM" x="863.011" y="106.691"/><use xlink:href="#aR" x="655.636" y="149.891"/><use xlink:href="#aw" x="665.511" y="149.891"/><use xlink:href="#aS" x="675.386" y="149.891"/><use xlink:href="#aT" x="685.26" y="149.891"/><use xlink:href="#aD" x="695.135" y="149.891"/><use xlink:href="#aJ" x="705.01" y="149.891"/><use xlink:href="#aS" x="714.885" y="149.891"/><use xlink:href="#aT" x="724.76" y="149.891"/><use xlink:href="#aU" x="734.635" y="149.891"/><use xlink:href="#aG" x="744.51" y="149.891"/><use xlink:href="#az" x="754.385" y="149.891"/><use xlink:href="#aT" x="764.26" y="149.891"/><use xlink:href="#aP" x="774.134" y="149.891"/><use xlink:href="#ay" x="784.009" y="149.891"/><use xlink:href="#aV" x="793.884" y="149.891"/><use xlink:href="#aT" x="803.759" y="149.891"/><use xlink:href="#aW" x="813.634" y="149.891"/><use xlink:href="#aG" x="823.509" y="149.891"/><use xlink:href="#aD" x="833.384" y="149.891"/><use xlink:href="#aw" x="843.259" y="149.891"/><use xlink:href="#aX" x="853.134" y="149.891"/><g fill="#7030a0"><use xlink:href="#aQ" x="655.636" y="193.091"/><use xlink:href="#aB" x="665.511" y="193.091"/><use xlink:href="#aN" x="675.386" y="193.091"/></g><use xlink:href="#az" x="714.886" y="193.091"/><use xlink:href="#ay" x="724.761" y="193.091"/><use xlink:href="#aF" x="734.636" y="193.091"/><use xlink:href="#aG" x="744.511" y="193.091"/><g fill="#0070c0"><use xlink:href="#aL" x="754.386" y="193.091"/><use xlink:href="#aa" x="764.261" y="193.091"/><use xlink:href="#aa" x="774.136" y="193.091"/></g><path fill="#fe733c" fill-rule="evenodd" stroke="#6c2d14" stroke-miterlimit="8" stroke-width="1.016" d="M640.98 244.672h63.657v-24.98h127.308v24.98h63.657l-127.313 24.984Zm0 0"/><use xlink:href="#aY" x="712.174" y="244.986" fill="#fff"/><path fill="none" stroke="#fff" stroke-miterlimit="10" stroke-width=".5105412" d="M714.438 231.015h1v13.969h-1Zm0 0"/><g fill="#fff"><use xlink:href="#aZ" x="718.049" y="244.986"/><use xlink:href="#ba" x="729.173" y="244.986"/><use xlink:href="#bb" x="739.916" y="244.986"/></g><path fill="none" stroke="#fff" stroke-miterlimit="10" stroke-width=".5105412" d="M723.797 235.64q1.717 0 2.656.985.951.984.953 2.765v5.594h-1.015v-5.578c0-.895-.258-1.594-.766-2.094q-.767-.75-2.156-.75c-.899 0-1.594.227-2.094.672q-.75.673-.75 1.89v5.86h-1.016v-9.219h1.016v1.407a2.68 2.68 0 0 1 1.25-1.157q.825-.375 1.922-.375Zm13.328-4.625h1v13.969h-1v-1.578a2.77 2.77 0 0 1-1.172 1.266q-.814.454-1.828.453-1.16 0-1.984-.47a3.13 3.13 0 0 1-1.266-1.374q-.422-.905-.422-2.172v-1.406q-.002-1.935.922-3 .936-1.062 2.656-1.063c1.383 0 2.414.555 3.094 1.657Zm-2.797 13.282c.563 0 1.055-.141 1.485-.422q.64-.435.968-1.11.342-.686.344-1.437v-1.938q-.002-.748-.344-1.422a2.66 2.66 0 0 0-.968-1.078q-.629-.422-1.485-.422c-.906 0-1.617.29-2.125.86q-.75.86-.75 2.39v1.391q0 1.5.75 2.344.764.844 2.125.844Zm8.668-11.47h-1.016v-.968h1.016Zm0 12.157h-1.016v-9.219h1.016Zm0 0"/><use xlink:href="#bc" x="745.42" y="244.986" fill="#fff"/><path fill="none" stroke="#fff" stroke-miterlimit="10" stroke-width=".5105412" d="M751.203 235.64q1.418.002 2.297.719l-.625.828c-.492-.414-1.148-.625-1.969-.625q-1.378 0-2.14.688-.75.688-.75 1.906v5.828h-1.032v-9.219h1.032v1.453q.467-.78 1.28-1.171.828-.406 1.907-.407Zm0 0"/><use xlink:href="#bd" x="753.915" y="244.986" fill="#fff"/><path fill="none" stroke="#fff" stroke-miterlimit="10" stroke-width=".5105412" d="M763.117 240.812h-6.953v.219q0 1.5.844 2.328c.57.555 1.383.828 2.437.828q.763.001 1.438-.297a3.1 3.1 0 0 0 1.094-.812l.578.672q-.393.597-1.266.984a4.45 4.45 0 0 1-1.844.39q-1.347.001-2.297-.484a3.3 3.3 0 0 1-1.453-1.406q-.502-.937-.5-2.25v-1.031q0-1.358.47-2.328a3.33 3.33 0 0 1 1.39-1.47q.918-.515 2.218-.515 1.202.001 2.063.5.872.504 1.328 1.453.451.956.453 2.297Zm-3.844-4.25q-1.488.001-2.296.875-.814.862-.813 2.422v.063h5.969v-.235q0-1.464-.75-2.297-.75-.827-2.11-.828Zm0 0"/><use xlink:href="#be" x="764.658" y="244.986" fill="#fff"/><path fill="none" stroke="#fff" stroke-miterlimit="10" stroke-width=".5105412" d="M770.11 245.125q-4.173.002-4.172-4.016v-1.516c0-2.632 1.39-3.953 4.171-3.953q1.187 0 2.079.375.888.377 1.437 1.094l-.719.672a3.7 3.7 0 0 0-1.25-.906 3.7 3.7 0 0 0-1.515-.313q-3.204.001-3.203 3.031v1.516c0 2.055 1.066 3.078 3.203 3.078q.856.001 1.578-.297a3.3 3.3 0 0 0 1.25-.875l.656.657q-.563.702-1.453 1.078c-.594.246-1.281.375-2.063.375Zm0 0"/><use xlink:href="#bf" x="775.16" y="244.986" fill="#fff"/><path fill="none" stroke="#fff" stroke-miterlimit="10" stroke-width=".5105412" d="M780.145 236.609h-2.125v5.797q0 .844.328 1.297.339.455.984.453h.813v.875h-.985q-1.127 0-1.656-.656-.516-.67-.516-1.985v-5.781h-1.047v-.844h1.047v-2.89h1.032v2.89h2.125Zm0 0"/><use xlink:href="#bg" x="781.674" y="244.986" fill="#fff"/><path fill="none" stroke="#fff" stroke-miterlimit="10" stroke-width=".5105412" d="M783.191 240.437v-.906h6.594v.906Zm0 0"/><g fill="#fff"><use xlink:href="#be" x="791.674" y="244.986"/><use xlink:href="#bh" x="802.174" y="244.986"/></g><path fill="none" stroke="#fff" stroke-miterlimit="10" stroke-width=".5105412" d="M797.125 245.125q-4.172.002-4.172-4.016v-1.516c0-2.632 1.39-3.953 4.172-3.953q1.186 0 2.078.375c.594.25 1.07.617 1.438 1.094l-.72.672a3.7 3.7 0 0 0-1.25-.906 3.7 3.7 0 0 0-1.515-.313q-3.203.001-3.203 3.031v1.516c0 2.055 1.067 3.078 3.203 3.078q.856.001 1.578-.297a3.3 3.3 0 0 0 1.25-.875l.657.657q-.563.702-1.453 1.078c-.594.246-1.282.375-2.063.375Zm10.066-9.485c1.207 0 2.145.305 2.813.907q.998.89 1 2.515v5.922h-1.016v-1.203q-.362.627-1.234.984-.877.36-1.938.36-1.688 0-2.625-.75t-.937-2.11q-.001-1.295.86-2.015c.57-.477 1.374-.72 2.406-.72h3.468v-.39q-.001-1.216-.734-1.906-.738-.686-2.063-.687-.795 0-1.5.234-.689.234-1.234.703l-.719-.516q.547-.622 1.438-.968.902-.36 2.015-.36Zm-.156 8.532q1.388.001 2.172-.532.78-.544.781-1.515v-1.657h-3.453q-1.078 0-1.687.47-.61.47-.61 1.327c0 .606.242 1.075.735 1.407q.732.501 2.062.5Zm0 0"/><use xlink:href="#bi" x="812.794" y="244.986" fill="#fff"/><path fill="none" stroke="#fff" stroke-miterlimit="10" stroke-width=".5105412" d="M815.668 242.359c0 .574.086 1.012.266 1.313a.89.89 0 0 0 .796.437h.782v.875h-.985q-.938 0-1.437-.672-.502-.685-.5-1.969v-11.328h1.078Zm0 0"/><use xlink:href="#bi" x="818.537" y="244.986" fill="#fff"/><path fill="none" stroke="#fff" stroke-miterlimit="10" stroke-width=".5105412" d="M821.414 242.359c0 .574.086 1.012.266 1.313a.89.89 0 0 0 .797.437h.78v.875h-.984q-.938 0-1.437-.672-.502-.685-.5-1.969v-11.328h1.078Zm0 0"/><use xlink:href="#bj" x="646.236" y="30.982"/><use xlink:href="#bk" x="661.236" y="30.982"/><use xlink:href="#bl" x="670.98" y="30.982"/><use xlink:href="#bm" x="683.604" y="30.982"/><use xlink:href="#bn" x="695.724" y="30.982"/><use xlink:href="#bo" x="708.108" y="30.982"/><use xlink:href="#bp" x="720.612" y="30.982"/><use xlink:href="#bk" x="733.476" y="30.982"/><use xlink:href="#bn" x="743.22" y="30.982"/><use xlink:href="#bq" x="755.604" y="30.982"/><use xlink:href="#br" x="762.108" y="30.982"/><use xlink:href="#bl" x="769.476" y="30.982"/><use xlink:href="#bq" x="782.1" y="30.982"/><g fill="#7030a0"><use xlink:href="#bs" x="788.611" y="30.693"/><use xlink:href="#bt" x="801.11" y="30.693"/><use xlink:href="#bu" x="813.849" y="30.693"/></g><path fill="none" stroke="#7030a0" stroke-miterlimit="10" stroke-width=".5890860000000001" d="M795.14 30.847q-5.001 0-5-4.78v-1.83q-.001-4.717 5-4.718c.938 0 1.758.153 2.47.453a4.1 4.1 0 0 1 1.718 1.297l-.86.797a4.4 4.4 0 0 0-1.484-1.062 4.4 4.4 0 0 0-1.812-.375c-2.555 0-3.828 1.203-3.828 3.609v1.828c0 2.45 1.273 3.672 3.828 3.672.676 0 1.3-.117 1.875-.36a4.1 4.1 0 0 0 1.5-1.046l.781.781a4 4 0 0 1-1.734 1.297c-.719.289-1.54.437-2.453.437Zm11.954-11.328q2.168 0 3.36 1.078 1.201 1.066 1.202 3.016v7.078h-1.203v-1.437q-.44.75-1.484 1.171a6.1 6.1 0 0 1-2.297.422q-2.032 0-3.156-.89c-.743-.594-1.11-1.43-1.11-2.516 0-1.031.336-1.832 1.016-2.406.687-.57 1.644-.86 2.875-.86h4.156v-.468q0-1.466-.89-2.282-.877-.826-2.47-.828-.937 0-1.78.282a4.3 4.3 0 0 0-1.47.843l-.874-.61q.655-.76 1.734-1.17 1.079-.423 2.39-.423Zm-.188 10.188c1.125 0 1.992-.211 2.61-.64q.937-.639.937-1.798v-1.984h-4.14q-1.284 0-2.016.562-.72.563-.719 1.594-.001 1.079.875 1.672.873.596 2.453.594Zm10.38-2.157q0 1.033.327 1.563.33.532.938.531h.937v1.047h-1.172q-1.111 0-1.718-.812c-.399-.54-.594-1.32-.594-2.344V13.988h1.281Zm0 0"/><use xlink:href="#bu" x="820.852" y="30.693" fill="#7030a0"/><path fill="none" stroke="#7030a0" stroke-miterlimit="10" stroke-width=".5890860000000001" d="M824.29 27.55q0 1.033.327 1.563.328.532.938.531h.937v1.047h-1.172c-.742 0-1.312-.27-1.718-.812-.399-.54-.594-1.32-.594-2.344V13.988h1.281Zm0 0"/><g fill="#0070c0"><use xlink:href="#bv" x="834.361" y="30.693"/><use xlink:href="#bw" x="841.985" y="30.693"/></g><path fill="none" stroke="#0070c0" stroke-miterlimit="10" stroke-width=".5890860000000001" d="M839.531 15.035q-.83 0-1.281.547-.438.532-.437 1.547v2.546h3.093v1h-3.093v10.016h-1.22V20.675h-1.296v-1h1.297v-2.53q0-1.548.703-2.345.703-.81 2.062-.812h1.547v1.047Zm8.766 15.812q-1.517 0-2.594-.562a3.8 3.8 0 0 1-1.625-1.64q-.562-1.078-.562-2.595v-1.796q0-1.482.562-2.547a3.7 3.7 0 0 1 1.625-1.625q1.077-.563 2.594-.563 1.5 0 2.578.563a3.7 3.7 0 0 1 1.64 1.625q.563 1.064.563 2.547v1.828q0 1.5-.562 2.578a3.8 3.8 0 0 1-1.641 1.625q-1.078.562-2.578.562Zm-.016-1.109c1.133 0 2.016-.32 2.64-.969q.938-.965.938-2.687v-1.828q0-1.7-.937-2.657c-.625-.644-1.508-.968-2.64-.968q-1.688.002-2.626.953-.937.954-.937 2.672v1.828q0 1.721.937 2.687c.625.649 1.5.969 2.625.969Zm0 0"/><use xlink:href="#bw" x="855.106" y="30.693" fill="#0070c0"/><path fill="none" stroke="#0070c0" stroke-miterlimit="10" stroke-width=".5890860000000001" d="M861.418 30.847q-1.517 0-2.594-.562a3.8 3.8 0 0 1-1.625-1.64q-.562-1.078-.562-2.595v-1.796q0-1.482.562-2.547a3.7 3.7 0 0 1 1.625-1.625q1.077-.563 2.594-.563 1.5 0 2.578.563a3.7 3.7 0 0 1 1.64 1.625q.563 1.064.563 2.547v1.828q0 1.5-.562 2.578a3.8 3.8 0 0 1-1.64 1.625q-1.08.562-2.579.562Zm-.016-1.109c1.133 0 2.016-.32 2.641-.969q.937-.965.937-2.687v-1.828q0-1.7-.937-2.657c-.625-.644-1.508-.968-2.64-.968q-1.688.002-2.626.953-.937.954-.937 2.672v1.828q0 1.721.937 2.687c.625.649 1.5.969 2.625.969Zm0 0"/><use xlink:href="#bx" x="868.236" y="30.982"/><path fill="#0070c0" fill-rule="evenodd" d="M834.309 32.492h34.035v-.656h-34.035Zm0 0"/></svg>