<svg xmlns="http://www.w3.org/2000/svg" xml:space="preserve" width="3891" height="1572" overflow="hidden"><defs><clipPath id="a"><path d="M279 779h3891v1572H279z"/></clipPath><clipPath id="b"><path d="M279 779h3891v1572H279z"/></clipPath></defs><g clip-path="url(#a)" transform="translate(-279 -779)"><g clip-path="url(#b)"><path fill="none" stroke="#d9d9d9" stroke-linejoin="round" stroke-miterlimit="10" stroke-width="3.438" d="M449.5 1873.56h3669m-3669-103h3669m-3669-103.01h3669m-3669-102h3669m-3669-103h3669m-3669-103.01h3669m-3669-103h3669m-3669-102h3669m-3669-103.01h3669M449.5 948.5h3669"/><path fill="#1973eb" d="M473.016 1462.05h21V1976h-21Zm122.004 0h21V1976h-21Zm122.003 0h22.001V1976h-22.001Zm123.005 0h21V1976h-21Zm122.004 0h21V1976h-21Zm122.008 0h21V1976h-21Zm122 0h22V1976h-22Zm123 0h21V1976h-21Zm122.01 0h21V1976h-21Zm122 0h22V1976h-22Zm123.01 0h21V1976h-21Zm122 0h21V1976h-21Zm122 0h22V1976h-22Zm123.01 0h21V1976h-21Zm122 0h21V1976h-21Zm122.01 0h22V1976h-22Zm123 0h21V1976h-21Zm122 0h21V1976h-21Zm122.01 0h21V1976h-21Zm122 0h22V1976h-22Zm123.01 0h21V1976h-21Zm122 0h21V1976h-21Zm122 0h22V1976h-22Zm123.01 0h21V1976h-21Zm122 0h21V1976h-21Zm122.01 0h22V1976h-22Zm123 0h21V1976h-21Zm122 0h21V1976h-21Zm122.01 0h22V1976h-22Zm123 0h21V1976h-21Z"/><path fill="#25c8a2" d="M500.016 1450.05h21.001V1976h-21.001Zm122.004-9h21.001V1976H622.02Zm122.004 21h22.001V1976h-22.001Zm123.004 1h21.001V1976h-21.001Zm122.004-23h20.998V1976h-20.998Zm122.008-136.01h22V1976h-22Zm123 152.01h21V1976h-21Zm122 8h21.01V1976h-21.01Zm122.01-13h22V1976h-22Zm122 11h22V1976h-22Zm123.01-3h21V1976h-21Zm122 0h21V1976h-21Zm122 6h22.01V1976h-22.01Zm123.01-29h21V1976h-21Zm122 20h21V1976h-21Zm122.01 10h22V1976h-22Zm123 6h21V1976h-21Zm122-7h21.01V1976h-21.01Zm122.01 102h22V1976h-22Zm123-108h21V1976h-21Zm122.01-18h21V1976h-21Zm122 25h22V1976h-22Zm122-10h22.01V1976h-22.01Zm123.01-2h21V1976h-21Zm122-27h21V1976h-21Zm122.01 32h22V1976h-22Zm123 4h21V1976h-21Zm122 75h21.01V1976h-21.01Zm122.01-76h22V1976h-22Zm123-3h21V1976h-21Z"/><path fill="#bf8ed1" d="M527.017 1454.05h21.001V1976h-21.001Zm122.004-5h21.001V1976h-21.001Zm122.004 4h22.001V1976h-22.001Zm123.004 8h21.001V1976h-21.001Zm122.001 2h21V1976h-21Zm122.01-421.02h22V1976h-22Zm123 412.02h21V1976h-21Zm122.01 7h21V1976h-21Zm122-12h22V1976h-22Zm123 17h21V1976h-21Zm122.01-5h21V1976h-21Zm122 38h22V1976h-22Zm123.01-31h21V1976h-21Zm122-18h21V1976h-21Zm122 11h21V1976h-21Zm122.01-32h22V1976h-22Zm123 36h21V1976h-21Zm122.01 21h21V1976h-21Zm122 57h22V1976h-22Zm123-84h21V1976h-21Zm122.01 6h21V1976h-21Zm122 28h22V1976h-22Zm123.01-34h21V1976h-21Zm122 52h21V1976h-21Zm122 167.01h22V1976h-22Zm123.01-201.01h21V1976h-21Zm122-11h21V1976h-21Zm122.01-53h21V1976h-21Zm122-32h22V1976h-22Zm123 82h21V1976h-21Z"/><path fill="none" stroke="#d9d9d9" stroke-linejoin="round" stroke-miterlimit="10" stroke-width="3.438" d="M449.5 1976.5h3669"/><text fill="#595959" font-family="Grandview Display,Grandview Display_MSFontService,sans-serif" font-size="41" font-weight="400" transform="translate(395.777 1988)">0</text><text fill="#595959" font-family="Grandview Display,Grandview Display_MSFontService,sans-serif" font-size="41" font-weight="400" transform="translate(364.472 1885)">0.2</text><text fill="#595959" font-family="Grandview Display,Grandview Display_MSFontService,sans-serif" font-size="41" font-weight="400" transform="translate(364.472 1782)">0.4</text><text fill="#595959" font-family="Grandview Display,Grandview Display_MSFontService,sans-serif" font-size="41" font-weight="400" transform="translate(364.472 1679)">0.6</text><text fill="#595959" font-family="Grandview Display,Grandview Display_MSFontService,sans-serif" font-size="41" font-weight="400" transform="translate(364.472 1577)">0.8</text><text fill="#595959" font-family="Grandview Display,Grandview Display_MSFontService,sans-serif" font-size="41" font-weight="400" transform="translate(395.777 1474)">1</text><text fill="#595959" font-family="Grandview Display,Grandview Display_MSFontService,sans-serif" font-size="41" font-weight="400" transform="translate(364.472 1371)">1.2</text><text fill="#595959" font-family="Grandview Display,Grandview Display_MSFontService,sans-serif" font-size="41" font-weight="400" transform="translate(364.472 1268)">1.4</text><text fill="#595959" font-family="Grandview Display,Grandview Display_MSFontService,sans-serif" font-size="41" font-weight="400" transform="translate(364.472 1166)">1.6</text><text fill="#595959" font-family="Grandview Display,Grandview Display_MSFontService,sans-serif" font-size="41" font-weight="400" transform="translate(364.472 1063)">1.8</text><text fill="#595959" font-family="Grandview Display,Grandview Display_MSFontService,sans-serif" font-size="41" font-weight="400" transform="translate(395.777 960)">2</text><text fill="#595959" font-family="Grandview Display,Grandview Display_MSFontService,sans-serif" font-size="41" font-weight="400" transform="rotate(-45 2826.559 690.768)">400.perlbench</text><text fill="#595959" font-family="Grandview Display,Grandview Display_MSFontService,sans-serif" font-size="41" font-weight="400" transform="rotate(-45 2846.06 442.25)">401.bzip2</text><text fill="#595959" font-family="Grandview Display,Grandview Display_MSFontService,sans-serif" font-size="41" font-weight="400" transform="rotate(-45 2890.924 255.41)">403.gcc</text><text fill="#595959" font-family="Grandview Display,Grandview Display_MSFontService,sans-serif" font-size="41" font-weight="400" transform="rotate(-45 2954.073 113.198)">429.mcf</text><text fill="#595959" font-family="Grandview Display,Grandview Display_MSFontService,sans-serif" font-size="41" font-weight="400" transform="rotate(-45 3041.256 29.047)">445.gobmk</text><text fill="#595959" font-family="Grandview Display,Grandview Display_MSFontService,sans-serif" font-size="41" font-weight="400" transform="rotate(-45 3107.628 -107.292)">456.hmmer</text><text fill="#595959" font-family="Grandview Display,Grandview Display_MSFontService,sans-serif" font-size="41" font-weight="400" transform="rotate(-45 3151.683 -295.59)">458.sjeng</text><text fill="#595959" font-family="Grandview Display,Grandview Display_MSFontService,sans-serif" font-size="41" font-weight="400" transform="rotate(-45 3264.287 -318.202)">462.libquantum</text><text fill="#595959" font-family="Grandview Display,Grandview Display_MSFontService,sans-serif" font-size="41" font-weight="400" transform="rotate(-45 3295.12 -539.454)">464.h264ref</text><text fill="#595959" font-family="Grandview Display,Grandview Display_MSFontService,sans-serif" font-size="41" font-weight="400" transform="rotate(-45 3364.686 -666.429)">471.omnetpp</text><text fill="#595959" font-family="Grandview Display,Grandview Display_MSFontService,sans-serif" font-size="41" font-weight="400" transform="rotate(-45 3395.114 -890.112)">473.astar</text><text fill="#595959" font-family="Grandview Display,Grandview Display_MSFontService,sans-serif" font-size="41" font-weight="400" transform="rotate(-45 3507.23 -914.962)">483.xalancbmk</text><text fill="#595959" font-family="Grandview Display,Grandview Display_MSFontService,sans-serif" font-size="41" font-weight="400" transform="rotate(-45 3538.342 -1133.47)">410.bwaves</text><text fill="#595959" font-family="Grandview Display,Grandview Display_MSFontService,sans-serif" font-size="41" font-weight="400" transform="rotate(-45 3601.718 -1276.23)">416.gamess</text><text fill="#595959" font-family="Grandview Display,Grandview Display_MSFontService,sans-serif" font-size="41" font-weight="400" transform="rotate(-45 3631.92 -1499.37)">433.milc</text><text fill="#595959" font-family="Grandview Display,Grandview Display_MSFontService,sans-serif" font-size="41" font-weight="400" transform="rotate(-45 3723.953 -1571.332)">434.zeusmp</text><text fill="#595959" font-family="Grandview Display,Grandview Display_MSFontService,sans-serif" font-size="41" font-weight="400" transform="rotate(-45 3793.543 -1698.367)">435.gromacs</text><text fill="#595959" font-family="Grandview Display,Grandview Display_MSFontService,sans-serif" font-size="41" font-weight="400" transform="rotate(-45 3879.115 -1788.872)">436.cactusADM</text><text fill="#595959" font-family="Grandview Display,Grandview Display_MSFontService,sans-serif" font-size="41" font-weight="400" transform="rotate(-45 3907.583 -2014.654)">437.leslie3d</text><text fill="#595959" font-family="Grandview Display,Grandview Display_MSFontService,sans-serif" font-size="41" font-weight="400" transform="rotate(-45 3949.074 -2210.42)">444.namd</text><text fill="#595959" font-family="Grandview Display,Grandview Display_MSFontService,sans-serif" font-size="41" font-weight="400" transform="rotate(-45 4008.385 -2360.437)">447.dealII</text><text fill="#595959" font-family="Grandview Display,Grandview Display_MSFontService,sans-serif" font-size="41" font-weight="400" transform="rotate(-45 4079.684 -2484.77)">450.soplex</text><text fill="#595959" font-family="Grandview Display,Grandview Display_MSFontService,sans-serif" font-size="41" font-weight="400" transform="rotate(-45 4142.059 -2628.527)">453.povray</text><text fill="#595959" font-family="Grandview Display,Grandview Display_MSFontService,sans-serif" font-size="41" font-weight="400" transform="rotate(-45 4212.606 -2754.459)">454.calculix</text><text fill="#595959" font-family="Grandview Display,Grandview Display_MSFontService,sans-serif" font-size="41" font-weight="400" transform="rotate(-45 4304.919 -2827.096)">459.GemsFDTD</text><text fill="#595959" font-family="Grandview Display,Grandview Display_MSFontService,sans-serif" font-size="41" font-weight="400" transform="rotate(-45 4311.746 -3106.474)">465.tonto</text><text fill="#595959" font-family="Grandview Display,Grandview Display_MSFontService,sans-serif" font-size="41" font-weight="400" transform="rotate(-45 4360.746 -3282.81)">470.lbm</text><text fill="#595959" font-family="Grandview Display,Grandview Display_MSFontService,sans-serif" font-size="41" font-weight="400" transform="rotate(-45 4418.365 -3438.987)">481.wrf</text><text fill="#595959" font-family="Grandview Display,Grandview Display_MSFontService,sans-serif" font-size="41" font-weight="400" transform="rotate(-45 4518.998 -3490.74)">482.sphinx3</text><text fill="#595959" font-family="Grandview Display,Grandview Display_MSFontService,sans-serif" font-size="41" font-weight="400" transform="rotate(-45 4568.317 -3667.849)">GEOMEAN</text><text fill="#595959" font-family="Grandview Display,Grandview Display_MSFontService,sans-serif" font-size="64" font-weight="700" transform="translate(1531.23 878)">SPECCPU 2006 on</text><text fill="#595959" font-family="Grandview Display,Grandview Display_MSFontService,sans-serif" font-size="64" font-weight="700" transform="translate(2118.13 878)">Spacemit</text><text fill="#595959" font-family="Grandview Display,Grandview Display_MSFontService,sans-serif" font-size="64" font-weight="700" transform="translate(2406.88 878)">X60 with GCC15.0</text><path fill="#1973eb" d="M1923 2279h18v19h-18z"/><text fill="#595959" font-family="Grandview Display,Grandview Display_MSFontService,sans-serif" font-size="41" font-weight="400" transform="translate(1948.83 2300)">gc</text><path fill="#25c8a2" d="M2031 2279h18v19h-18z"/><text fill="#595959" font-family="Grandview Display,Grandview Display_MSFontService,sans-serif" font-size="41" font-weight="400" transform="translate(2056.83 2300)">gc_zba_zbb</text><path fill="#bf8ed1" d="M2300 2279h18v19h-18z"/><text fill="#595959" font-family="Grandview Display,Grandview Display_MSFontService,sans-serif" font-size="41" font-weight="400" transform="translate(2326.01 2300)">gcbv_zicond</text></g></g></svg>