<svg xmlns="http://www.w3.org/2000/svg" xmlns:xlink="http://www.w3.org/1999/xlink" width="1128" height="376" viewBox="0 0 846 282"><defs><path id="b" d="M2.375.063c-.562 0-.992-.149-1.281-.454Q.655-.84.656-1.656V-4.72q0-.808.438-1.265.435-.452 1.281-.453.856 0 1.297.453.435.456.437 1.265v3.063q0 .83-.453 1.281-.439.439-1.281.438m0-.407c.438 0 .758-.11.969-.328q.311-.34.312-.984V-4.72c0-.875-.43-1.312-1.281-1.312q-1.266 0-1.266 1.312v3.063q-.002.645.313.984.31.328.953.328m0 0"/><path id="c" d="M1.281 0H.75v-.531h.531Zm0 0"/><path id="d" d="M.563 0v-.328l2.671-3.219q.247-.292.375-.61a1.7 1.7 0 0 0 .125-.609v-.015q0-.577-.359-.907-.347-.328-.969-.328c-.418 0-.758.118-1.015.344q-.377.346-.453.984H.484q.123-.824.625-1.28.497-.453 1.282-.454c.57 0 1.015.149 1.328.438q.468.42.469 1.218-.002.365-.172.75a2.7 2.7 0 0 1-.485.766L1.141-.406h3.14V0Zm0 0"/><path id="e" d="M3.719-1.375h.61v.406h-.61V0H3.28v-.969H.563v-.36l2.062-5.03h.484L1.063-1.375H3.28v-2.36h.438Zm0 0"/><path id="f" d="M2.438-3.766q.544 0 .953.235.403.222.625.656c.144.281.218.617.218 1v.016q-.001.61-.218 1.047-.221.438-.641.671-.422.219-1.016.22-.578-.001-1-.22a1.56 1.56 0 0 1-.625-.656Q.531-1.232.531-1.844q-.001-.422.11-.89c.07-.313.18-.602.328-.875l1.5-2.735h.484l-1.61 2.938q.404-.36 1.095-.36m1.359 1.97c0-.49-.133-.868-.39-1.141q-.375-.406-1.079-.407-.691.001-1.031.406-.328.392-.328 1.141v.016c0 .46.117.812.36 1.062q.375.375 1.03.375.687 0 1.063-.375.375-.387.375-1.078m0 0"/><path id="g" d="M2.375.063q-.564 0-.969-.188a1.45 1.45 0 0 1-.61-.578q-.203-.388-.202-.922v-.062q-.001-.56.25-.97.246-.42.703-.609a1.27 1.27 0 0 1-.61-.546 1.7 1.7 0 0 1-.218-.86v-.062q-.001-.797.437-1.235.435-.452 1.219-.453.796 0 1.234.453.437.438.438 1.235v.062q0 .486-.219.86-.222.376-.61.546.453.188.704.61c.164.273.25.594.25.969v.062q0 .534-.219.922-.205.377-.61.578-.393.188-.968.188m0-3.5q.591 0 .906-.329.328-.325.328-.921v-.063q0-.61-.328-.937-.314-.33-.906-.329c-.387 0-.687.118-.906.344q-.315.329-.313.922v.063q-.002.595.313.921.327.33.906.329m0 3.093q.639.001.984-.343.36-.34.36-.985v-.016q0-.638-.36-.984-.345-.359-.984-.36-.627.002-.984.36-.344.345-.344.985v.03q-.001.629.344.97.357.344.984.343m0 0"/><path id="h" d="M2.875-6.36v5.954h1.406V0H.906v-.406h1.531V-5.97L.984-5.03v-.485l1.235-.843Zm0 0"/><path id="aF" d="M3.531-4.187H4v4.062q0 .95-.469 1.453c-.312.332-.773.5-1.375.5q-.456 0-.844-.172a1.6 1.6 0 0 1-.64-.5L1 .875q.216.265.531.406.312.14.64.14.67 0 1.017-.374.341-.377.343-1.094v-.656q-.158.364-.515.562a1.6 1.6 0 0 1-.813.204c-.344 0-.64-.07-.89-.22A1.44 1.44 0 0 1 .75-.78q-.187-.405-.187-.985v-.64q0-.873.421-1.36.422-.482 1.188-.484.434 0 .781.188c.238.117.43.296.578.546ZM2.297-.312q.356.001.625-.157.264-.169.422-.437A1.6 1.6 0 0 0 3.53-1.5v-1.203a1.5 1.5 0 0 0-.187-.578 1.2 1.2 0 0 0-.422-.422 1.15 1.15 0 0 0-.625-.172c-.406 0-.727.133-.953.39q-.328.393-.328 1.079v.64q0 .691.328 1.079c.226.25.547.375.953.375m0 0"/><path id="aG" d="M2.438.063Q.563.063.562-1.766v-.687c0-1.195.626-1.797 1.876-1.797q.514.001.906.172.405.173.656.5l-.328.297a1.6 1.6 0 0 0-.547-.406 1.6 1.6 0 0 0-.672-.141q-1.438.001-1.437 1.375v.687c0 .938.476 1.407 1.437 1.407q.373 0 .688-.141.327-.14.562-.39L4-.595q-.252.315-.656.485a2.3 2.3 0 0 1-.906.172m0 0"/><path id="aH" d="M.14.5V.094h3.641V.5Zm0 0"/><path id="aI" d="M.625-4.187h3.031v.343L1.141-.406h2.625V0H.563v-.36L3.125-3.78h-2.5Zm0 0"/><path id="aJ" d="M2.547-4.25q.498 0 .844.219.358.203.547.625.186.423.187 1v.64q-.002.58-.203.985-.189.409-.547.625-.361.22-.875.219-.503 0-.86-.204a1.1 1.1 0 0 1-.484-.578V0H.703v-6.36h.453v2.876a1.23 1.23 0 0 1 .547-.578q.358-.188.844-.188m1.125 1.844q-.002-.686-.344-1.078-.328-.389-.937-.391-.376.001-.657.172a1.06 1.06 0 0 0-.437.469q-.14.3-.14.687v.89q0 .393.14.704c.101.2.25.355.437.469q.282.174.657.172.609 0 .937-.375.342-.387.344-1.079Zm0 0"/><path id="aK" d="M2.234-4.25q.81.001 1.25.406c.301.274.454.656.454 1.156V0h-.454v-.547q-.159.283-.546.453a2.4 2.4 0 0 1-.86.157q-.767 0-1.187-.344C.617-.508.484-.828.484-1.234q0-.593.375-.922.387-.328 1.079-.328h1.546v-.172q0-.56-.328-.875-.329-.312-.922-.313c-.23 0-.449.04-.656.11q-.316.113-.562.312L.688-3.64q.246-.293.656-.453c.27-.101.566-.156.89-.156M2.156-.375q.639 0 .985-.234a.8.8 0 0 0 .343-.688v-.75H1.938q-.487 0-.75.219c-.18.137-.266.336-.266.594q0 .408.328.64c.219.149.52.219.906.219m0 0"/><path id="aL" d="M.703-4.187 2.172-.578l1.469-3.61h.484L2.359 0h-.375L.22-4.187Zm0 0"/><path id="aM" d="M1.375-5.531H.922v-.438h.453Zm0 5.531H.922v-4.187h.453Zm0 0"/><path id="aN" d="M2.36.063c-.387 0-.715-.07-.985-.22a1.5 1.5 0 0 1-.61-.624q-.203-.405-.202-.985v-.687c0-.375.066-.695.203-.969q.216-.405.609-.61.405-.217.984-.218.562 0 .954.219.404.205.609.61c.144.273.219.593.219.968v.703q-.001.564-.22.969-.204.409-.608.625-.392.22-.954.219M2.343-.36q.639.001.984-.36.359-.375.36-1.031v-.703q-.002-.638-.36-1-.345-.375-.984-.375-.627 0-.985.36-.344.36-.343 1.015v.703q-.001.657.343 1.031.358.362.985.36m0 0"/><path id="aO" d="M2.563-4.25c.507 0 .906.152 1.187.453q.422.44.422 1.25V0h-.453v-2.547q-.002-.61-.344-.937-.344-.342-.953-.344-.61 0-.938.312-.327.299-.328.844V0H.703v-4.187h.453v.64q.186-.356.547-.531.374-.17.86-.172m0 0"/><path id="aP" d="M3.547-6.36H4V0h-.453v-.719a1.22 1.22 0 0 1-.531.578 1.6 1.6 0 0 1-.813.204c-.344 0-.64-.07-.89-.22A1.44 1.44 0 0 1 .75-.78q-.187-.405-.187-.985v-.64q0-.873.421-1.36.422-.482 1.188-.484.919 0 1.375.75ZM2.297-.311q.375 0 .656-.188c.195-.133.344-.305.438-.516.101-.207.156-.421.156-.64v-.89c0-.227-.055-.442-.156-.642a1.17 1.17 0 0 0-.422-.5 1.2 1.2 0 0 0-.672-.187c-.406 0-.727.133-.953.39q-.328.393-.328 1.079v.64q0 .691.328 1.079c.226.25.547.375.953.375m0 0"/><path id="aQ" d="M2.578-4.25q.64 0 1.031.328l-.28.375q-.33-.28-.892-.281-.61 0-.953.312-.327.315-.328.86V0H.703v-4.187h.453v.656q.216-.357.578-.531.358-.188.844-.188m0 0"/><path id="aR" d="M2.547-4.25q.498 0 .844.219.358.203.547.625.186.423.187 1v.64q-.002.58-.203.985-.189.409-.547.625-.361.22-.875.219-.486 0-.844-.204a1.17 1.17 0 0 1-.5-.546v2.39H.703v-5.89h.453v.687q.2-.387.547-.562.358-.188.844-.188m1.125 1.844q-.002-.686-.344-1.078-.328-.389-.937-.391-.533 0-.86.313t-.375.828v1.265q.048.534.375.844.327.314.86.313.609 0 .937-.375.342-.387.344-1.079Zm0 0"/><path id="i" d="m1.656-3.594.438-.437.281.281-.437.438.687.687-.312.313L1.625-3-.297-1.078l-.25-.25L-2.64-6.36l.344-.344L-.219-1.72 1.344-3.28-.328-4.953l.312-.313Zm0 0"/><path id="j" d="M1.719-1.625Q1.12-1.028.5-1.047c-.418-.008-.816-.207-1.203-.594l-2.172-2.171Q-3.436-4.374-3.453-5q-.013-.62.578-1.219.61-.607 1.25-.593.626 0 1.188.562l2.171 2.172q.593.598.594 1.219 0 .626-.61 1.234m-.297-.297c.312-.312.46-.617.453-.922q-.018-.45-.469-.906L-.766-5.922q-.92-.918-1.828-.016-.89.892.031 1.813L-.39-1.953c.305.305.602.46.907.469q.45.018.906-.438m0 0"/><path id="k" d="m.906-.906-.375.375-.375-.375.375-.375Zm0 0"/><path id="l" d="M-1.203-4.797q.362-.358.766-.453.39-.106.812.063.434.157.844.562l.453.453q.406.41.547.844.152.421.047.844-.095.409-.453.765-.347.346-.75.453a1.23 1.23 0 0 1-.735-.03L2.016.39l-.313.312-4.172-4.172.313-.312.5.5a1.3 1.3 0 0 1 0-.797q.112-.374.453-.719m2.094.5q-.487-.48-.985-.516-.514-.044-.953.391-.374.376-.39.828c-.008.305.093.586.312.844l.906.906q.404.345.86.328c.3-.007.578-.14.828-.39.289-.29.422-.602.39-.938q-.035-.515-.515-1Zm0 0"/><path id="m" d="M1.547-4.234-.641-2.047l.079.078q.466.47 1.015.469c.363 0 .711-.164 1.047-.5a1.4 1.4 0 0 0 .344-.547q.105-.31.093-.61l.407.032q.059.315-.094.719a1.9 1.9 0 0 1-.453.703q-.44.438-.89.578A1.56 1.56 0 0 1 0-1.109q-.469-.141-.89-.563l-.344-.344q-.436-.435-.594-.906a1.44 1.44 0 0 1-.016-.906q.128-.45.532-.86c.25-.25.523-.414.812-.5.293-.082.582-.066.875.047q.435.176.875.61Zm-2.563-.157c-.312.313-.46.649-.453 1q.017.533.532 1.047l.015.016 1.89-1.89-.077-.079q-.47-.466-.97-.5-.497-.029-.937.406m0 0"/><path id="n" d="M-1.172-4.828q.456-.45.953-.484l.063.437q-.42.048-.828.453-.421.422-.438.89-.029.458.36.845L.813-.813.5-.5l-2.969-2.969.313-.312.469.469a1.33 1.33 0 0 1 .046-.782 1.9 1.9 0 0 1 .47-.734m0 0"/><path id="o" d="M.063-1.75c.187.188.351.305.5.344a.4.4 0 0 0 .39-.11l.25-.25.281.282-.296.297q-.3.297-.688.25-.373-.06-.781-.47l-3.656-3.655.343-.344Zm0 0"/><path id="p" d="M-1.203-4.797q.362-.358.766-.453.39-.106.812.063.434.157.844.562l.453.453q.406.41.547.844.152.421.047.844-.095.409-.453.765-.347.346-.75.453a1.2 1.2 0 0 1-.766-.062l.516.516L.5-.5-4-5l.313-.312 2.03 2.03a1.27 1.27 0 0 1 0-.78q.113-.388.454-.735m2.094.5q-.487-.48-.985-.516-.514-.044-.953.391-.263.269-.344.578c-.062.2-.054.406.016.625q.11.328.39.61l.626.625c.187.187.382.32.593.39.22.063.43.074.641.032a1.2 1.2 0 0 0 .594-.344c.289-.29.422-.602.39-.938q-.035-.515-.515-1Zm0 0"/><path id="q" d="M-1.187-4.812q.549-.545 1.156-.532.608.019 1.187.594l1.797 1.797-.328.328L.828-4.422c-.293-.289-.598-.43-.906-.422-.32 0-.625.14-.906.422q-.436.44-.453.89-.029.441.359.829l1.89 1.89L.5-.5l-2.969-2.969.313-.312.453.453a1.22 1.22 0 0 1 .031-.766c.094-.25.258-.488.484-.718m0 0"/><path id="r" d="M1.766-1.672Q.436-.34-.86-1.64l-.485-.484q-1.263-1.265.063-2.594.375-.374.781-.531c.262-.113.523-.148.797-.11l-.016.454c-.242-.032-.46 0-.672.093q-.326.129-.578.375-1.014 1.019-.047 1.985l.485.484q.996 1.003 2.015-.015.263-.265.391-.594.124-.328.125-.672h.406q.045.392-.11.797a2.3 2.3 0 0 1-.53.781m0 0"/><path id="s" d="M-1.187-4.812q.362-.358.765-.47c.274-.07.547-.05.828.063q.434.159.844.563l1.703 1.703-.328.328L.922-4.328q-.485-.48-1-.516-.516-.03-.938.39-.434.441-.421.923 0 .468.453.922L.813-.812.5-.5-4-5l.313-.312 2.062 2.062a1.3 1.3 0 0 1-.016-.812q.113-.405.454-.75m0 0"/><path id="t" d="M-2.469-6.531 1.75-2.312l1-1 .281.28L.641-.64.359-.92 1.438-2-2.5-5.937l-.36 1.671-.343-.343.265-1.453Zm0 0"/><path id="u" d="m-2.531-3.406 2.14-2.14.25.25.672 4.202 1.844-1.843.281.28L.391-.39.14-.64l-.61-4.234-1.765 1.766Zm0 0"/><path id="v" d="m-2.937-4.875-.313.313-.312-.313.312-.312ZM.969-.969l-.313.313-2.968-2.969.312-.312Zm0 0"/><path id="w" d="M.39-.39.157-.626l-.39-4.172a1.9 1.9 0 0 0-.141-.687 1.8 1.8 0 0 0-.36-.532q-.42-.42-.89-.39-.481.018-.922.453-.433.439-.469.953-.029.516.36 1.031l-.313.313q-.498-.685-.469-1.36.034-.668.579-1.218c.406-.407.824-.618 1.25-.641.43-.02.828.156 1.203.531q.27.27.422.657.152.392.187.89l.328 3.703L2.75-3.312l.281.28Zm0 0"/><path id="x" d="M1.688-1.594q-.563.564-1.22.625-.656.065-1.265-.39l.313-.313c.304.219.617.309.953.266q.499-.061.922-.485.467-.466.484-.968.013-.497-.437-.953l-.079-.079q-.44-.434-.937-.421-.485 0-.953.468l-.313.313-.297-.297.313-.313q.44-.434.453-.875 0-.451-.422-.875l-.062-.062a1.3 1.3 0 0 0-.563-.344 1.06 1.06 0 0 0-.594.016 1.45 1.45 0 0 0-.562.36q-.389.39-.438.859-.046.469.235.968l-.297.297q-.434-.622-.375-1.25.048-.638.578-1.172.361-.356.781-.484.41-.14.813-.016a1.7 1.7 0 0 1 .734.453l.078.079c.242.242.39.507.453.796q.077.424-.156.875c.277-.195.582-.265.906-.203q.498.082.938.516l.094.094q.386.39.5.812c.07.281.062.57-.032.86-.086.28-.265.562-.546.843m0 0"/><path id="y" d="m-.469-5.469.328-.328 2.875 2.875q.669.674.704 1.36.029.69-.61 1.328a1.9 1.9 0 0 1-.734.468q-.391.155-.813.11l.047-.422q.34.035.656-.094.312-.124.547-.36.482-.48.453-.984-.017-.514-.515-1.015L2-3q.14.362.031.766a1.6 1.6 0 0 1-.422.718q-.375.377-.796.485a1.5 1.5 0 0 1-.829-.047q-.433-.153-.843-.563l-.453-.453c-.407-.406-.618-.82-.641-1.25-.031-.437.133-.832.484-1.187A1.8 1.8 0 0 1-.78-4.97q.375-.122.797-.015Zm1.875 3.625a1.1 1.1 0 0 0 .313-.547Q1.796-2.7 1.703-3a1.6 1.6 0 0 0-.266-.562l-.843-.844a1.6 1.6 0 0 0-.563-.266 1.06 1.06 0 0 0-.593-.016 1.3 1.3 0 0 0-.547.329q-.436.438-.391.953.034.504.516.984l.453.453c.324.324.648.5.984.532q.515.033.953-.407m0 0"/><path id="z" d="M-2.86-6.234c.274-.27.563-.446.876-.532q.454-.138.922.016c.304.094.593.281.875.563q.31.315.562.718.247.41.375.844l.86 3.016-.344.343L.344-4.5c-.031.367-.211.71-.531 1.031-.27.274-.551.453-.844.547a1.32 1.32 0 0 1-.875-.015 2.5 2.5 0 0 1-.875-.594q-.437-.435-.578-.89a1.6 1.6 0 0 1-.032-.923q.11-.469.532-.89m2.329.328q-.499-.499-1.016-.5-.527-.012-1.016.468-.48.489-.468 1.016.017.534.515 1.031.517.518 1.063.532.55.018 1.047-.485.486-.482.437-1C.008-5.195-.176-5.55-.53-5.906m0 0"/><path id="A" d="M.688-6.687q.546-.545 1.156-.532c.414 0 .816.196 1.203.578l1.797 1.797-.328.328-1.797-1.796q-.439-.437-.906-.438c-.305-.008-.594.125-.875.406Q.546-5.95.547-5.5q.014.438.437.86l1.829 1.827-.297.297L.719-4.312q-.44-.436-.89-.454-.452-.01-.845.375-.42.424-.437.86-.013.44.39.844L.813-.813.5-.5l-2.969-2.969.313-.312.437.437q-.17-.762.469-1.406.362-.358.766-.453c.273-.063.55-.031.843.094C.234-5.4.195-5.676.25-5.937q.093-.405.438-.75m0 0"/><path id="B" d="M-2.844-5.562a.56.56 0 0 0-.172.468q.017.251.297.532l.672.671.797-.796.266.265-.797.797L.922-.922l-.344.344-2.703-2.703-.328.328-.266-.266.328-.328-.671-.672c-.282-.281-.426-.554-.438-.828q-.029-.42.313-.766l.406-.406.297.297Zm0 0"/><path id="C" d="M1.719-1.625q-.516.517-1.125.547c-.399.012-.797-.145-1.203-.469l.312-.312c.293.23.586.34.89.328q.454-.014.829-.39.435-.436.406-.923-.018-.497-.469-.953l-.64-.64q-.44-.437-.89-.485-.453-.047-.829.328-.28.282-.344.703-.077.41.063.922l-.282.281-2.375-2.374 2.204-2.204.297.297-1.891 1.89 1.625 1.626q-.075-.42.047-.781.111-.373.375-.641.532-.529 1.14-.5.609.035 1.188.61l.64.64q.406.408.547.828.141.423 0 .86a2 2 0 0 1-.515.812m0 0"/><path id="D" d="M1.719-1.625q-.41.41-.844.531a1.5 1.5 0 0 1-.875 0q-.45-.138-.86-.547l-.484-.484a1.96 1.96 0 0 1-.515-.828 1.4 1.4 0 0 1 0-.875q.128-.434.53-.844.395-.387.829-.516.42-.14.86 0 .434.143.828.532l.5.5c.257.261.437.539.53.828q.14.44.016.875-.128.44-.515.828m-.313-.281q.45-.45.438-.953 0-.516-.469-.985l-.5-.5q-.456-.452-.953-.453c-.344-.008-.664.137-.969.438q-.435.44-.437.937c0 .336.156.656.468.969l.5.5c.313.312.633.476.97.484q.514.001.952-.437m0 0"/><path id="E" d="m3.094-3.094-.39.39L.14-3.358l.156 2.03.516.517L.5-.5-4-5l.313-.312 3.609 3.609-.375-3.781.375-.375.172 2.047Zm0 0"/><path id="F" d="M-.937-4.375a2 2 0 0 1 .843-.516q.435-.138.89.016c.313.094.602.277.876.547l.016.016q.42.421.578.89c.101.313.109.625.015.938-.086.304-.265.593-.547.875a2.1 2.1 0 0 1-.875.547 1.47 1.47 0 0 1-.906-.032c-.3-.101-.594-.297-.875-.578a4 4 0 0 1-.562-.719q-.247-.404-.375-.843l-.875-3 .343-.344.938 3.219q.034-.529.516-1.016m2.359.422q-.533-.53-1.094-.531Q-.215-4.497-.719-4q-.482.485-.437 1 .048.518.578 1.047c.336.336.672.5 1.015.5q.516 0 .985-.469c.32-.32.484-.66.484-1.016 0-.351-.164-.69-.484-1.015m0 0"/><path id="G" d="M1.719-1.625q-.392.392-.813.531a1.45 1.45 0 0 1-.843.032q-.405-.124-.797-.516l-.032-.031q-.405-.404-.515-.86a1.46 1.46 0 0 1 .062-.937q-.404.157-.812.047a1.74 1.74 0 0 1-.75-.453l-.047-.047q-.562-.562-.578-1.188-.013-.621.531-1.172.582-.574 1.203-.562.626.016 1.188.578l.046.047q.332.327.438.75a1.4 1.4 0 0 1-.031.812c.3-.113.61-.133.922-.062.312.074.601.246.875.515l.03.032q.39.39.5.812c.083.274.079.547-.015.828q-.14.422-.562.844M-.766-4.109c.282-.282.422-.57.422-.875q0-.453-.422-.875l-.046-.047q-.434-.437-.891-.438-.452 0-.875.422-.404.409-.39.875 0 .455.421.875l.047.047q.422.422.875.422.456.002.86-.406m2.188 2.187q.452-.45.453-.937.013-.497-.437-.953-.457-.453-.954-.454c-.336 0-.648.153-.953.454q-.435.438-.437.937 0 .503.453.953l.016.016q.436.438.921.437.498-.013.938-.453m0 0"/><path id="H" d="M1.578-1.484q-.377.376-.812.593a2.5 2.5 0 0 1-.86.266l-.047-.39a3.7 3.7 0 0 0 .813-.313q.356-.2.625-.469.468-.469.578-.89c.07-.282.016-.516-.172-.704-.156-.156-.32-.222-.484-.203a.9.9 0 0 0-.485.203 8 8 0 0 0-.625.532q-.406.345-.687.515-.294.16-.578.14-.282-.012-.563-.296-.433-.434-.328-.984.095-.56.688-1.157.298-.293.672-.5.363-.216.75-.296l.046.421a3 3 0 0 0-.656.25c-.219.118-.406.25-.562.407q-.434.44-.516.843c-.05.274.016.5.203.688q.204.206.438.172.221-.046.437-.203.222-.155.578-.485.406-.373.735-.547.326-.17.625-.14.293.034.609.343.264.269.313.626c.039.23 0 .48-.126.75-.124.273-.328.546-.609.828m0 0"/><path id="I" d="m-2.906-4.937-.313.312-.328-.328.313-.313Zm4.203 6.109L1 .875l.297-.297q.34-.346-.156-.844l-3.407-3.406.313-.312L1.453-.578q.389.393.438.75.045.355-.266.672Zm0 0"/><path id="J" d="m-.453-5.484.312-.313 4.172 4.172-.312.313-1.64-1.641q.106.361-.017.734-.126.376-.453.703-.564.563-1.187.563-.607-.013-1.188-.594l-.64-.64c-.383-.383-.578-.782-.578-1.188q-.012-.622.515-1.156.657-.657 1.453-.516Zm1.828 3.609c.188-.187.305-.383.36-.594q.076-.31-.016-.61a1.14 1.14 0 0 0-.282-.515L.61-4.422a1.15 1.15 0 0 0-.5-.281 1.24 1.24 0 0 0-.609 0 1.3 1.3 0 0 0-.594.36q-.434.439-.422.921c0 .313.149.617.438.906l.64.641q.438.439.907.438.467 0 .906-.438m0 0"/><path id="K" d="m-.344-5.594.313-.312 2.969 2.968-.313.313-.437-.437q.092.375-.032.75-.128.376-.484.734-.549.55-1.156.531c-.399-.02-.786-.223-1.172-.61L-2.47-3.468l.313-.312L-.344-1.97q.421.423.907.422c.32 0 .625-.14.906-.422q.422-.422.422-.89.012-.48-.391-.891Zm0 0"/><path id="L" d="M-1.422-4.578q.58-.574 1.172-.61.593-.027 1.125.5L2.781-2.78l-.312.312-.39-.39q.092.315-.079.718-.157.391-.484.72-.552.548-1.078.593c-.356.031-.676-.098-.97-.39-.28-.282-.405-.587-.374-.923q.048-.498.531-.984L.719-4.219l-.125-.125q-.41-.403-.86-.39-.451.016-.875.437-.233.235-.375.547-.152.299-.187.61l-.39.078q-.031-.374.155-.766.177-.405.516-.75m2.688 2.781q.45-.45.515-.86a.79.79 0 0 0-.234-.734l-.531-.53-1.094 1.093q-.34.346-.375.687-.046.329.234.61.299.299.672.234.389-.077.813-.5m0 0"/><path id="M" d="m-1.14-4.266-.673.672L.063-1.719q.263.268.515.313a.54.54 0 0 0 .469-.172l.25-.25.281.281-.297.297c-.242.242-.484.344-.734.313-.25-.032-.524-.192-.813-.485l-1.859-1.86-.328.329-.266-.266.328-.328-.937-.937.312-.313.938.938.672-.672Zm0 0"/><path id="N" d="m-4.156-4.844 2.625-2.625.25.25 2.953 5.547-.328.328-2.922-5.484-1.969 1.969.953.953-.312.312Zm0 0"/><path id="O" d="m.266-3.234 2.687.28-.375.376L.297-2.86l.25 2.312-.36.36-.312-2.72-2.64-.265.359-.36 2.281.25-.297-2.234.36-.359Zm0 0"/><path id="P" d="m1.547-1.547-.281.281-4.016-1.921.328-.329L.953-1.859-.672-5.266l.219-.218L2.953-3.86 1.281-7.22l.328-.328 1.938 4-.281.281L0-4.78Zm0 0"/><path id="Q" d="m-2.469-3.469 3.594 1.531-1.516-3.609.344-.344 1.719 4.22-.266.265-4.218-1.719Zm0 0"/><path id="R" d="m3.984-3.984-.359.359-1.594-.719L-.25-2.062.469-.47l-.344.344-2.75-6.25.344-.344Zm-6.078-2.203 1.672 3.734 2.063-2.063Zm0 0"/><path id="S" d="M-2.516-6.484q.862-.857 1.688-.875.83-.014 1.625.78l1.281 1.282q1.606 1.612-.094 3.313L.547-.547l-4.5-4.5Zm2.985.203q-1.295-1.295-2.672.078l-1.125 1.125L.594-1.156l1.125-1.125c.914-.914.937-1.813.062-2.688Zm0 0"/><path id="T" d="M1.438-3.5-.484-8.516l.359-.359 4.5 4.5-.312.313-3.86-3.86L1.97-3.219l-.25.25-4.688-1.75L.875-.875l-.328.328-4.5-4.5.375-.375Zm0 0"/><path id="U" d="m-1.984-7.016.312-.312 4.5 4.5-.312.312L2-3.03q.14.392.031.797a1.6 1.6 0 0 1-.422.718q-.375.377-.796.485a1.5 1.5 0 0 1-.829-.047q-.433-.153-.843-.563l-.453-.453c-.407-.406-.618-.82-.641-1.25-.031-.437.133-.832.484-1.187.438-.438.946-.586 1.516-.453Zm3.39 5.172q.264-.264.328-.61a1.4 1.4 0 0 0-.39-1.233l-.625-.626a1.35 1.35 0 0 0-.578-.343A1.3 1.3 0 0 0-.5-4.703a1.2 1.2 0 0 0-.61.344c-.288.293-.421.609-.39.953q.034.504.516.984l.453.453c.324.324.648.5.984.532q.515.033.953-.407m0 0"/><path id="V" d="m-3.781-5.219.312-.312 4.5 4.5L.72-.72Zm0 0"/><path id="W" d="m-.422-5.516.328-.328L2.25-.78c.082.187.129.367.14.531q.012.251-.093.484a1.6 1.6 0 0 1-.36.516l-.125.125L1.5.563l.125-.125q.264-.271.313-.547.045-.28-.125-.672l-.22-.469-4.405-1.875.343-.344 3.782 1.656Zm0 0"/><path id="X" d="m-.156-4.281 1.562-1.563.578.578q.826.83.844 1.672c.02.555-.219 1.078-.719 1.578-.523.524-1.054.782-1.593.782q-.81.001-1.578-.766l-1.329-1.328q-.808-.81-.843-1.64-.046-.843.718-1.61c.43-.426.891-.656 1.391-.688q.737-.058 1.516.47l-.328.327q-.623-.405-1.204-.36-.574.049-1.078.548-.61.61-.562 1.297.035.675.703 1.343L-.75-2.312q.626.625 1.281.624.656 0 1.281-.624.593-.593.563-1.266-.035-.669-.703-1.344l-.313-.312L.125-4Zm0 0"/><path id="Y" d="m-1.125-7.875.297.297-2.5 2.5 1.922 1.922L.766-5.328l.28.281-2.171 2.172 2 2-.328.328-4.5-4.5Zm0 0"/><path id="Z" d="m-4.562-4.437 3.171-3.172.297.297-1.437 1.437 4.203 4.203-.297.297-4.203-4.203-1.438 1.437Zm0 0"/><path id="aa" d="m-1.047-7.953.297.297-2.578 2.578 1.812 1.812L.72-5.5l.297.297L-1.22-2.97.594-1.156l2.578-2.578.281.28L.547-.546l-4.5-4.5Zm0 0"/><path id="ab" d="M2.094-2q-.503.504-1.047.656-.55.16-1.094-.015-.561-.187-1.094-.72l-1.28-1.28q-.517-.516-.704-1.078a1.86 1.86 0 0 1-.031-1.11q.158-.543.656-1.047.503-.497 1.047-.656a1.86 1.86 0 0 1 1.11.031c.37.125.734.36 1.077.703l1.282 1.282q.527.532.703 1.093c.125.368.133.73.031 1.094q-.158.55-.656 1.047m-.297-.297q.387-.388.516-.828a1.4 1.4 0 0 0-.016-.89q-.16-.436-.594-.876L.391-6.203c-.293-.29-.582-.488-.875-.594a1.34 1.34 0 0 0-.875-.016 2 2 0 0 0-.844.516q-.403.41-.531.844-.121.44.03.89.144.44.579.875l1.313 1.313q.439.44.875.594c.3.093.597.101.89.015q.434-.122.844-.53m0 0"/><path id="ac" d="m3.063-4.062-4-4 .312-.313 4.5 4.5-.328.328-6.625-1.281L.875-.875l-.328.328-4.5-4.5.328-.328Zm0 0"/><path id="ad" d="M4.203.11C2.773.11 1.578-.274.61-1.048l.407-.547Q2.328-.529 4.203-.53q.951 0 1.61-.235c.437-.164.769-.406 1-.718q.358-.47.359-1.125v-.016q0-.668-.36-1.062a2.1 2.1 0 0 0-.906-.594 10 10 0 0 0-1.453-.375q-1.08-.2-1.75-.422a2.9 2.9 0 0 1-1.14-.734q-.486-.515-.485-1.422 0-.873.39-1.5c.27-.414.66-.735 1.173-.953.507-.22 1.125-.329 1.843-.329q1.64.002 3.172.954l-.406.546Q5.826-9.39 4.484-9.39q-1.3 0-2.015.563-.703.55-.703 1.547v.015c0 .43.117.774.359 1.032q.373.375.922.562.545.175 1.5.375l.14.031q.997.205 1.641.438.657.222 1.078.75.437.518.438 1.422v.015c0 .586-.149 1.086-.438 1.5-.281.407-.695.72-1.234.938q-.815.311-1.969.312m0 0"/><path id="ae" d="M4.938-9.922q.968 0 1.671.375c.47.242.82.59 1.063 1.047q.375.689.375 1.625 0 .939-.375 1.625a2.5 2.5 0 0 1-1.063 1.047q-.703.361-1.671.36H1.922V0h-.688v-9.922ZM5-4.484q.716 0 1.25-.282.53-.28.813-.812.294-.546.296-1.297-.002-.75-.296-1.281a1.9 1.9 0 0 0-.813-.828A2.56 2.56 0 0 0 5-9.281H1.922v4.797Zm0 0"/><path id="af" d="M7.594-9.922v.64H1.922v4.016h4.922v.641H1.922v3.984h5.672V0h-6.36v-9.922Zm0 0"/><path id="ag" d="M4.469.11q-1.065 0-1.844-.438A3.04 3.04 0 0 1 1.438-1.61q-.423-.843-.422-1.985v-2.718q0-1.154.422-1.985a2.95 2.95 0 0 1 1.187-1.281q.779-.436 1.844-.438c.593 0 1.125.118 1.593.344q.705.33 1.172.969.48.627.657 1.5h-.688a3.25 3.25 0 0 0-.578-1.156 2.66 2.66 0 0 0-.953-.766 2.74 2.74 0 0 0-1.203-.266q-.846 0-1.469.375a2.32 2.32 0 0 0-.953 1.063q-.328.691-.328 1.64v2.72q0 .954.328 1.64.327.688.953 1.062c.414.243.906.36 1.469.36q.668.001 1.218-.25.545-.264.938-.75.403-.498.578-1.172h.688a3.7 3.7 0 0 1-.657 1.5 3.17 3.17 0 0 1-1.171.969Q5.359.11 4.469.109m0 0"/><path id="ah" d="M4.563.11q-1.736 0-2.61-.938-.86-.95-.86-2.86v-6.234h.688v6.281q-.002 1.548.688 2.329c.469.511 1.164.765 2.094.765q2.795 0 2.796-3.094v-6.28h.704v6.233q0 1.91-.876 2.86-.861.937-2.625.937m0 0"/><path id="aj" d="M.875 0v-.516L5.047-5.53q.375-.452.562-.938c.133-.332.204-.656.204-.968v-.016q-.001-.919-.547-1.422-.533-.516-1.516-.516-.954.001-1.562.547-.597.533-.72 1.516v.016H.75v-.016c.125-.852.445-1.516.969-1.984q.797-.705 2.015-.704c.895 0 1.586.227 2.079.672q.733.675.734 1.906v.016q-.001.549-.266 1.156-.268.611-.765 1.204L1.78-.641h4.907V0Zm0 0"/><path id="ak" d="M3.719.11q-1.33 0-2.016-.704c-.46-.476-.687-1.14-.687-1.984V-7.36c0-.844.226-1.5.687-1.97.469-.476 1.14-.718 2.016-.718q1.325 0 2 .703.686.705.687 1.985v4.78q0 1.283-.687 1.985c-.461.469-1.125.703-2 .703m0-.641q1.014 0 1.5-.531c.332-.352.5-.86.5-1.516V-7.36q-.001-2.047-2-2.047c-1.336 0-2 .683-2 2.047v4.78q-.001.987.484 1.517c.32.355.828.53 1.516.53m0 0"/><path id="al" d="M3.813-5.875q.856 0 1.484.36.64.363.969 1.03.341.674.343 1.563v.016q-.002.954-.343 1.64-.345.674-1 1.032c-.43.23-.953.343-1.578.343Q2.778.11 2.14-.234a2.37 2.37 0 0 1-.985-1.032C.926-1.71.813-2.25.813-2.875v-.016c0-.437.054-.894.171-1.375q.186-.731.532-1.375l2.343-4.265h.766L2.094-5.312q.64-.563 1.719-.563m2.109 3.078q0-1.154-.61-1.781-.597-.64-1.687-.64-1.065.002-1.594.624-.515.626-.515 1.797 0 1.079.562 1.672.576.596 1.61.594 1.076.001 1.656-.594.576-.593.578-1.672m0 0"/><path id="am" d="M3.969-6.64q.778.002 1.328.343.562.329.844.984c.195.43.297.95.297 1.563v1c0 .594-.102 1.105-.297 1.531q-.301.645-.875.985-.562.344-1.36.343-.767 0-1.312-.312a1.84 1.84 0 0 1-.781-.875v3.734h-.72v-9.203h.72v1.078q.292-.592.843-.875c.375-.195.813-.297 1.313-.297m1.765 2.89c0-.719-.18-1.281-.53-1.687q-.519-.61-1.47-.61-.83.002-1.343.484c-.344.325-.54.758-.578 1.297v1.97q.06.83.578 1.327.513.486 1.343.485.951.001 1.47-.594c.35-.395.53-.953.53-1.672Zm0 0"/><path id="an" d="M3.484-6.64q1.264 0 1.954.64.703.643.703 1.797V0h-.703v-.86q-.252.458-.86.704-.61.248-1.344.25-1.189 0-1.843-.531C.96-.79.75-1.29.75-1.937c0-.602.195-1.079.594-1.422q.592-.516 1.672-.516h2.422v-.266q0-.873-.516-1.359-.516-.482-1.438-.484-.55 0-1.03.172-.486.156-.86.484l-.516-.36q.388-.45 1.016-.703c.414-.164.879-.25 1.39-.25M3.375-.579q.983 0 1.516-.375.546-.387.547-1.078v-1.172H3.03q-.75.002-1.172.344-.42.328-.421.922c0 .43.164.761.5 1 .343.242.82.359 1.437.359m0 0"/><path id="ao" d="M3.797.094Q.89.095.89-2.75v-1.078q0-2.813 2.906-2.813.826.001 1.437.266c.414.18.75.438 1 .781l-.5.485a2.4 2.4 0 0 0-.859-.641 2.6 2.6 0 0 0-1.062-.219q-2.22.001-2.22 2.14v1.079q0 2.189 2.22 2.188.59 0 1.093-.204.514-.215.875-.625l.453.454c-.25.335-.586.59-1 .765a3.7 3.7 0 0 1-1.437.266m0 0"/><path id="ap" d="M6.39-2.953H1.564v.14c0 .711.195 1.262.593 1.657.395.398.957.593 1.688.593q.543.002 1-.218a2.2 2.2 0 0 0 .765-.563l.407.469q-.269.422-.875.703-.611.265-1.297.266-.94 0-1.61-.344a2.3 2.3 0 0 1-1-1Q.89-1.906.891-2.844v-.734q0-.968.328-1.64.34-.685.968-1.048.64-.375 1.532-.375.841 0 1.437.36c.407.242.711.586.922 1.031q.312.675.313 1.625ZM3.72-5.97q-1.032 0-1.594.61t-.562 1.718v.047h4.156v-.172q-.002-1.043-.532-1.625c-.343-.382-.835-.578-1.468-.578m0 0"/><path id="aq" d="M8.14-6.64q1.202 0 1.86.702c.445.47.672 1.125.672 1.97V0h-.703v-3.969q0-.951-.516-1.469-.504-.528-1.406-.53c-.586 0-1.031.171-1.344.515q-.468.517-.469 1.437V0h-.703v-3.969q0-.951-.468-1.469-.471-.528-1.329-.53-.937.001-1.453.484c-.336.312-.5.761-.5 1.343V0h-.687v-6.547h.687v.969q.64-1.062 2.094-1.063.796 0 1.328.36.544.363.813 1.031c.187-.445.46-.79.828-1.031q.546-.36 1.297-.36m0 0"/><path id="ar" d="M2.14-8.64h-.703v-.688h.704Zm0 8.64h-.703v-6.547h.704Zm0 0"/><path id="as" d="M3.469-5.953H1.984v4.125q0 .595.235.922.232.314.687.312h.563v.625H2.78q-.783 0-1.156-.468-.361-.47-.36-1.407v-4.11H.548v-.593h.719v-2.047h.718v2.047H3.47Zm0 0"/><path id="at" d="M4.344-5.047 7.797 0h-.781L3.969-4.484.938 0H.14l3.453-5.031-3.375-4.89h.765L3.97-5.595l2.875-4.328h.797Zm0 0"/><path id="au" d="M3.406 0h-.625L.484-6.531h.72l1.89 5.515L5.063-6.53h.468l1.985 5.515L9.39-6.53h.734L7.813 0h-.625L5.297-5.297Zm0 0"/><path id="av" d="M4-6.64q.796.002 1.36.343.562.329.843.984c.195.43.297.95.297 1.563V0h-.703v-3.75c0-.719-.18-1.273-.531-1.672q-.534-.593-1.5-.594-.938.001-1.453.547-.516.533-.516 1.516V0h-.703v-9.922h.703v4.547a2.02 2.02 0 0 1 .875-.937q.576-.33 1.328-.329m0 0"/><path id="aw" d="M4.563-4.906H8v1.297q0 1.815-.89 2.765Q6.23.11 4.53.11q-1.706 0-2.61-.89-.906-.904-.905-2.61v-2.921q0-1.795.89-2.75c.602-.633 1.469-.954 2.594-.954q1.388 0 2.266.75.888.75 1.156 2.188h-.734q-.223-1.107-.907-1.703-.69-.61-1.781-.61c-.906 0-1.602.266-2.078.797-.469.524-.703 1.281-.703 2.281v2.922q-.001 1.394.718 2.125c.489.493 1.188.735 2.094.735q1.343.002 2.047-.781.717-.781.719-2.282v-.672H4.563Zm0 0"/><path id="ax" d="M4.484-9.922V-.64h2.204V0H1.422v-.64h2.375v-8.672l-2.25 1.468v-.75l1.922-1.328Zm0 0"/><path id="ay" d="M3.703.11Q2.56.11 1.875-.532q-.69-.64-.86-1.86h.704c.07.594.281 1.055.625 1.375q.516.47 1.36.47.95 0 1.483-.563.53-.561.532-1.578v-1.391q0-.997-.469-1.531-.456-.546-1.281-.547-.643 0-1.156.375c-.344.242-.665.605-.954 1.093h-.625v-5.234h4.891v.64H1.938v3.595q.375-.546.89-.829a2.35 2.35 0 0 1 1.156-.296q1.155.002 1.782.718.639.72.64 2.016v1.39q0 .879-.312 1.5-.315.628-.922.97C4.766 0 4.273.108 3.703.108m0 0"/><path id="az" d="M2 0h-.828v-.828H2Zm0 0"/><path id="aA" d="M4.078-4.89H6.5v.64H4.078v2.453h-.703V-4.25H.953v-.64h2.422v-2.454h.703Zm0 0"/><path id="aB" d="M4.016-6.64c.664 0 1.203.171 1.609.515l-.437.594q-.518-.437-1.375-.438-.956.002-1.485.485-.515.487-.515 1.343V0h-.72v-6.547h.72v1.031q.327-.562.89-.843.563-.282 1.313-.282m0 0"/><path id="aC" d="M1.094-6.531 3.39-.906l2.297-5.625h.75L3.688 0h-.594L.344-6.531Zm0 0"/><path id="aD" d="M5.813-2.156h.937v.64h-.937V0h-.688v-1.516H.891v-.546l3.218-7.844h.75l-3.203 7.75h3.469v-3.672h.688Zm0 0"/><path id="aE" d="M.969-6.531h4.734V-6L1.781-.64h4.11V0h-5v-.562l3.984-5.329H.969Zm0 0"/><clipPath id="a"><path d="M0 0h845.89v281.89H0Zm0 0"/></clipPath></defs><g clip-path="url(#a)"><path fill="#fff" d="M0 0h845.89v281.89H0Zm0 0"/></g><path fill="none" stroke="#d9d9d9" stroke-linejoin="round" stroke-miterlimit="10" stroke-width=".762" d="M36.254 183.23h798.11m-798.11-16.144h798.11m-798.11-16.148h798.11m-798.11-16.364h798.11M36.254 118.43h798.11m-798.11-16.364h798.11M36.254 85.918h798.11M36.254 69.555h798.11M36.254 53.41h798.11M36.254 37.254h798.11"/><path fill="#1973eb" d="M40.512 118.32h3.71v81.153h-3.71Zm26.62 0h3.708v81.153h-3.707Zm26.618 0h3.71v81.153h-3.71Zm26.621 0h3.707v81.153h-3.707Zm26.617 0h3.711v81.153h-3.71Zm26.617 0h3.711v81.153h-3.71Zm26.622 0h3.71v81.153h-3.71Zm26.402 0h3.926v81.153h-3.926Zm26.617 0h3.926v81.153h-3.926Zm26.621 0h3.926v81.153h-3.926Zm26.617 0h3.926v81.153h-3.926Zm26.618 0h3.93v81.153h-3.93Zm26.62 0h3.926v81.153h-3.925Zm26.618 0h3.71v81.153h-3.71Zm26.62 0h3.708v81.153h-3.707Zm26.618 0h3.711v81.153h-3.71Zm26.621 0h3.707v81.153H466.2Zm26.617 0h3.711v81.153h-3.71Zm26.622 0h3.707v81.153h-3.707Zm26.617 0h3.71v81.153h-3.71Zm26.62 0h3.708v81.153h-3.707Zm26.618 0h3.71v81.153h-3.71Zm26.402 0h3.926v81.153h-3.926Zm26.617 0h3.93v81.153h-3.93Zm26.622 0h3.925v81.153h-3.925Zm26.617 0h3.93v81.153h-3.93Zm26.62 0h3.927v81.153h-3.926Zm26.618 0h3.93v81.153h-3.93Zm26.621 0h3.707v81.153h-3.707Zm26.617 0h3.711v81.153h-3.71Zm0 0"/><path fill="#25c8a2" d="M45.313 116.355h3.71v83.118h-3.71Zm26.617-1.308h3.71v84.426h-3.71Zm26.62 3.273h3.708v81.153H98.55Zm26.618 0h3.71v81.153h-3.71Zm26.621-3.492h3.707v84.645h-3.707Zm26.617-21.383h3.711v106.028h-3.71Zm26.621 23.785h3.707v82.243h-3.707Zm26.618 1.528h3.71v80.715h-3.71Zm26.62-2.184h3.708v82.899h-3.707Zm26.4 1.746h3.929v81.153h-3.93Zm26.62-.437h3.926v81.59h-3.926Zm26.617 0h3.93v81.59h-3.93Zm26.621.875h3.926v80.715h-3.926Zm26.618-4.582h3.93v85.297h-3.93Zm26.62 3.27h3.926v82.027h-3.925Zm26.618 1.527h3.71v80.5h-3.71Zm26.621.875h3.707v79.625H471Zm26.617-1.09h3.711v80.715h-3.71Zm26.621 16.144h3.707v64.57h-3.707Zm26.617-17.02h3.711v81.59h-3.71Zm26.622-2.835h3.707v84.426h-3.707Zm26.617 3.926h3.71v80.5h-3.71Zm26.62-1.743h3.708v82.243h-3.707Zm26.4-.218h3.929v82.46h-3.93Zm26.62-4.149h3.926v86.61h-3.926Zm26.618 5.02h3.93v81.59h-3.93Zm26.62.656h3.926v80.934h-3.925Zm26.618 11.781h3.93v69.153h-3.93Zm26.62-12h3.927v81.153h-3.926Zm26.618-.437h3.711v81.59h-3.71Zm0 0"/><path fill="#bf8ed1" d="M50.113 117.012h3.926v82.46h-3.926Zm26.617-.875h3.93v83.336h-3.93Zm26.622.656h3.707v82.68h-3.707Zm26.617 1.309h3.71v81.37h-3.71Zm26.62.437h3.708v80.934h-3.707Zm26.618-66.547h3.711v147.48h-3.711Zm26.621 65.02h3.707v82.46h-3.707Zm26.617 1.09h3.711v81.37h-3.71Zm26.621-1.747h3.707v83.118h-3.707Zm26.618 2.618h3.71v80.5h-3.71Zm26.62-.871h3.708v81.37h-3.707Zm26.4 6.109h3.929v75.262h-3.93Zm26.62-5.02h3.926v80.282h-3.926Zm26.617-2.836h3.93v83.118h-3.93Zm26.622 1.747h3.925v81.37h-3.925Zm26.617-5.02h3.93v86.39h-3.93Zm26.62 5.676h3.927v80.715H475.8Zm26.618 3.488h3.71v77.227h-3.71Zm26.621 8.945h3.707v68.282h-3.707Zm26.617-13.308h3.711v81.59h-3.71Zm26.621.875h3.707v80.715h-3.707Zm26.618 4.363h3.71v76.352h-3.71Zm26.617-5.238h3.71v81.59h-3.71Zm26.62 8.293h3.708v73.297h-3.707Zm26.618 26.398h3.71v46.899h-3.71Zm26.402-31.855h3.926v78.754h-3.926Zm26.621-1.746h3.926v80.5h-3.926Zm26.618-8.29h3.925v88.79h-3.925Zm26.617-5.238h3.93v94.028h-3.93Zm26.62 12.875h3.927v81.153h-3.926Zm0 0"/><path fill="#fe733c" d="M54.914 117.445h3.926v82.028h-3.926Zm26.617-3.054h3.93v85.082h-3.93Zm26.621 3.93h3.926v81.152h-3.926Zm26.618.652h3.925v80.5h-3.925Zm26.62-.215h3.708v80.715h-3.707Zm26.618-65.024h3.71v145.739h-3.71Zm26.617 67.86h3.71v77.879h-3.71Zm26.621-3.492h3.711v81.37h-3.71Zm26.617-.22h3.711v81.59h-3.71Zm26.621.22h3.707v81.37h-3.707Zm26.618.218h3.71v81.153h-3.71Zm26.62-.218h3.708v81.37h-3.707Zm26.403.656h3.926v80.715h-3.926Zm26.617-3.055h3.926v83.77h-3.926Zm26.617 2.399h3.93v81.37h-3.93Zm26.621-3.055h3.926v84.426h-3.926Zm26.618 3.926h3.93v80.5h-3.93Zm26.62-.871h3.927v81.37h-3.926Zm26.618-.22h3.71v81.59h-3.71Zm26.621.438h3.707v81.153h-3.707Zm26.617-.656h3.711v81.809h-3.71Zm26.621 1.094h3.707v80.715h-3.707Zm26.617-.656h3.711v81.37h-3.71Zm26.622-1.09h3.707v82.46h-3.707Zm26.617-2.184h3.71v84.645h-3.71Zm26.62-.219h3.708v84.864h-3.707Zm26.618 3.711h3.711v81.153h-3.71Zm26.402 1.965h3.926v79.188h-3.926Zm26.618-13.965h3.93v93.153h-3.93Zm26.62 9.383h3.926v83.77h-3.925Zm0 0"/><path fill="none" stroke="#d9d9d9" stroke-linejoin="round" stroke-miterlimit="10" stroke-width=".762" d="M36.254 199.582h798.11"/><use xlink:href="#b" x="24.67" y="202.036" fill="#595959"/><g fill="#595959"><use xlink:href="#b" x="17.84" y="185.891"/><use xlink:href="#c" x="22.64" y="185.891"/></g><use xlink:href="#d" x="24.605" y="185.891" fill="#595959"/><g fill="#595959"><use xlink:href="#b" x="17.84" y="169.527"/><use xlink:href="#c" x="22.64" y="169.527"/></g><use xlink:href="#e" x="24.605" y="169.527" fill="#595959"/><g fill="#595959"><use xlink:href="#b" x="17.84" y="153.382"/><use xlink:href="#c" x="22.64" y="153.382"/></g><use xlink:href="#f" x="24.605" y="153.382" fill="#595959"/><g fill="#595959"><use xlink:href="#b" x="17.84" y="137.018"/><use xlink:href="#c" x="22.64" y="137.018"/></g><use xlink:href="#g" x="24.605" y="137.018" fill="#595959"/><use xlink:href="#h" x="24.67" y="120.873" fill="#595959"/><g fill="#595959"><use xlink:href="#h" x="17.84" y="104.727"/><use xlink:href="#c" x="22.64" y="104.727"/></g><use xlink:href="#d" x="24.605" y="104.727" fill="#595959"/><g fill="#595959"><use xlink:href="#h" x="17.84" y="88.364"/><use xlink:href="#c" x="22.64" y="88.364"/></g><use xlink:href="#e" x="24.605" y="88.364" fill="#595959"/><g fill="#595959"><use xlink:href="#h" x="17.84" y="72.218"/><use xlink:href="#c" x="22.64" y="72.218"/></g><use xlink:href="#f" x="24.605" y="72.218" fill="#595959"/><g fill="#595959"><use xlink:href="#h" x="17.84" y="55.855"/><use xlink:href="#c" x="22.64" y="55.855"/></g><use xlink:href="#g" x="24.605" y="55.855" fill="#595959"/><use xlink:href="#d" x="24.67" y="39.709" fill="#595959"/><g fill="#595959"><use xlink:href="#i" x="12.336" y="248.727"/><use xlink:href="#j" x="15.73" y="245.333"/><use xlink:href="#j" x="19.125" y="241.939"/><use xlink:href="#k" x="22.519" y="238.545"/></g><use xlink:href="#l" x="23.908" y="237.156" fill="#595959"/><use xlink:href="#m" x="27.302" y="233.761" fill="#595959"/><use xlink:href="#n" x="30.544" y="230.519" fill="#595959"/><use xlink:href="#o" x="33.167" y="227.897" fill="#595959"/><use xlink:href="#p" x="34.866" y="226.198" fill="#595959"/><use xlink:href="#m" x="38.26" y="222.803" fill="#595959"/><use xlink:href="#q" x="41.503" y="219.561" fill="#595959"/><use xlink:href="#r" x="44.897" y="216.167" fill="#595959"/><use xlink:href="#s" x="48.139" y="212.924" fill="#595959"/><g fill="#595959"><use xlink:href="#i" x="51.841" y="235.636"/><use xlink:href="#j" x="55.236" y="232.242"/><use xlink:href="#t" x="58.63" y="228.848"/><use xlink:href="#k" x="62.024" y="225.454"/></g><use xlink:href="#p" x="63.413" y="224.065" fill="#595959"/><use xlink:href="#u" x="66.807" y="220.671" fill="#595959"/><use xlink:href="#v" x="69.74" y="217.738" fill="#595959"/><use xlink:href="#l" x="71.439" y="216.039" fill="#595959"/><use xlink:href="#w" x="74.833" y="212.645" fill="#595959"/><g fill="#595959"><use xlink:href="#i" x="83.452" y="230.836"/><use xlink:href="#j" x="86.846" y="227.442"/><use xlink:href="#x" x="90.24" y="224.048"/><use xlink:href="#k" x="93.634" y="220.654"/></g><use xlink:href="#y" x="95.023" y="219.265" fill="#595959"/><use xlink:href="#r" x="98.418" y="215.871" fill="#595959"/><use xlink:href="#r" x="101.502" y="212.786" fill="#595959"/><g fill="#595959"><use xlink:href="#i" x="109.345" y="231.491"/><use xlink:href="#w" x="112.739" y="228.097"/><use xlink:href="#z" x="116.134" y="224.703"/><use xlink:href="#k" x="119.528" y="221.308"/></g><use xlink:href="#A" x="120.917" y="219.919" fill="#595959"/><use xlink:href="#r" x="126.316" y="214.52" fill="#595959"/><use xlink:href="#B" x="129.4" y="211.436" fill="#595959"/><g fill="#595959"><use xlink:href="#i" x="127.817" y="239.564"/><use xlink:href="#i" x="131.212" y="236.169"/><use xlink:href="#C" x="134.606" y="232.775"/><use xlink:href="#k" x="138" y="229.381"/></g><use xlink:href="#y" x="139.389" y="227.992" fill="#595959"/><use xlink:href="#D" x="142.783" y="224.598" fill="#595959"/><use xlink:href="#p" x="146.026" y="221.355" fill="#595959"/><use xlink:href="#A" x="149.42" y="217.961" fill="#595959"/><use xlink:href="#E" x="154.667" y="212.714" fill="#595959"/><g fill="#595959"><use xlink:href="#i" x="153.011" y="241.091"/><use xlink:href="#C" x="156.405" y="237.697"/><use xlink:href="#F" x="159.799" y="234.303"/><use xlink:href="#k" x="163.194" y="230.908"/></g><use xlink:href="#s" x="164.583" y="229.519" fill="#595959"/><use xlink:href="#A" x="167.977" y="226.125" fill="#595959"/><use xlink:href="#A" x="173.376" y="220.726" fill="#595959"/><use xlink:href="#m" x="178.624" y="215.478" fill="#595959"/><use xlink:href="#n" x="182.018" y="212.084" fill="#595959"/><g fill="#595959"><use xlink:href="#i" x="184.795" y="235.855"/><use xlink:href="#C" x="188.189" y="232.46"/><use xlink:href="#G" x="191.583" y="229.066"/><use xlink:href="#k" x="194.977" y="225.672"/></g><use xlink:href="#H" x="196.366" y="224.283" fill="#595959"/><use xlink:href="#I" x="199.609" y="221.041" fill="#595959"/><use xlink:href="#m" x="201.15" y="219.5" fill="#595959"/><use xlink:href="#q" x="204.392" y="216.257" fill="#595959"/><use xlink:href="#y" x="207.938" y="212.711" fill="#595959"/><g fill="#595959"><use xlink:href="#i" x="195.397" y="251.782"/><use xlink:href="#F" x="198.791" y="248.388"/><use xlink:href="#w" x="202.185" y="244.993"/><use xlink:href="#k" x="205.579" y="241.599"/></g><use xlink:href="#o" x="206.968" y="240.21" fill="#595959"/><use xlink:href="#v" x="208.667" y="238.511" fill="#595959"/><use xlink:href="#p" x="210.366" y="236.812" fill="#595959"/><use xlink:href="#J" x="213.609" y="233.57" fill="#595959"/><use xlink:href="#K" x="217.003" y="230.176" fill="#595959"/><use xlink:href="#L" x="220.397" y="226.781" fill="#595959"/><use xlink:href="#q" x="223.64" y="223.539" fill="#595959"/><use xlink:href="#M" x="227.034" y="220.145" fill="#595959"/><use xlink:href="#K" x="229.043" y="218.136" fill="#595959"/><use xlink:href="#A" x="232.437" y="214.742" fill="#595959"/><g fill="#595959"><use xlink:href="#i" x="231.419" y="242.4"/><use xlink:href="#F" x="234.814" y="239.006"/><use xlink:href="#i" x="238.208" y="235.612"/><use xlink:href="#k" x="241.602" y="232.217"/></g><use xlink:href="#s" x="242.991" y="230.828" fill="#595959"/><g fill="#595959"><use xlink:href="#w" x="246.385" y="227.434"/><use xlink:href="#F" x="249.779" y="224.04"/><use xlink:href="#i" x="253.174" y="220.646"/><use xlink:href="#n" x="256.568" y="217.252"/></g><use xlink:href="#m" x="259.19" y="214.629" fill="#595959"/><use xlink:href="#B" x="262.433" y="211.387" fill="#595959"/><g fill="#595959"><use xlink:href="#i" x="255.372" y="245.018"/><use xlink:href="#N" x="258.766" y="241.624"/><use xlink:href="#t" x="262.16" y="238.23"/><use xlink:href="#k" x="265.555" y="234.836"/></g><use xlink:href="#D" x="266.944" y="233.447" fill="#595959"/><use xlink:href="#A" x="270.338" y="230.052" fill="#595959"/><use xlink:href="#q" x="275.585" y="224.805" fill="#595959"/><use xlink:href="#m" x="279.131" y="221.259" fill="#595959"/><use xlink:href="#M" x="282.374" y="218.016" fill="#595959"/><use xlink:href="#l" x="284.383" y="216.007" fill="#595959"/><use xlink:href="#l" x="287.625" y="212.765" fill="#595959"/><g fill="#595959"><use xlink:href="#i" x="291.745" y="235.2"/><use xlink:href="#N" x="295.139" y="231.806"/><use xlink:href="#x" x="298.533" y="228.412"/><use xlink:href="#k" x="301.927" y="225.017"/></g><use xlink:href="#L" x="303.316" y="223.628" fill="#595959"/><use xlink:href="#H" x="306.559" y="220.386" fill="#595959"/><use xlink:href="#M" x="309.801" y="217.144" fill="#595959"/><use xlink:href="#L" x="311.81" y="215.135" fill="#595959"/><use xlink:href="#n" x="315.052" y="211.892" fill="#595959"/><g fill="#595959"><use xlink:href="#i" x="302.661" y="250.909"/><use xlink:href="#G" x="306.056" y="247.515"/><use xlink:href="#x" x="309.45" y="244.121"/><use xlink:href="#k" x="312.844" y="240.726"/></g><use xlink:href="#O" x="314.233" y="239.337" fill="#595959"/><use xlink:href="#L" x="317.476" y="236.095" fill="#595959"/><use xlink:href="#o" x="320.718" y="232.853" fill="#595959"/><use xlink:href="#L" x="322.417" y="231.154" fill="#595959"/><use xlink:href="#q" x="325.659" y="227.911" fill="#595959"/><use xlink:href="#r" x="329.054" y="224.517" fill="#595959"/><use xlink:href="#p" x="332.296" y="221.275" fill="#595959"/><use xlink:href="#A" x="335.69" y="217.88" fill="#595959"/><use xlink:href="#E" x="340.938" y="212.633" fill="#595959"/><g fill="#595959"><use xlink:href="#i" x="338.278" y="241.964"/><use xlink:href="#t" x="341.672" y="238.569"/><use xlink:href="#j" x="345.066" y="235.175"/><use xlink:href="#k" x="348.46" y="231.781"/></g><use xlink:href="#p" x="349.849" y="230.392" fill="#595959"/><use xlink:href="#P" x="353.244" y="226.998" fill="#595959"/><use xlink:href="#L" x="358.029" y="222.212" fill="#595959"/><use xlink:href="#Q" x="361.272" y="218.97" fill="#595959"/><use xlink:href="#m" x="364.356" y="215.885" fill="#595959"/><use xlink:href="#H" x="367.598" y="212.643" fill="#595959"/><g fill="#595959"><use xlink:href="#i" x="364.27" y="242.618"/><use xlink:href="#t" x="367.664" y="239.224"/><use xlink:href="#F" x="371.059" y="235.83"/><use xlink:href="#k" x="374.453" y="232.436"/></g><use xlink:href="#y" x="375.842" y="231.047" fill="#595959"/><use xlink:href="#L" x="379.236" y="227.652" fill="#595959"/><use xlink:href="#A" x="382.478" y="224.41" fill="#595959"/><use xlink:href="#m" x="387.726" y="219.162" fill="#595959"/><use xlink:href="#H" x="391.12" y="215.768" fill="#595959"/><use xlink:href="#H" x="394.204" y="212.684" fill="#595959"/><g fill="#595959"><use xlink:href="#i" x="400.544" y="232.8"/><use xlink:href="#x" x="403.938" y="229.406"/><use xlink:href="#x" x="407.332" y="226.012"/><use xlink:href="#k" x="410.726" y="222.617"/></g><use xlink:href="#A" x="412.116" y="221.228" fill="#595959"/><use xlink:href="#v" x="417.515" y="215.829" fill="#595959"/><use xlink:href="#o" x="419.056" y="214.288" fill="#595959"/><use xlink:href="#r" x="420.755" y="212.589" fill="#595959"/><g fill="#595959"><use xlink:href="#i" x="417.446" y="242.618"/><use xlink:href="#x" x="420.841" y="239.224"/><use xlink:href="#i" x="424.235" y="235.83"/><use xlink:href="#k" x="427.629" y="232.436"/></g><use xlink:href="#u" x="429.018" y="231.047" fill="#595959"/><use xlink:href="#m" x="432.102" y="227.962" fill="#595959"/><use xlink:href="#K" x="435.345" y="224.72" fill="#595959"/><use xlink:href="#H" x="438.739" y="221.326" fill="#595959"/><use xlink:href="#A" x="441.981" y="218.083" fill="#595959"/><use xlink:href="#l" x="447.229" y="212.836" fill="#595959"/><g fill="#595959"><use xlink:href="#i" x="441.409" y="245.236"/><use xlink:href="#x" x="444.804" y="241.842"/><use xlink:href="#C" x="448.198" y="238.448"/><use xlink:href="#k" x="451.592" y="235.054"/></g><use xlink:href="#y" x="452.981" y="233.665" fill="#595959"/><use xlink:href="#n" x="456.375" y="230.271" fill="#595959"/><use xlink:href="#D" x="458.846" y="227.8" fill="#595959"/><use xlink:href="#A" x="462.24" y="224.406" fill="#595959"/><use xlink:href="#L" x="467.64" y="219.006" fill="#595959"/><use xlink:href="#r" x="470.882" y="215.764" fill="#595959"/><use xlink:href="#H" x="474.124" y="212.521" fill="#595959"/><g fill="#595959"><use xlink:href="#i" x="460.758" y="252.436"/><use xlink:href="#x" x="464.153" y="249.042"/><use xlink:href="#F" x="467.547" y="245.648"/><use xlink:href="#k" x="470.941" y="242.254"/></g><use xlink:href="#r" x="472.33" y="240.865" fill="#595959"/><use xlink:href="#L" x="475.573" y="237.622" fill="#595959"/><use xlink:href="#r" x="478.815" y="234.38" fill="#595959"/><use xlink:href="#M" x="482.057" y="231.138" fill="#595959"/><use xlink:href="#K" x="483.908" y="229.287" fill="#595959"/><use xlink:href="#H" x="487.454" y="225.741" fill="#595959"/><use xlink:href="#R" x="490.538" y="222.656" fill="#595959"/><use xlink:href="#S" x="494.704" y="218.491" fill="#595959"/><use xlink:href="#T" x="498.87" y="214.325" fill="#595959"/><g fill="#595959"><use xlink:href="#i" x="497.329" y="242.618"/><use xlink:href="#x" x="500.724" y="239.224"/><use xlink:href="#N" x="504.118" y="235.83"/><use xlink:href="#k" x="507.512" y="232.436"/></g><use xlink:href="#o" x="508.901" y="231.047" fill="#595959"/><use xlink:href="#m" x="510.6" y="229.348" fill="#595959"/><use xlink:href="#H" x="513.994" y="225.953" fill="#595959"/><use xlink:href="#o" x="517.079" y="222.869" fill="#595959"/><use xlink:href="#v" x="518.778" y="221.17" fill="#595959"/><use xlink:href="#m" x="520.477" y="219.471" fill="#595959"/><g fill="#595959"><use xlink:href="#x" x="523.719" y="216.229"/><use xlink:href="#U" x="527.113" y="212.834"/></g><g fill="#595959"><use xlink:href="#i" x="530.103" y="236.291"/><use xlink:href="#i" x="533.497" y="232.897"/><use xlink:href="#i" x="536.891" y="229.503"/><use xlink:href="#k" x="540.285" y="226.108"/></g><use xlink:href="#q" x="541.675" y="224.719" fill="#595959"/><use xlink:href="#L" x="545.069" y="221.325" fill="#595959"/><use xlink:href="#A" x="548.463" y="217.931" fill="#595959"/><use xlink:href="#U" x="553.711" y="212.683" fill="#595959"/><g fill="#595959"><use xlink:href="#i" x="556.954" y="236.073"/><use xlink:href="#i" x="560.349" y="232.679"/><use xlink:href="#N" x="563.743" y="229.284"/><use xlink:href="#k" x="567.137" y="225.89"/></g><use xlink:href="#U" x="568.526" y="224.501" fill="#595959"/><use xlink:href="#m" x="571.92" y="221.107" fill="#595959"/><use xlink:href="#L" x="575.163" y="217.865" fill="#595959"/><use xlink:href="#o" x="578.405" y="214.622" fill="#595959"/><use xlink:href="#V" x="580.104" y="212.923" fill="#595959"/><use xlink:href="#V" x="581.955" y="211.072" fill="#595959"/><g fill="#595959"><use xlink:href="#i" x="580.61" y="239.127"/><use xlink:href="#C" x="584.004" y="235.733"/><use xlink:href="#j" x="587.398" y="232.339"/><use xlink:href="#k" x="590.792" y="228.945"/></g><use xlink:href="#H" x="592.182" y="227.556" fill="#595959"/><use xlink:href="#D" x="595.424" y="224.313" fill="#595959"/><use xlink:href="#l" x="598.666" y="221.071" fill="#595959"/><use xlink:href="#o" x="602.061" y="217.677" fill="#595959"/><use xlink:href="#m" x="603.76" y="215.978" fill="#595959"/><use xlink:href="#O" x="607.154" y="212.583" fill="#595959"/><g fill="#595959"><use xlink:href="#i" x="606.694" y="239.564"/><use xlink:href="#C" x="610.088" y="236.169"/><use xlink:href="#x" x="613.483" y="232.775"/><use xlink:href="#k" x="616.877" y="229.381"/></g><use xlink:href="#l" x="618.266" y="227.992" fill="#595959"/><use xlink:href="#D" x="621.66" y="224.598" fill="#595959"/><use xlink:href="#Q" x="625.054" y="221.204" fill="#595959"/><use xlink:href="#n" x="627.987" y="218.271" fill="#595959"/><use xlink:href="#L" x="630.609" y="215.649" fill="#595959"/><use xlink:href="#W" x="633.852" y="212.406" fill="#595959"/><g fill="#595959"><use xlink:href="#i" x="630.548" y="242.4"/><use xlink:href="#C" x="633.942" y="239.006"/><use xlink:href="#i" x="637.336" y="235.612"/><use xlink:href="#k" x="640.73" y="232.217"/></g><use xlink:href="#r" x="642.119" y="230.828" fill="#595959"/><use xlink:href="#L" x="645.362" y="227.586" fill="#595959"/><use xlink:href="#o" x="648.604" y="224.344" fill="#595959"/><use xlink:href="#r" x="650.303" y="222.645" fill="#595959"/><use xlink:href="#K" x="653.545" y="219.402" fill="#595959"/><use xlink:href="#o" x="656.94" y="216.008" fill="#595959"/><use xlink:href="#v" x="658.639" y="214.309" fill="#595959"/><use xlink:href="#O" x="660.338" y="212.61" fill="#595959"/><g fill="#595959"><use xlink:href="#i" x="647.57" y="252"/><use xlink:href="#C" x="650.965" y="248.606"/><use xlink:href="#z" x="654.359" y="245.212"/><use xlink:href="#k" x="657.753" y="241.817"/></g><use xlink:href="#X" x="659.142" y="240.428" fill="#595959"/><use xlink:href="#m" x="663.308" y="236.263" fill="#595959"/><use xlink:href="#A" x="666.55" y="233.02" fill="#595959"/><use xlink:href="#H" x="671.95" y="227.621" fill="#595959"/><use xlink:href="#Y" x="675.034" y="224.537" fill="#595959"/><use xlink:href="#S" x="678.58" y="220.99" fill="#595959"/><use xlink:href="#Z" x="682.746" y="216.825" fill="#595959"/><use xlink:href="#S" x="685.83" y="213.74" fill="#595959"/><g fill="#595959"><use xlink:href="#i" x="691.028" y="234.982"/><use xlink:href="#F" x="694.423" y="231.588"/><use xlink:href="#C" x="697.817" y="228.193"/><use xlink:href="#k" x="701.211" y="224.799"/></g><use xlink:href="#M" x="702.6" y="223.41" fill="#595959"/><use xlink:href="#D" x="704.609" y="221.401" fill="#595959"/><use xlink:href="#q" x="708.003" y="218.007" fill="#595959"/><use xlink:href="#M" x="711.397" y="214.613" fill="#595959"/><use xlink:href="#D" x="713.248" y="212.762" fill="#595959"/><g fill="#595959"><use xlink:href="#i" x="721.281" y="231.491"/><use xlink:href="#N" x="724.675" y="228.097"/><use xlink:href="#j" x="728.069" y="224.703"/><use xlink:href="#k" x="731.464" y="221.308"/></g><use xlink:href="#o" x="732.853" y="219.919" fill="#595959"/><use xlink:href="#p" x="734.552" y="218.22" fill="#595959"/><use xlink:href="#A" x="737.946" y="214.826" fill="#595959"/><g fill="#595959"><use xlink:href="#i" x="748.978" y="230.4"/><use xlink:href="#G" x="752.372" y="227.006"/><use xlink:href="#t" x="755.766" y="223.612"/><use xlink:href="#k" x="759.16" y="220.217"/></g><use xlink:href="#P" x="760.549" y="218.828" fill="#595959"/><use xlink:href="#n" x="765.335" y="214.043" fill="#595959"/><use xlink:href="#B" x="767.958" y="211.42" fill="#595959"/><g fill="#595959"><use xlink:href="#i" x="763.31" y="242.618"/><use xlink:href="#G" x="766.704" y="239.224"/><use xlink:href="#w" x="770.098" y="235.83"/><use xlink:href="#k" x="773.493" y="232.436"/></g><use xlink:href="#H" x="774.882" y="231.047" fill="#595959"/><use xlink:href="#l" x="778.124" y="227.804" fill="#595959"/><use xlink:href="#s" x="781.367" y="224.562" fill="#595959"/><use xlink:href="#v" x="784.913" y="221.016" fill="#595959"/><use xlink:href="#q" x="786.453" y="219.475" fill="#595959"/><use xlink:href="#O" x="789.848" y="216.081" fill="#595959"/><use xlink:href="#x" x="793.09" y="212.838" fill="#595959"/><g fill="#595959"><use xlink:href="#X" x="793.704" y="238.691"/><use xlink:href="#aa" x="797.869" y="234.526"/></g><g fill="#595959"><use xlink:href="#ab" x="801.573" y="230.822"/><use xlink:href="#T" x="805.738" y="226.657"/></g><use xlink:href="#aa" x="810.675" y="221.72" fill="#595959"/><use xlink:href="#R" x="814.53" y="217.865" fill="#595959"/><use xlink:href="#ac" x="818.544" y="213.851" fill="#595959"/><g fill="#595959"><use xlink:href="#ad" x="257.661" y="21.818"/><use xlink:href="#ae" x="266.281" y="21.818"/><use xlink:href="#af" x="274.999" y="21.818"/><use xlink:href="#ag" x="283.367" y="21.818"/><use xlink:href="#ag" x="292.029" y="21.818"/><use xlink:href="#ae" x="300.69" y="21.818"/><use xlink:href="#ah" x="309.408" y="21.818"/></g><use xlink:href="#ai" x="318.586" y="21.818" fill="#595959"/><g fill="#595959"><use xlink:href="#aj" x="322.347" y="21.818"/><use xlink:href="#ak" x="329.793" y="21.818"/><use xlink:href="#ak" x="337.24" y="21.818"/><use xlink:href="#al" x="344.687" y="21.818"/><use xlink:href="#ai" x="352.134" y="21.818"/></g><g fill="#595959"><use xlink:href="#ad" x="355.891" y="21.818"/><use xlink:href="#am" x="364.511" y="21.818"/><use xlink:href="#an" x="371.846" y="21.818"/><use xlink:href="#ao" x="379.028" y="21.818"/><use xlink:href="#ap" x="386.07" y="21.818"/></g><use xlink:href="#aq" x="393.293" y="21.818" fill="#595959"/><g fill="#595959"><use xlink:href="#ar" x="405.013" y="21.818"/><use xlink:href="#as" x="408.592" y="21.818"/></g><use xlink:href="#at" x="416.646" y="21.818" fill="#595959"/><use xlink:href="#al" x="424.592" y="21.818" fill="#595959"/><use xlink:href="#ak" x="432.041" y="21.818" fill="#595959"/><use xlink:href="#ai" x="439.491" y="21.818" fill="#595959"/><use xlink:href="#au" x="443.251" y="21.818" fill="#595959"/><use xlink:href="#ar" x="453.806" y="21.818" fill="#595959"/><use xlink:href="#as" x="457.381" y="21.818" fill="#595959"/><use xlink:href="#av" x="461.676" y="21.818" fill="#595959"/><use xlink:href="#ai" x="469.221" y="21.818" fill="#595959"/><use xlink:href="#aw" x="472.981" y="21.818" fill="#595959"/><use xlink:href="#ag" x="482.031" y="21.818" fill="#595959"/><use xlink:href="#ag" x="490.691" y="21.818" fill="#595959"/><use xlink:href="#ax" x="499.352" y="21.818" fill="#595959"/><use xlink:href="#ay" x="506.801" y="21.818" fill="#595959"/><g fill="#595959"><use xlink:href="#az" x="514.251" y="21.818"/><use xlink:href="#ak" x="517.421" y="21.818"/></g><use xlink:href="#ai" x="524.87" y="21.818" fill="#595959"/><use xlink:href="#aA" x="528.631" y="21.818" fill="#595959"/><use xlink:href="#ai" x="536.026" y="21.818" fill="#595959"/><use xlink:href="#aB" x="539.786" y="21.818" fill="#595959"/><use xlink:href="#aC" x="545.486" y="21.818" fill="#595959"/><use xlink:href="#al" x="552.211" y="21.818" fill="#595959"/><use xlink:href="#aD" x="559.661" y="21.818" fill="#595959"/><g fill="#595959"><use xlink:href="#az" x="567.11" y="21.818"/><use xlink:href="#aE" x="570.28" y="21.818"/></g><use xlink:href="#ar" x="576.929" y="21.818" fill="#595959"/><use xlink:href="#am" x="580.504" y="21.818" fill="#595959"/><path fill="#1973eb" d="M333.527 265.582h3.926v4.145h-3.926Zm0 0"/><g fill="#595959"><use xlink:href="#aF" x="339.176" y="270.327"/><use xlink:href="#aG" x="343.757" y="270.327"/></g><path fill="#25c8a2" d="M357.309 265.582h4.144v4.145h-4.144Zm0 0"/><g fill="#595959"><use xlink:href="#aF" x="363.046" y="270.327"/><use xlink:href="#aG" x="367.628" y="270.327"/></g><use xlink:href="#aH" x="372.21" y="270.327" fill="#595959"/><use xlink:href="#aI" x="376.139" y="270.327" fill="#595959"/><use xlink:href="#aJ" x="380.506" y="270.327" fill="#595959"/><use xlink:href="#aK" x="385.088" y="270.327" fill="#595959"/><use xlink:href="#aH" x="389.884" y="270.327" fill="#595959"/><use xlink:href="#aI" x="393.589" y="270.327" fill="#595959"/><use xlink:href="#aJ" x="397.957" y="270.327" fill="#595959"/><use xlink:href="#aJ" x="402.753" y="270.327" fill="#595959"/><path fill="#bf8ed1" d="M416.438 265.582h3.925v4.145h-3.925Zm0 0"/><g fill="#595959"><use xlink:href="#aF" x="422.082" y="270.327"/><use xlink:href="#aG" x="426.663" y="270.327"/></g><use xlink:href="#aJ" x="431.245" y="270.327" fill="#595959"/><use xlink:href="#aL" x="436.042" y="270.327" fill="#595959"/><use xlink:href="#aH" x="440.409" y="270.327" fill="#595959"/><use xlink:href="#aI" x="444.338" y="270.327" fill="#595959"/><use xlink:href="#aM" x="448.481" y="270.327" fill="#595959"/><use xlink:href="#aG" x="450.88" y="270.327" fill="#595959"/><use xlink:href="#aN" x="455.248" y="270.327" fill="#595959"/><use xlink:href="#aO" x="460.044" y="270.327" fill="#595959"/><use xlink:href="#aP" x="464.841" y="270.327" fill="#595959"/><path fill="#fe733c" d="M478.617 265.582h3.93v4.145h-3.93Zm0 0"/><g fill="#595959"><use xlink:href="#aQ" x="484.272" y="270.327"/><use xlink:href="#aL" x="487.981" y="270.327"/><use xlink:href="#f" x="492.343" y="270.327"/></g><use xlink:href="#e" x="497.143" y="270.327" fill="#595959"/><use xlink:href="#c" x="501.943" y="270.327" fill="#595959"/><use xlink:href="#aI" x="503.907" y="270.327" fill="#595959"/><use xlink:href="#aM" x="508.054" y="270.327" fill="#595959"/><use xlink:href="#aR" x="510.457" y="270.327" fill="#595959"/></svg>